#N canvas 321 266 1630 1129 10;
#X obj 48 -1105 pack f f;
#X obj 48 -1037 - 1;
#X obj 48 -990 pack 0 0 0;
#X obj 116 -1210 t f f;
#X text 62 -823 polyphonic single sample >;
#X obj 250 -738 fader;
#X msg 98 -1392 1;
#X msg 129 -1392 0;
#X msg 48 -1245 1;
#X obj 48 -1317 t b f;
#X obj 45 -1439 inlet;
#X obj 426 -1439 inlet;
#X obj 637 -1439 inlet;
#X obj 808 -1439 inlet;
#X text 163 -1393 testing;
#X obj 250 -515 outlet~ L;
#X obj 333 -515 outlet~ R;
#X obj 48 -1075 poly 4 1;
#X obj 47 -960 route 0 1 2 3;
#X obj 250 -821 clone pad_cell 2;
#X obj 362 -821 clone pad_cell 2;
#X obj 464 -821 clone pad_cell 2;
#X obj 587 -821 clone pad_cell 2;
#X msg 1202 -1284 all \$1 \$2 \$3 \$4;
#X msg 1361 -1279 all \$1;
#N canvas 58 472 779 530 urn_poly 0;
#X obj 53 3 inlet;
#X floatatom 137 92 5 0 0 0 - - -, f 5;
#X obj 109 92 urn;
#X obj 53 35 sel 0 1;
#X msg 53 92 0;
#X obj 68 138 pack f f;
#X obj 75 62 t b b;
#X msg 81 92 1;
#X obj 68 182 route 0 1 2 3;
#X obj 123 314 mod 2;
#X obj 123 289 f;
#X obj 158 289 + 1;
#X msg 68 160 \$2 \$1;
#X obj 68 369 pack f f;
#X msg 68 400 \$1 1 \$2;
#X obj 68 256 sel 0 1;
#X obj 68 234 t f f;
#X obj 68 422 outlet;
#X obj 249 312 mod 2;
#X obj 249 287 f;
#X obj 284 287 + 1;
#X obj 194 367 pack f f;
#X msg 194 398 \$1 1 \$2;
#X obj 194 254 sel 0 1;
#X obj 194 232 t f f;
#X obj 194 420 outlet;
#X obj 372 312 mod 2;
#X obj 372 287 f;
#X obj 407 287 + 1;
#X obj 317 367 pack f f;
#X msg 317 398 \$1 1 \$2;
#X obj 317 254 sel 0 1;
#X obj 317 232 t f f;
#X obj 317 420 outlet;
#X obj 494 316 mod 2;
#X obj 494 291 f;
#X obj 529 291 + 1;
#X obj 439 371 pack f f;
#X msg 439 402 \$1 1 \$2;
#X obj 439 258 sel 0 1;
#X obj 439 236 t f f;
#X obj 439 424 outlet;
#X connect 0 0 3 0;
#X connect 2 0 1 0;
#X connect 2 0 5 1;
#X connect 3 0 4 0;
#X connect 3 1 6 0;
#X connect 4 0 5 0;
#X connect 5 0 12 0;
#X connect 6 0 7 0;
#X connect 6 1 2 0;
#X connect 7 0 5 0;
#X connect 8 0 16 0;
#X connect 8 1 24 0;
#X connect 8 2 32 0;
#X connect 8 3 40 0;
#X connect 9 0 13 0;
#X connect 10 0 11 0;
#X connect 10 0 9 0;
#X connect 11 0 10 1;
#X connect 12 0 8 0;
#X connect 13 0 14 0;
#X connect 14 0 17 0;
#X connect 15 0 13 0;
#X connect 15 1 10 0;
#X connect 16 0 15 0;
#X connect 16 1 13 1;
#X connect 18 0 21 0;
#X connect 19 0 20 0;
#X connect 19 0 18 0;
#X connect 20 0 19 1;
#X connect 21 0 22 0;
#X connect 22 0 25 0;
#X connect 23 0 21 0;
#X connect 23 1 19 0;
#X connect 24 0 23 0;
#X connect 24 1 21 1;
#X connect 26 0 29 0;
#X connect 27 0 28 0;
#X connect 27 0 26 0;
#X connect 28 0 27 1;
#X connect 29 0 30 0;
#X connect 30 0 33 0;
#X connect 31 0 29 0;
#X connect 31 1 27 0;
#X connect 32 0 31 0;
#X connect 32 1 29 1;
#X connect 34 0 37 0;
#X connect 35 0 36 0;
#X connect 35 0 34 0;
#X connect 36 0 35 1;
#X connect 37 0 38 0;
#X connect 38 0 41 0;
#X connect 39 0 37 0;
#X connect 39 1 35 0;
#X connect 40 0 39 0;
#X connect 40 1 37 1;
#X restore 192 -1110 pd urn_poly;
#X msg 429 -1205 all \$1;
#X obj 434 -1368 unpack s s s s;
#X msg 473 -1204 all \$1;
#X msg 518 -1205 all \$1;
#X msg 563 -1205 all \$1;
#X connect 0 0 17 0;
#X connect 1 0 2 0;
#X connect 3 0 0 1;
#X connect 3 1 25 0;
#X connect 5 0 15 0;
#X connect 5 1 16 0;
#X connect 6 0 9 0;
#X connect 7 0 9 0;
#X connect 8 0 0 0;
#X connect 9 0 8 0;
#X connect 9 1 3 0;
#X connect 10 0 9 0;
#X connect 11 0 27 0;
#X connect 12 0 23 0;
#X connect 13 0 24 0;
#X connect 17 0 1 0;
#X connect 17 1 2 1;
#X connect 17 2 2 2;
#X connect 18 0 19 0;
#X connect 18 1 20 0;
#X connect 18 2 21 0;
#X connect 18 3 22 0;
#X connect 19 0 5 0;
#X connect 19 1 5 1;
#X connect 20 0 5 0;
#X connect 20 1 5 1;
#X connect 21 0 5 0;
#X connect 21 1 5 1;
#X connect 22 0 5 0;
#X connect 22 1 5 1;
#X connect 23 0 19 2;
#X connect 23 0 20 2;
#X connect 23 0 21 2;
#X connect 23 0 22 2;
#X connect 24 0 19 3;
#X connect 24 0 20 3;
#X connect 24 0 21 3;
#X connect 24 0 22 3;
#X connect 25 0 19 0;
#X connect 25 1 20 0;
#X connect 25 2 21 0;
#X connect 25 3 22 0;
#X connect 26 0 19 1;
#X connect 27 0 26 0;
#X connect 27 1 28 0;
#X connect 27 2 29 0;
#X connect 27 3 30 0;
#X connect 28 0 20 1;
#X connect 29 0 21 1;
#X connect 30 0 22 1;
