#N canvas 495 23 512 531 12;
#X obj 159 -600 inlet;
#X obj 245 -600 inlet;
#X obj 32 -159 *~;
#X obj 176 -245 line~;
#X msg 176 -272 \$1 50;
#X obj 93 -159 *~;
#X obj 207 -337 spigot;
#X obj 159 -535 inv;
#X msg 159 -347 0;
#X msg 245 -524 100;
#X obj 245 -550 t b f;
#X obj 245 -498 +;
#X obj 245 -472 dbtorms;
#X obj 245 -396 f;
#X obj 245 -443 t b f;
#X obj 159 -496 t f b f;
#X obj 197 -442 sel 1;
#X obj 32 -600 inlet~;
#X obj 93 -600 inlet~;
#X obj 32 -114 outlet~;
#X obj 93 -114 outlet~;
#X connect 0 0 7 0;
#X connect 1 0 10 0;
#X connect 2 0 19 0;
#X connect 3 0 2 1;
#X connect 3 0 5 1;
#X connect 4 0 3 0;
#X connect 5 0 20 0;
#X connect 6 0 4 0;
#X connect 7 0 15 0;
#X connect 8 0 4 0;
#X connect 9 0 11 0;
#X connect 10 0 9 0;
#X connect 10 1 11 1;
#X connect 11 0 12 0;
#X connect 12 0 14 0;
#X connect 13 0 6 0;
#X connect 14 0 13 0;
#X connect 14 1 13 1;
#X connect 15 0 16 0;
#X connect 15 1 8 0;
#X connect 15 2 6 1;
#X connect 16 0 13 0;
#X connect 17 0 2 0;
#X connect 18 0 5 0;
