#N canvas 495 23 664 479 12;
#X obj 72 -116 inlet~;
#X obj 94 235 outlet~;
#X obj 210 -26 vsl 15 80 0 1 0 1 empty empty empty 0 -9 0 10 -262144
-1 -1 7022 1;
#X obj 132 -116 inlet~;
#X obj 156 235 outlet~;
#X obj 322 1 expr round($f1);
#X obj 322 27 * 0.01;
#X floatatom 210 63 5 0 0 0 - - -, f 5;
#X obj 235 -26 bng 15 250 50 0 empty empty unity 0 20 0 10 -262144
-1 -1;
#X obj 235 11 tgl 15 1 empty empty mute 0 20 0 10 -262144 -1 -1 0 1
;
#X obj 322 -25 expr ((90 * $f1 + -80) * 100) + 0.4;
#X msg 255 -83 0.8889;
#N canvas 0 22 450 300 fader_backend 0;
#X obj 187 -523 inlet;
#X obj 273 -523 inlet;
#X obj 60 -82 *~;
#X obj 204 -168 line~;
#X msg 204 -195 \$1 50;
#X obj 121 -82 *~;
#X obj 235 -260 spigot;
#X obj 187 -458 inv;
#X msg 187 -270 0;
#X msg 273 -447 100;
#X obj 273 -473 t b f;
#X obj 273 -421 +;
#X obj 273 -395 dbtorms;
#X obj 273 -319 f;
#X obj 273 -366 t b f;
#X obj 187 -419 t f b f;
#X obj 225 -365 sel 1;
#X obj 60 -523 inlet~;
#X obj 121 -523 inlet~;
#X obj 60 -37 outlet~;
#X obj 121 -37 outlet~;
#X connect 0 0 7 0;
#X connect 1 0 10 0;
#X connect 2 0 19 0;
#X connect 3 0 2 1;
#X connect 3 0 5 1;
#X connect 4 0 3 0;
#X connect 5 0 20 0;
#X connect 6 0 4 0;
#X connect 7 0 15 0;
#X connect 8 0 4 0;
#X connect 9 0 11 0;
#X connect 10 0 9 0;
#X connect 10 1 11 1;
#X connect 11 0 12 0;
#X connect 12 0 14 0;
#X connect 13 0 6 0;
#X connect 14 0 13 0;
#X connect 14 1 13 1;
#X connect 15 0 16 0;
#X connect 15 1 8 0;
#X connect 15 2 6 1;
#X connect 16 0 13 0;
#X connect 17 0 2 0;
#X connect 18 0 5 0;
#X restore 94 130 pd fader_backend;
#X connect 0 0 12 0;
#X connect 2 0 10 0;
#X connect 3 0 12 1;
#X connect 5 0 6 0;
#X connect 6 0 7 0;
#X connect 6 0 12 3;
#X connect 8 0 11 0;
#X connect 9 0 12 2;
#X connect 10 0 5 0;
#X connect 11 0 2 0;
#X connect 12 0 1 0;
#X connect 12 1 4 0;
#X coords 0 -1 1 1 89 157 1 192 -58;
