#N canvas 12 138 1241 1161 12;
#X obj 160 190 expr 44100 / $f1;
#X floatatom 170 217 13 0 0 0 - - -, f 13;
#X obj 108 451 phasor~;
#X obj 108 476 *~;
#N canvas 644 141 278 209 playback_slider 0;
#X obj 38 18 loadbang;
#X obj 111 18 bng 15 250 50 0 empty empty empty 17 7 0 10 -262144 -1
-1;
#X obj 38 68 snapshot~;
#X floatatom 38 93 9 0 0 0 - - -, f 9;
#X obj 38 157 /;
#X obj 38 182 outlet;
#X obj -15 64 inlet~;
#X obj 166 18 inlet;
#X obj 38 43 metro 50;
#X connect 0 0 8 0;
#X connect 1 0 8 0;
#X connect 2 0 3 0;
#X connect 3 0 4 0;
#X connect 4 0 5 0;
#X connect 6 0 2 0;
#X connect 7 0 4 1;
#X connect 8 0 2 0;
#X restore 137 505 pd playback_slider;
#X obj 137 530 hsl 128 15 0 1 0 0 empty empty empty -2 -8 0 10 -262144
-1 -1 0 1;
#X obj 86 275 t b b;
#X msg 107 410 0;
#X obj 86 83 bng 15 250 50 0 empty empty stop 17 7 0 10 -262144 -1
-1;
#X obj 108 889 outlet~;
#X obj 194 155 t f f;
#X obj 42 275 f;
#X obj 42 83 bng 15 250 50 0 empty empty play 17 7 0 10 -262144 -1
-1;
#N canvas 74 74 1158 781 envelope1 0;
#X obj 353 -378 timer;
#X obj 423 -388 +;
#X obj 423 -417 f;
#X obj 352 -452 t b b;
#X obj 354 -285 >= 0;
#X obj 354 -330 t f f;
#X obj 312 -141 f;
#X msg 312 -108 0 \$1;
#X obj 454 -169 f;
#X obj 454 -144 pack f f f;
#X obj 313 -55 vline~;
#X obj 354 -256 sel 0 1;
#X msg 454 -115 \$1 \$2 \, 0 \$3 \$2;
#X obj 354 -353 expr $f2-$f1;
#X obj 482 -308 min;
#X obj 482 -287 min;
#X text 121 -374 [attack \, decay \, sustain];
#X text 357 -560 [release];
#X obj 150 -141 pack f f f f f;
#X msg 150 -116 \$1 \$2 \, \$3 \$4 \$5;
#X obj 199 -247 *;
#X obj 141 -292 t f f;
#X obj 547 -230 *;
#X obj 313 -35 outlet~;
#X obj 352 -490 sel 1 0;
#X obj 96 -634 inlet velocity;
#X obj 154 -589 inlet A;
#X obj 205 -591 inlet D;
#X obj 255 -591 inlet S;
#X obj 308 -598 inlet R;
#X obj 947 -549 unpack \$1 \$2 \$3 \$4;
#X obj 876 -578 loadbang;
#X obj 352 -511 > 0;
#X obj 114 -323 sel 0;
#X text 670 -626 inlets for individual parameters;
#X text 948 -590 creation arguments for ADSR;
#X text 648 -486 Note that the midi standard is for full velocity to
be 127 \, so that's what we are expecting at our inlet \, and then
we scale by dividing by 127 You can change this so that the patch just
accepts 0->1 scale directly if that is easier for you and you don't
want to follow midi standards.;
#X text 648 -408 The attack \, decay and release are all accepting
millisecond values \, as that seems the clearest way \, but again \,
if you prefer to use midi standards \, or scale 0->1 \, then that is
an easy modification.;
#X text 646 -347 Sustain here takes a 0->1 value. You can change that
too \, depending on what type of controller you wish to use.;
#X obj 122 -471 unpack \$1 \$2 \$3 \$4;
#X obj 123 -519 loadbang;
#X obj 97 -589 / 1;
#X obj 97 -613 clip 0 1;
#X connect 0 0 13 0;
#X connect 1 0 13 1;
#X connect 2 0 1 0;
#X connect 3 0 0 0;
#X connect 3 1 2 0;
#X connect 4 0 11 0;
#X connect 5 0 4 0;
#X connect 5 1 14 0;
#X connect 6 0 7 0;
#X connect 7 0 10 0;
#X connect 8 0 9 0;
#X connect 9 0 12 0;
#X connect 10 0 23 0;
#X connect 11 0 6 0;
#X connect 11 1 8 0;
#X connect 12 0 10 0;
#X connect 13 0 5 0;
#X connect 14 0 15 0;
#X connect 15 0 9 1;
#X connect 18 0 19 0;
#X connect 19 0 10 0;
#X connect 20 0 18 2;
#X connect 21 0 18 0;
#X connect 21 1 20 0;
#X connect 22 0 8 1;
#X connect 24 0 3 0;
#X connect 24 1 0 1;
#X connect 25 0 42 0;
#X connect 26 0 18 1;
#X connect 26 0 18 4;
#X connect 26 0 2 1;
#X connect 27 0 18 3;
#X connect 27 0 14 1;
#X connect 27 0 1 1;
#X connect 28 0 20 1;
#X connect 28 0 22 1;
#X connect 29 0 6 1;
#X connect 29 0 9 2;
#X connect 29 0 15 1;
#X connect 31 0 30 0;
#X connect 32 0 24 0;
#X connect 33 1 21 0;
#X connect 39 0 18 1;
#X connect 39 0 18 4;
#X connect 39 0 2 1;
#X connect 39 1 18 3;
#X connect 39 1 1 1;
#X connect 39 1 14 1;
#X connect 39 2 20 1;
#X connect 39 2 22 1;
#X connect 39 3 6 1;
#X connect 39 3 9 2;
#X connect 39 3 15 1;
#X connect 40 0 39 0;
#X connect 41 0 33 0;
#X connect 41 0 22 0;
#X connect 41 0 32 0;
#X connect 42 0 41 0;
#X restore 392 658 pd envelope1;
#X obj 108 815 *~;
#X obj 895 144 switch~;
#X floatatom 953 144 5 0 0 0 - - -, f 5;
#X msg 895 115 1;
#X obj 98 -8 route 1 0;
#X obj 24 -106 inlet;
#X obj 24 -77 unpack f f;
#X obj 42 48 route 1 0;
#X obj 91 -37 t f f f;
#N canvas 495 23 450 300 env_snapshot 0;
#X obj 34 24 snapshot~;
#X obj 125 -21 metro 100;
#X obj 34 53 change;
#X obj 34 82 sel 0;
#X obj 125 -52 loadbang;
#X obj 34 -51 inlet~;
#X obj 34 172 outlet;
#X obj 143 172 outlet;
#X obj 193 -52 bng 15 250 50 0 empty empty empty 17 7 0 10 -262144
-1 -1;
#X connect 0 0 2 0;
#X connect 0 0 7 0;
#X connect 1 0 0 0;
#X connect 2 0 3 0;
#X connect 3 0 6 0;
#X connect 4 0 1 0;
#X connect 5 0 0 0;
#X connect 8 0 1 0;
#X restore 399 686 pd env_snapshot;
#X obj 399 716 t b b;
#X floatatom 518 710 5 0 0 0 - - -, f 5;
#X obj 161 42 soundfiler;
#X obj 161 -106 inlet path;
#X obj 161 -37 pack symbol \$0;
#X msg 925 115 0;
#X obj 410 -106 inlet ADSR;
#X obj 410 587 unpack f f f f;
#X obj 42 322 t f b;
#X obj 281 349 spigot;
#X msg 155 410 0;
#X floatatom 568 612 5 0 0 0 - - -, f 5;
#X obj 281 376 random_noise;
#N canvas 495 23 513 198 tables 0;
#N canvas 0 22 450 300 (subpatch) 0;
#X array \$0-arrayL 88200 float 4 black black;
#X coords 0 1 88199 -1 200 140 1;
#X restore 30 28 graph;
#N canvas 0 22 450 300 (subpatch) 0;
#X array \$0-arrayR 88200 float 4 black black;
#X coords 0 1 88199 -1 200 140 1;
#X restore 257 28 graph;
#X restore 655 -106 pd tables;
#X obj 895 71 r \$0-on;
#X obj 925 90 r \$0-off;
#X obj 98 21 s \$0-on;
#X obj 399 773 s \$0-off;
#X obj 399 745 del 100;
#X msg 161 3 read -resize \$1 \$2-arrayL \$2-arrayR;
#X obj 108 570 tabread4~ \$0-arrayL;
#X obj 138 602 tabread4~ \$0-arrayR;
#X obj 143 815 *~;
#X obj 170 889 outlet~;
#X obj 507 -106 inlet RSP;
#X connect 0 0 1 0;
#X connect 0 0 11 1;
#X connect 2 0 3 0;
#X connect 3 0 4 0;
#X connect 3 0 44 0;
#X connect 3 0 45 0;
#X connect 4 0 5 0;
#X connect 6 0 34 0;
#X connect 6 1 7 0;
#X connect 7 0 2 0;
#X connect 8 0 6 0;
#X connect 10 0 4 1;
#X connect 10 1 3 1;
#X connect 11 0 32 0;
#X connect 12 0 11 0;
#X connect 13 0 14 1;
#X connect 13 0 23 0;
#X connect 13 0 46 1;
#X connect 14 0 9 0;
#X connect 17 0 15 0;
#X connect 17 0 16 0;
#X connect 18 0 40 0;
#X connect 19 0 20 0;
#X connect 20 1 22 0;
#X connect 21 0 12 0;
#X connect 22 0 13 0;
#X connect 22 1 21 0;
#X connect 22 2 18 0;
#X connect 23 0 24 0;
#X connect 23 1 25 0;
#X connect 24 0 42 0;
#X connect 24 1 8 0;
#X connect 26 0 0 0;
#X connect 26 0 10 0;
#X connect 27 0 28 0;
#X connect 28 0 43 0;
#X connect 29 0 16 0;
#X connect 29 0 15 0;
#X connect 30 0 31 0;
#X connect 31 0 13 1;
#X connect 31 0 35 0;
#X connect 31 1 13 2;
#X connect 31 2 13 3;
#X connect 31 3 13 4;
#X connect 32 0 2 0;
#X connect 32 1 33 0;
#X connect 33 0 36 0;
#X connect 34 0 2 1;
#X connect 36 0 2 1;
#X connect 38 0 17 0;
#X connect 39 0 29 0;
#X connect 42 0 41 0;
#X connect 43 0 26 0;
#X connect 44 0 14 0;
#X connect 45 0 46 0;
#X connect 46 0 47 0;
#X connect 48 0 33 1;
