#N canvas 495 23 726 265 12;
#X obj 14 48 r random1_recieve;
#X obj 14 20 s random1_send;
#X obj 14 -8 inlet;
#X obj 14 76 outlet;
#X obj 144 -8 inlet;
#X obj 144 76 outlet;
#X obj 274 -8 inlet;
#X obj 274 76 outlet;
#X obj 404 -8 inlet;
#X obj 404 76 outlet;
#X obj 144 20 s random2_send;
#X obj 144 48 r random2_recieve;
#X obj 274 20 s random3_send;
#X obj 274 48 r random3_recieve;
#X obj 404 20 s random4_send;
#X obj 404 48 r random4_recieve;
#X connect 0 0 3 0;
#X connect 2 0 1 0;
#X connect 4 0 10 0;
#X connect 6 0 12 0;
#X connect 8 0 14 0;
#X connect 11 0 5 0;
#X connect 13 0 7 0;
#X connect 15 0 9 0;
