#N canvas 86 122 990 501 12;
#X obj 422 -30 inlet path;
#X obj 54 -30 inlet play;
#X obj 54 450 outlet~;
#N canvas 0 421 450 346 tables 0;
#N canvas 0 22 450 300 (subpatch) 0;
#X array \$0-array1 88200 float 4 black black;
#X coords 0 1 88199 -1 200 140 1;
#X restore 26 -52 graph;
#N canvas 0 22 450 300 (subpatch) 0;
#X array \$0-array2 88200 float 4 black black;
#X coords 0 1 88199 -1 200 140 1;
#X restore 240 -52 graph;
#N canvas 0 22 450 300 (subpatch) 0;
#X array \$0-array3 88200 float 4 black black;
#X coords 0 1 88199 -1 200 140 1;
#X restore 24 119 graph;
#N canvas 0 22 450 300 (subpatch) 0;
#X array \$0-array4 88200 float 4 black black;
#X coords 0 1 88199 -1 200 140 1;
#X restore 246 119 graph;
#X restore 623 -30 pd tables;
#X obj 54 170 tabplay~ \$0-array1;
#X obj 63 196 tabplay~ \$0-array2;
#X obj 78 221 tabplay~ \$0-array3;
#X obj 87 247 tabplay~ \$0-array4;
#X obj 54 105 sel 0 1 2 3;
#X msg 422 166 read -resize \$1 \$0-array1;
#X msg 442 187 read -resize \$1 \$0-array2;
#X msg 462 208 read -resize \$1 \$0-array3;
#X msg 482 229 read -resize \$1 \$0-array4;
#X obj 422 61 pack symbol \$0;
#X obj 442 86 pack symbol \$0;
#X obj 462 111 pack symbol \$0;
#X obj 482 136 pack symbol \$0;
#X obj 422 26 route 0 1 2 3;
#X obj 827 73 switch~;
#X msg 827 36 1;
#X msg 867 36 0;
#X obj 86 28 s \$0-on;
#X obj 827 -24 r \$0-on;
#X obj 100 300 env~;
#X obj 867 1 r \$0-off;
#X floatatom 883 73 5 0 0 0 - - -, f 5;
#X obj 100 408 s \$0-off;
#X obj 100 381 del 100;
#X obj 100 354 sel 0;
#X obj 100 327 change;
#X obj 54 -1 t f b;
#X obj 422 325 soundfiler;
#X connect 0 0 17 0;
#X connect 1 0 30 0;
#X connect 4 0 2 0;
#X connect 4 0 23 0;
#X connect 5 0 2 0;
#X connect 5 0 23 0;
#X connect 6 0 2 0;
#X connect 6 0 23 0;
#X connect 7 0 2 0;
#X connect 7 0 23 0;
#X connect 8 0 4 0;
#X connect 8 1 5 0;
#X connect 8 2 6 0;
#X connect 8 3 7 0;
#X connect 9 0 31 0;
#X connect 10 0 31 0;
#X connect 11 0 31 0;
#X connect 12 0 31 0;
#X connect 13 0 9 0;
#X connect 14 0 10 0;
#X connect 15 0 11 0;
#X connect 16 0 12 0;
#X connect 17 0 13 0;
#X connect 17 1 14 0;
#X connect 17 2 15 0;
#X connect 17 3 16 0;
#X connect 19 0 18 0;
#X connect 19 0 25 0;
#X connect 20 0 18 0;
#X connect 20 0 25 0;
#X connect 22 0 19 0;
#X connect 23 0 29 0;
#X connect 24 0 20 0;
#X connect 27 0 26 0;
#X connect 28 0 27 0;
#X connect 29 0 28 0;
#X connect 30 0 8 0;
#X connect 30 1 21 0;
