#N canvas 812 78 509 540 12;
#X obj 60 111 bng 15 250 50 0 empty empty play 17 7 0 10 -262144 -1
-1;
#X obj 59 285 dac~;
#X obj 377 117 dsp;
#X obj 377 89 tgl 15 0 empty empty empty 17 7 0 10 -262144 -1 -1 1
1;
#X obj 377 56 loadbang;
#X obj 73 241 clone samplertest 16;
#X obj 210 100 bng 15 250 50 0 empty empty empty 17 7 0 10 -262144
-1 -1;
#X obj 58 151 f;
#X floatatom 226 35 5 0 0 0 - - -, f 5;
#X obj 249 174 pack symbol \$0;
#X msg 249 202 all \$1;
#X msg 249 146 cell1.wav;
#X obj 249 121 loadbang;
#X connect 0 0 7 0;
#X connect 3 0 2 0;
#X connect 4 0 3 0;
#X connect 5 0 1 0;
#X connect 5 0 1 1;
#X connect 7 0 5 0;
#X connect 8 0 7 1;
#X connect 9 0 10 0;
#X connect 10 0 5 1;
#X connect 11 0 9 0;
#X connect 12 0 11 0;
