#N canvas 764 64 1796 1331 12;
#X declare -path ./components;
#X obj 15 305 dac~ 1 2 3 4;
#N canvas 578 110 808 734 bela_input 0;
#X obj 47 377 list;
#X obj 47 337 metro 200;
#X obj 47 311 loadbang;
#X text 117 337 Throttle printing;
#X obj 48 417 print touchSensor;
#X obj 47 74 loadbang;
#X obj 385 237 r bela_trill;
#X obj 47 193 s bela_setTrill;
#X text 201 75 First initialise the Trill sensor;
#X text 498 237 This receives the reading from the Trill sensor.;
#X text 899 340 and then the individual channels if in diff mode;
#X text 899 361 In this example we use the first 4 channels to;
#X text 502 273 Which will be prepended with the sensor_id;
#X text 659 154 [prescaler <sensor_id> <value> (between 1 and 8);
#X text 658 175 [threshold <sensor_id> <value>(between 0 and 1.0);
#X text 899 381 trigger sample playback and print all on the console.
;
#X obj 385 274 route mycraft;
#X text 32 539 device that was successfully initialised. The message
;
#X text 32 549 will contain: <sensor_id> <device> <mode> <address>
;
#X text 31 528 bela_trillCreated will receive a message for each;
#X obj 36 581 r bela_trillCreated;
#X obj 36 610 print bela_trillCreated;
#X text 96 42 >>> See full documentation in examples/Trill/general-pd
<<<;
#X text 658 134 We are also changing settings on initialisation:;
#X msg 47 154 new mycraft 1 CRAFT \, prescaler mycraft 2 \, threshold
mycraft 0.01;
#X text 171 108 Message: [new <sensor_id> <bus> <device> <address=255>(
;
#N canvas 0 322 1440 436 parse_group 0;
#X obj 48 42 inlet;
#X obj 48 376 outlet;
#X obj 1514 35 inlet;
#X obj 48 212 parse;
#X obj 92 42 inlet;
#X obj 92 376 outlet;
#X obj 92 212 parse;
#X obj 136 42 inlet;
#X obj 136 376 outlet;
#X obj 136 212 parse;
#X obj 180 42 inlet;
#X obj 180 376 outlet;
#X obj 180 212 parse;
#X obj 224 42 inlet;
#X obj 224 376 outlet;
#X obj 224 212 parse;
#X obj 268 42 inlet;
#X obj 268 376 outlet;
#X obj 268 212 parse;
#X obj 312 42 inlet;
#X obj 312 376 outlet;
#X obj 312 212 parse;
#X obj 356 42 inlet;
#X obj 356 376 outlet;
#X obj 356 212 parse;
#X obj 400 42 inlet;
#X obj 400 376 outlet;
#X obj 400 212 parse;
#X obj 444 42 inlet;
#X obj 444 376 outlet;
#X obj 444 212 parse;
#X obj 488 42 inlet;
#X obj 488 376 outlet;
#X obj 488 212 parse;
#X obj 532 42 inlet;
#X obj 532 376 outlet;
#X obj 532 212 parse;
#X obj 576 42 inlet;
#X obj 576 376 outlet;
#X obj 576 212 parse;
#X obj 620 42 inlet;
#X obj 620 376 outlet;
#X obj 620 212 parse;
#X obj 664 42 inlet;
#X obj 664 376 outlet;
#X obj 664 212 parse;
#X obj 708 42 inlet;
#X obj 708 376 outlet;
#X obj 708 212 parse;
#X obj 752 42 inlet;
#X obj 752 376 outlet;
#X obj 752 212 parse;
#X obj 796 42 inlet;
#X obj 796 376 outlet;
#X obj 796 212 parse;
#X obj 840 42 inlet;
#X obj 840 376 outlet;
#X obj 840 212 parse;
#X obj 884 42 inlet;
#X obj 884 376 outlet;
#X obj 884 212 parse;
#X obj 928 42 inlet;
#X obj 928 376 outlet;
#X obj 928 212 parse;
#X obj 972 42 inlet;
#X obj 972 376 outlet;
#X obj 972 212 parse;
#X obj 1016 42 inlet;
#X obj 1016 376 outlet;
#X obj 1016 212 parse;
#X obj 1060 42 inlet;
#X obj 1060 376 outlet;
#X obj 1060 212 parse;
#X obj 1104 42 inlet;
#X obj 1104 376 outlet;
#X obj 1104 212 parse;
#X obj 1148 42 inlet;
#X obj 1148 376 outlet;
#X obj 1148 212 parse;
#X obj 1192 42 inlet;
#X obj 1192 376 outlet;
#X obj 1192 212 parse;
#X obj 1236 42 inlet;
#X obj 1236 376 outlet;
#X obj 1236 212 parse;
#X obj 1280 42 inlet;
#X obj 1280 376 outlet;
#X obj 1280 212 parse;
#X obj 1324 42 inlet;
#X obj 1324 376 outlet;
#X obj 1324 212 parse;
#X text 1558 36 threshold inlet;
#X connect 0 0 3 0;
#X connect 2 0 3 1;
#X connect 2 0 90 1;
#X connect 2 0 87 1;
#X connect 2 0 84 1;
#X connect 2 0 81 1;
#X connect 2 0 78 1;
#X connect 2 0 75 1;
#X connect 2 0 72 1;
#X connect 2 0 69 1;
#X connect 2 0 66 1;
#X connect 2 0 63 1;
#X connect 2 0 60 1;
#X connect 2 0 57 1;
#X connect 2 0 54 1;
#X connect 2 0 51 1;
#X connect 2 0 48 1;
#X connect 2 0 45 1;
#X connect 2 0 42 1;
#X connect 2 0 39 1;
#X connect 2 0 36 1;
#X connect 2 0 33 1;
#X connect 2 0 30 1;
#X connect 2 0 27 1;
#X connect 2 0 24 1;
#X connect 2 0 21 1;
#X connect 2 0 18 1;
#X connect 2 0 15 1;
#X connect 2 0 12 1;
#X connect 2 0 9 1;
#X connect 2 0 6 1;
#X connect 3 0 1 0;
#X connect 4 0 6 0;
#X connect 6 0 5 0;
#X connect 7 0 9 0;
#X connect 9 0 8 0;
#X connect 10 0 12 0;
#X connect 12 0 11 0;
#X connect 13 0 15 0;
#X connect 15 0 14 0;
#X connect 16 0 18 0;
#X connect 18 0 17 0;
#X connect 19 0 21 0;
#X connect 21 0 20 0;
#X connect 22 0 24 0;
#X connect 24 0 23 0;
#X connect 25 0 27 0;
#X connect 27 0 26 0;
#X connect 28 0 30 0;
#X connect 30 0 29 0;
#X connect 31 0 33 0;
#X connect 33 0 32 0;
#X connect 34 0 36 0;
#X connect 36 0 35 0;
#X connect 37 0 39 0;
#X connect 39 0 38 0;
#X connect 40 0 42 0;
#X connect 42 0 41 0;
#X connect 43 0 45 0;
#X connect 45 0 44 0;
#X connect 46 0 48 0;
#X connect 48 0 47 0;
#X connect 49 0 51 0;
#X connect 51 0 50 0;
#X connect 52 0 54 0;
#X connect 54 0 53 0;
#X connect 55 0 57 0;
#X connect 57 0 56 0;
#X connect 58 0 60 0;
#X connect 60 0 59 0;
#X connect 61 0 63 0;
#X connect 63 0 62 0;
#X connect 64 0 66 0;
#X connect 66 0 65 0;
#X connect 67 0 69 0;
#X connect 69 0 68 0;
#X connect 70 0 72 0;
#X connect 72 0 71 0;
#X connect 73 0 75 0;
#X connect 75 0 74 0;
#X connect 76 0 78 0;
#X connect 78 0 77 0;
#X connect 79 0 81 0;
#X connect 81 0 80 0;
#X connect 82 0 84 0;
#X connect 84 0 83 0;
#X connect 85 0 87 0;
#X connect 87 0 86 0;
#X connect 88 0 90 0;
#X connect 90 0 89 0;
#X restore 385 347 pd parse_group;
#X obj 385 313 unpack f f f f f f f f f f f f f f f f f f f f f f f
f f f f f f f, f 67;
#X text 900 286 threshold;
#X obj 867 247 loadbang;
#X msg 867 286 0.65;
#N canvas 560 322 1440 436 midistlye_mesage_generator 0;
#X obj 48 42 inlet;
#X obj 48 348 outlet;
#X msg 48 195 0 \$1;
#X obj 88 42 inlet;
#X obj 88 348 outlet;
#X obj 128 42 inlet;
#X obj 128 348 outlet;
#X obj 168 42 inlet;
#X obj 168 348 outlet;
#X obj 208 42 inlet;
#X obj 208 348 outlet;
#X obj 248 42 inlet;
#X obj 248 348 outlet;
#X obj 288 42 inlet;
#X obj 288 348 outlet;
#X obj 328 42 inlet;
#X obj 328 348 outlet;
#X obj 368 42 inlet;
#X obj 368 348 outlet;
#X obj 408 42 inlet;
#X obj 408 348 outlet;
#X obj 448 42 inlet;
#X obj 448 348 outlet;
#X obj 488 42 inlet;
#X obj 488 348 outlet;
#X obj 528 42 inlet;
#X obj 528 348 outlet;
#X obj 568 42 inlet;
#X obj 568 348 outlet;
#X obj 608 42 inlet;
#X obj 608 348 outlet;
#X obj 648 42 inlet;
#X obj 648 348 outlet;
#X obj 688 42 inlet;
#X obj 688 348 outlet;
#X obj 728 42 inlet;
#X obj 728 348 outlet;
#X obj 768 42 inlet;
#X obj 768 348 outlet;
#X obj 808 42 inlet;
#X obj 808 348 outlet;
#X obj 848 42 inlet;
#X obj 848 348 outlet;
#X obj 888 42 inlet;
#X obj 888 348 outlet;
#X obj 928 42 inlet;
#X obj 928 348 outlet;
#X obj 968 42 inlet;
#X obj 968 348 outlet;
#X obj 1008 42 inlet;
#X obj 1008 348 outlet;
#X obj 1048 42 inlet;
#X obj 1048 348 outlet;
#X obj 1088 42 inlet;
#X obj 1088 348 outlet;
#X obj 1128 42 inlet;
#X obj 1128 348 outlet;
#X obj 1168 42 inlet;
#X obj 1168 348 outlet;
#X obj 1208 42 inlet;
#X obj 1208 348 outlet;
#X msg 88 195 1 \$1;
#X msg 128 195 2 \$1;
#X msg 168 195 3 \$1;
#X msg 208 195 4 \$1;
#X msg 248 195 5 \$1;
#X msg 288 195 6 \$1;
#X msg 328 195 7 \$1;
#X msg 368 195 8 \$1;
#X msg 408 195 9 \$1;
#X msg 448 195 10 \$1;
#X msg 488 195 11 \$1;
#X msg 528 195 12 \$1;
#X msg 568 195 13 \$1;
#X msg 608 195 14 \$1;
#X msg 648 195 15 \$1;
#X msg 688 195 16 \$1;
#X msg 728 195 17 \$1;
#X msg 768 195 18 \$1;
#X msg 808 195 19 \$1;
#X msg 848 195 20 \$1;
#X msg 888 195 21 \$1;
#X msg 928 195 22 \$1;
#X msg 968 195 23 \$1;
#X msg 1008 195 24 \$1;
#X msg 1048 195 25 \$1;
#X msg 1088 195 26 \$1;
#X msg 1128 195 27 \$1;
#X msg 1168 195 28 \$1;
#X msg 1208 195 29 \$1;
#X connect 0 0 2 0;
#X connect 2 0 1 0;
#X connect 3 0 61 0;
#X connect 5 0 62 0;
#X connect 7 0 63 0;
#X connect 9 0 64 0;
#X connect 11 0 65 0;
#X connect 13 0 66 0;
#X connect 15 0 67 0;
#X connect 17 0 68 0;
#X connect 19 0 69 0;
#X connect 21 0 70 0;
#X connect 23 0 71 0;
#X connect 25 0 72 0;
#X connect 27 0 73 0;
#X connect 29 0 74 0;
#X connect 31 0 75 0;
#X connect 33 0 76 0;
#X connect 35 0 77 0;
#X connect 37 0 78 0;
#X connect 39 0 79 0;
#X connect 41 0 80 0;
#X connect 43 0 81 0;
#X connect 45 0 82 0;
#X connect 47 0 83 0;
#X connect 49 0 84 0;
#X connect 51 0 85 0;
#X connect 53 0 86 0;
#X connect 55 0 87 0;
#X connect 57 0 88 0;
#X connect 59 0 89 0;
#X connect 61 0 4 0;
#X connect 62 0 6 0;
#X connect 63 0 8 0;
#X connect 64 0 10 0;
#X connect 65 0 12 0;
#X connect 66 0 14 0;
#X connect 67 0 16 0;
#X connect 68 0 18 0;
#X connect 69 0 20 0;
#X connect 70 0 22 0;
#X connect 71 0 24 0;
#X connect 72 0 26 0;
#X connect 73 0 28 0;
#X connect 74 0 30 0;
#X connect 75 0 32 0;
#X connect 76 0 34 0;
#X connect 77 0 36 0;
#X connect 78 0 38 0;
#X connect 79 0 40 0;
#X connect 80 0 42 0;
#X connect 81 0 44 0;
#X connect 82 0 46 0;
#X connect 83 0 48 0;
#X connect 84 0 50 0;
#X connect 85 0 52 0;
#X connect 86 0 54 0;
#X connect 87 0 56 0;
#X connect 88 0 58 0;
#X connect 89 0 60 0;
#X restore 385 379 pd midistlye_mesage_generator;
#X floatatom 287 237 5 0 0 0 - - -, f 5;
#X obj 289 348 pipe 1098;
#X obj 272 324 pipe 1090;
#X obj 425 560 outlet;
#X connect 1 0 0 0;
#X connect 2 0 1 0;
#X connect 5 0 24 0;
#X connect 6 0 16 0;
#X connect 16 0 0 1;
#X connect 16 0 27 0;
#X connect 20 0 21 0;
#X connect 24 0 7 0;
#X connect 26 0 31 0;
#X connect 26 1 31 1;
#X connect 26 2 31 2;
#X connect 26 3 31 3;
#X connect 26 4 31 4;
#X connect 26 5 31 5;
#X connect 26 6 31 6;
#X connect 26 7 31 7;
#X connect 26 8 31 8;
#X connect 26 9 31 9;
#X connect 26 10 31 10;
#X connect 26 11 31 11;
#X connect 26 12 31 12;
#X connect 26 13 31 13;
#X connect 26 14 31 14;
#X connect 26 15 31 15;
#X connect 26 16 31 16;
#X connect 26 17 31 17;
#X connect 26 18 31 18;
#X connect 26 19 31 19;
#X connect 26 20 31 20;
#X connect 26 21 31 21;
#X connect 26 22 31 22;
#X connect 26 23 31 23;
#X connect 26 24 31 24;
#X connect 26 25 31 25;
#X connect 26 26 31 26;
#X connect 26 27 31 27;
#X connect 26 28 31 28;
#X connect 26 29 31 29;
#X connect 27 0 26 0;
#X connect 27 1 26 1;
#X connect 27 2 26 2;
#X connect 27 3 26 3;
#X connect 27 4 26 4;
#X connect 27 5 26 5;
#X connect 27 6 26 6;
#X connect 27 7 26 7;
#X connect 27 8 26 8;
#X connect 27 9 26 9;
#X connect 27 10 26 10;
#X connect 27 11 26 11;
#X connect 27 12 26 12;
#X connect 27 13 26 13;
#X connect 27 14 26 14;
#X connect 27 15 26 15;
#X connect 27 16 26 16;
#X connect 27 17 26 17;
#X connect 27 18 26 18;
#X connect 27 19 26 19;
#X connect 27 20 26 20;
#X connect 27 21 26 21;
#X connect 27 22 26 22;
#X connect 27 23 26 23;
#X connect 27 24 26 24;
#X connect 27 25 26 25;
#X connect 27 26 26 26;
#X connect 27 27 26 27;
#X connect 27 28 26 28;
#X connect 27 29 26 29;
#X connect 29 0 30 0;
#X connect 30 0 26 30;
#X connect 31 0 35 0;
#X connect 31 1 35 0;
#X connect 31 2 35 0;
#X connect 31 3 35 0;
#X connect 31 4 35 0;
#X connect 31 5 35 0;
#X connect 31 6 35 0;
#X connect 31 7 35 0;
#X connect 31 8 35 0;
#X connect 31 9 35 0;
#X connect 31 10 35 0;
#X connect 31 11 35 0;
#X connect 31 12 35 0;
#X connect 31 13 35 0;
#X connect 31 14 35 0;
#X connect 31 15 35 0;
#X connect 31 16 35 0;
#X connect 31 17 35 0;
#X connect 31 18 35 0;
#X connect 31 19 35 0;
#X connect 31 20 35 0;
#X connect 31 21 35 0;
#X connect 31 22 35 0;
#X connect 31 23 35 0;
#X connect 31 24 35 0;
#X connect 31 25 35 0;
#X connect 31 26 35 0;
#X connect 31 27 35 0;
#X connect 31 28 35 0;
#X connect 31 29 35 0;
#X connect 32 0 26 0;
#X connect 32 0 34 0;
#X connect 33 0 26 2;
#X connect 34 0 26 1;
#X connect 34 0 33 0;
#X restore 12 25 pd bela_input;
#N canvas 133 23 1307 832 scale_selector 0;
#N canvas 0 22 450 300 (subpatch) 0;
#X array scale_intervals 15 float 3 black black;
#A 0 0 0.2 0.3 0.5 0.7 0.8 1 1.2 1.4 1.5 1.7 1.9 2 2.2 2.4;
#X coords 0 2.4 15 0 200 140 1;
#X restore 105 -21 graph;
#X msg 77 195 \; scale_intervals 0 0 0.2 0.4 0.5 0.7 0.9 1.1 1.2;
#X msg 77 457 \; scale_intervals 0 0 0.2 0.3 0.5 0.7 0.8 1.1 1.2;
#X msg 77 628 \; scale_intervals 0 0 0.2 0.3 0.5 0.7 0.9 1.1 1.2;
#X text 381 201 major;
#X text 561 335 natural minor;
#X text 381 462 harmonic minor;
#X text 381 634 melodic minor;
#X msg 77 259 \; scale_intervals 0 1.2 1.4 1.6 1.7 1.9 2.1 2.3 2.4
;
#X msg 77 227 \; scale_intervals 0 0.5 0.7 0.9 1.1 1.2 1.4 1.6 1.7
;
#X msg 77 396 \; scale_intervals 0 1.2 1.4 1.5 1.7 1.9 2 2.2 2.4;
#X msg 77 361 \; scale_intervals 0 0.5 0.7 0.8 1 1.2 1.4 1.5 1.7;
#X msg 77 537 \; scale_intervals 0 1.2 1.4 1.5 1.7 1.9 2 2.3 2.4;
#X msg 77 497 \; scale_intervals 0 0.5 0.7 0.8 1.1 1.2 1.4 1.5 1.7
;
#X msg 77 708 \; scale_intervals 0 1.2 1.4 1.5 1.7 1.9 2.1 2.3 2.4
;
#X msg 77 668 \; scale_intervals 0 0.5 0.7 0.9 1.1 1.2 1.4 1.5 1.7
;
#X obj 12 283 loadbang;
#X text 704 336 natural minor scale is the only scale that will work
as intended as it spans a two octave range;
#X msg 77 326 \; scale_intervals 0 0 0.2 0.3 0.5 0.7 0.8 1 1.2 1.4
1.5 1.7 1.9 2 2.2 2.4, f 76;
#X connect 16 0 18 0;
#X restore 12 53 pd scale_selector;
#X obj 12 -83 loadbang;
#N canvas 64 99 1349 439 random_generators 0;
#X obj 24 51 random_noise;
#X restore 12 81 pd random_generators;
#X obj 15 272 catch~ L;
#X obj 82 272 catch~ R;
#X obj 389 749 fader;
#X obj 387 961 throw~ L;
#X obj 467 960 throw~ R;
#X obj 1086 310 tgl 15 0 empty empty enable\ random\ start\ point 17
7 0 10 -262144 -1 -1 1 1;
#X obj 940 356 s pad_ADSR;
#X obj 1086 359 s pad_RSP;
#X obj 988 213 loadbang;
#X obj 389 635 pad_cell;
#N canvas 1468 265 666 468 sample 0;
#X obj -3 192 pack f s s s s;
#X obj 92 159 symbol;
#X obj 92 87 symbol;
#X obj 92 111 symbol;
#X obj 92 135 symbol;
#X text 193 -98 number of RRs in cell;
#X obj 84 -105 loadbang;
#X obj 251 23 bng 15 250 50 0 empty empty bang\ when\ change\ is\ made
17 7 0 10 -262144 -1 -1;
#X obj -3 272 outlet;
#X text 224 -36 < enter filenames for samples here;
#X obj 84 -80 t b b;
#X text 144 231 < number at start of message must corrospond to target
cell. Must always be higher than previous subpatch;
#X msg 151 -44 sawtooth.wav;
#X msg 151 -20 squarewave.wav;
#X msg 151 -68 sinwave.wav;
#X msg 151 4 triangle.wav;
#X msg 155 -94 4;
#X obj 84 -53 del 100;
#X msg -3 233 \$1 \$2 \$3 \$4 \$5;
#X connect 0 0 18 0;
#X connect 1 0 0 4;
#X connect 2 0 0 1;
#X connect 3 0 0 2;
#X connect 4 0 0 3;
#X connect 6 0 10 0;
#X connect 7 0 0 0;
#X connect 10 0 17 0;
#X connect 10 1 15 0;
#X connect 10 1 13 0;
#X connect 10 1 12 0;
#X connect 10 1 14 0;
#X connect 12 0 3 0;
#X connect 13 0 4 0;
#X connect 14 0 2 0;
#X connect 15 0 1 0;
#X connect 16 0 0 0;
#X connect 17 0 16 0;
#X connect 18 0 8 0;
#X restore 634 136 pd sample load 1;
#X msg 940 305 2000 3000 1 3000;
#N canvas 1468 265 666 468 sample 0;
#X obj -3 192 pack f s s s s;
#X obj 92 159 symbol;
#X obj 92 87 symbol;
#X obj 92 111 symbol;
#X obj 92 135 symbol;
#X text 193 -98 number of RRs in cell;
#X obj 84 -105 loadbang;
#X obj 251 23 bng 15 250 50 0 empty empty bang\ when\ change\ is\ made
17 7 0 10 -262144 -1 -1;
#X obj -3 272 outlet;
#X text 224 -36 < enter filenames for samples here;
#X obj 84 -80 t b b;
#X text 144 231 < number at start of message must corrospond to target
cell. Must always be higher than previous subpatch;
#X msg 155 -94 4;
#X obj 84 -53 del 100;
#X msg 151 -68 sinwave1.wav;
#X msg 150 -44 sawtooth1.wav;
#X msg 151 -19 squarewave1.wav;
#X msg 151 4 triangle1.wav;
#X msg -3 233 \$1 \$2 \$3 \$4 \$5;
#X connect 0 0 18 0;
#X connect 1 0 0 4;
#X connect 2 0 0 1;
#X connect 3 0 0 2;
#X connect 4 0 0 3;
#X connect 6 0 10 0;
#X connect 7 0 0 0;
#X connect 10 0 13 0;
#X connect 10 1 17 0;
#X connect 10 1 16 0;
#X connect 10 1 15 0;
#X connect 10 1 14 0;
#X connect 12 0 0 0;
#X connect 13 0 12 0;
#X connect 14 0 2 0;
#X connect 15 0 3 0;
#X connect 16 0 4 0;
#X connect 17 0 1 0;
#X connect 18 0 8 0;
#X restore 634 168 pd sample load 2;
#X msg 12 -30 \; pd dsp \$1;
#X obj 12 -55 tgl 15 0 empty empty empty 17 7 0 10 -262144 -1 -1 1
1;
#X msg 366 180 1 \$1;
#X obj 366 159 tgl 15 0 empty empty empty 17 7 0 10 -262144 -1 -1 0
1;
#X obj 406 159 tgl 15 0 empty empty empty 17 7 0 10 -262144 -1 -1 0
1;
#X obj 446 159 tgl 15 0 empty empty empty 17 7 0 10 -262144 -1 -1 0
1;
#X obj 486 159 tgl 15 0 empty empty empty 17 7 0 10 -262144 -1 -1 0
1;
#X msg 406 180 2 \$1;
#X msg 446 180 3 \$1;
#X msg 486 180 4 \$1;
#N canvas 1468 265 666 468 sample 0;
#X obj -3 192 pack f s s s s;
#X obj 92 159 symbol;
#X obj 92 87 symbol;
#X obj 92 111 symbol;
#X obj 92 135 symbol;
#X text 193 -98 number of RRs in cell;
#X obj 84 -105 loadbang;
#X obj 251 23 bng 15 250 50 0 empty empty bang\ when\ change\ is\ made
17 7 0 10 -262144 -1 -1;
#X obj -3 272 outlet;
#X text 224 -36 < enter filenames for samples here;
#X obj 84 -80 t b b;
#X text 144 231 < number at start of message must corrospond to target
cell. Must always be higher than previous subpatch;
#X msg 155 -94 4;
#X obj 84 -53 del 100;
#X msg 151 -68 sinwave2.wav;
#X msg 151 -44 sawtooth2.wav;
#X msg 151 -20 squarewave2.wav;
#X msg 151 4 triangle2.wav;
#X msg -3 233 \$1 \$2 \$3 \$4 \$5;
#X connect 0 0 18 0;
#X connect 1 0 0 4;
#X connect 2 0 0 1;
#X connect 3 0 0 2;
#X connect 4 0 0 3;
#X connect 6 0 10 0;
#X connect 7 0 0 0;
#X connect 10 0 13 0;
#X connect 10 1 17 0;
#X connect 10 1 16 0;
#X connect 10 1 15 0;
#X connect 10 1 14 0;
#X connect 12 0 0 0;
#X connect 13 0 12 0;
#X connect 14 0 2 0;
#X connect 15 0 3 0;
#X connect 16 0 4 0;
#X connect 17 0 1 0;
#X connect 18 0 8 0;
#X restore 634 200 pd sample load 3;
#N canvas 1468 265 666 468 sample 0;
#X obj -3 192 pack f s s s s;
#X obj 92 159 symbol;
#X obj 92 87 symbol;
#X obj 92 111 symbol;
#X obj 92 135 symbol;
#X text 193 -98 number of RRs in cell;
#X obj 84 -105 loadbang;
#X obj 251 23 bng 15 250 50 0 empty empty bang\ when\ change\ is\ made
17 7 0 10 -262144 -1 -1;
#X obj -3 272 outlet;
#X text 224 -36 < enter filenames for samples here;
#X obj 84 -80 t b b;
#X text 144 231 < number at start of message must corrospond to target
cell. Must always be higher than previous subpatch;
#X msg 155 -94 4;
#X obj 84 -53 del 100;
#X msg 152 -68 sinwave3.wav;
#X msg 151 -44 sawtooth3.wav;
#X msg 151 -20 squarewave3.wav;
#X msg 151 4 triangle3.wav;
#X msg -3 233 \$1 \$2 \$3 \$4 \$5;
#X connect 0 0 18 0;
#X connect 1 0 0 4;
#X connect 2 0 0 1;
#X connect 3 0 0 2;
#X connect 4 0 0 3;
#X connect 6 0 10 0;
#X connect 7 0 0 0;
#X connect 10 0 13 0;
#X connect 10 1 17 0;
#X connect 10 1 16 0;
#X connect 10 1 15 0;
#X connect 10 1 14 0;
#X connect 12 0 0 0;
#X connect 13 0 12 0;
#X connect 14 0 2 0;
#X connect 15 0 3 0;
#X connect 16 0 4 0;
#X connect 17 0 1 0;
#X connect 18 0 8 0;
#X restore 634 232 pd sample load 4;
#X text 124 495 testing;
#N canvas 451 242 1142 933 cyclic 0;
#X obj 432 100 loadbang;
#X msg 432 133 4;
#X obj 196 61 bng 15 250 50 0 empty empty empty 17 7 0 10 -262144 -1
-1;
#X obj 134 705 throw~ L;
#X obj 251 705 throw~ R;
#X obj 133 467 fader;
#X obj 319 164 random_no_repeat;
#X obj 319 206 sel 0 1 2 3;
#X msg 319 350 next \$1;
#X msg 319 263 1.wav;
#X msg 378 263 2.wav;
#X msg 436 263 3.wav;
#X msg 494 263 4.wav;
#X obj 196 81 t b b;
#X obj 319 322 pack symbol \$0;
#X obj 133 270 mod 8;
#X obj 133 232 f;
#X obj 190 232 + 1;
#X msg 133 295 \$1 1;
#X obj 133 395 clone sampler_oneshot_RR 16;
#X obj 732 471 clone sampler_oneshot_RR 4;
#X msg 713 368 0 1;
#X msg 748 368 1 1;
#X msg 783 368 2 1;
#X msg 818 368 3 1;
#X msg 949 301 0 1.wav;
#X msg 951 264 1 2.wav;
#X msg 953 225 2 3.wav;
#X msg 953 189 3 4.wav;
#X obj 883 110 bng 15 250 50 0 empty empty empty 17 7 0 10 -262144
-1 -1;
#X obj 765 566 fader;
#X obj 749 763 throw~ L;
#X obj 855 756 throw~ R;
#X connect 0 0 1 0;
#X connect 1 0 6 1;
#X connect 2 0 13 0;
#X connect 5 0 3 0;
#X connect 5 1 4 0;
#X connect 6 0 7 0;
#X connect 7 0 9 0;
#X connect 7 1 10 0;
#X connect 7 2 11 0;
#X connect 7 3 12 0;
#X connect 8 0 19 1;
#X connect 9 0 14 0;
#X connect 10 0 14 0;
#X connect 11 0 14 0;
#X connect 12 0 14 0;
#X connect 13 0 16 0;
#X connect 13 1 6 0;
#X connect 14 0 8 0;
#X connect 15 0 18 0;
#X connect 16 0 17 0;
#X connect 16 0 15 0;
#X connect 17 0 16 1;
#X connect 18 0 19 0;
#X connect 19 0 5 0;
#X connect 19 1 5 1;
#X connect 20 0 30 0;
#X connect 20 1 30 1;
#X connect 21 0 20 0;
#X connect 22 0 20 0;
#X connect 23 0 20 0;
#X connect 24 0 20 0;
#X connect 25 0 20 1;
#X connect 26 0 20 1;
#X connect 27 0 20 1;
#X connect 28 0 20 1;
#X connect 29 0 28 0;
#X connect 29 0 27 0;
#X connect 29 0 26 0;
#X connect 29 0 25 0;
#X connect 30 0 31 0;
#X connect 30 1 32 0;
#X restore 1032 808 pd cyclic oneshot triggering;
#N canvas 1329 342 1071 790 archived 0;
#N canvas 1055 22 513 405 polyphony_single_sample 0;
#X msg 54 74 1;
#X msg 264 103 2000 5000 1 5000;
#X obj 54 103 makenote 1 2000;
#X obj 54 342 throw~ L;
#X obj 163 342 throw~ R;
#X msg 173 104 sinwave.wav;
#X obj 54 132 pack f f;
#X obj 54 190 - 1;
#X obj 54 219 pack 0 0 0;
#X msg 264 222 all \$1 \$2 \$3 \$4;
#X obj 173 164 pack symbol \$0;
#X msg 173 224 all \$1;
#X obj 54 161 poly 8 1;
#X obj 54 279 clone pad_cell 8;
#X obj 173 15 loadbang;
#X connect 0 0 2 0;
#X connect 1 0 9 0;
#X connect 2 0 6 0;
#X connect 2 1 6 1;
#X connect 5 0 10 0;
#X connect 6 0 12 0;
#X connect 7 0 8 0;
#X connect 8 0 13 0;
#X connect 10 0 11 0;
#X connect 11 0 13 1;
#X connect 12 0 7 0;
#X connect 12 1 8 1;
#X connect 12 2 8 2;
#X connect 13 0 3 0;
#X connect 13 1 4 0;
#X connect 14 0 5 0;
#X connect 14 0 1 0;
#X restore 24 42 pd polyphony_single_sample;
#N canvas 1055 22 1312 1057 polypadcell 0;
#X obj 165 487 fader;
#X obj 163 699 throw~ L;
#X obj 243 698 throw~ R;
#X obj 60 344 pad_cell;
#X obj 413 213 route 1 2 3 4 5 6 7 8;
#N canvas 1468 265 666 468 sample 0;
#X obj -3 192 pack f s s s s;
#X obj 92 159 symbol;
#X obj 92 87 symbol;
#X obj 92 111 symbol;
#X obj 92 135 symbol;
#X text 193 -98 number of RRs in cell;
#X obj 84 -105 loadbang;
#X obj 251 23 bng 15 250 50 0 empty empty bang\ when\ change\ is\ made
17 7 0 10 -262144 -1 -1;
#X obj -3 272 outlet;
#X text 224 -36 < enter filenames for samples here;
#X obj 84 -80 t b b;
#X msg -3 233 1 \$1 \$2 \$3 \$4 \$5;
#X text 144 231 < number at start of message must corrospond to target
cell. Must always be higher than previous subpatch;
#X msg 151 -44 sawtooth.wav;
#X msg 151 -20 squarewave.wav;
#X msg 151 -68 sinwave.wav;
#X msg 151 4 triangle.wav;
#X msg 155 -94 4;
#X obj 84 -53 del 100;
#X connect 0 0 11 0;
#X connect 1 0 0 4;
#X connect 2 0 0 1;
#X connect 3 0 0 2;
#X connect 4 0 0 3;
#X connect 6 0 10 0;
#X connect 7 0 0 0;
#X connect 10 0 18 0;
#X connect 10 1 16 0;
#X connect 10 1 14 0;
#X connect 10 1 13 0;
#X connect 10 1 15 0;
#X connect 11 0 8 0;
#X connect 13 0 3 0;
#X connect 14 0 4 0;
#X connect 15 0 2 0;
#X connect 16 0 1 0;
#X connect 17 0 0 0;
#X connect 18 0 17 0;
#X restore 413 -53 pd sample load 1;
#N canvas 1468 265 666 468 sample 0;
#X obj -3 192 pack f s s s s;
#X obj 92 159 symbol;
#X obj 92 87 symbol;
#X obj 92 111 symbol;
#X obj 92 135 symbol;
#X text 193 -98 number of RRs in cell;
#X obj 84 -105 loadbang;
#X obj 251 23 bng 15 250 50 0 empty empty bang\ when\ change\ is\ made
17 7 0 10 -262144 -1 -1;
#X obj -3 272 outlet;
#X text 224 -36 < enter filenames for samples here;
#X obj 84 -80 t b b;
#X text 144 231 < number at start of message must corrospond to target
cell. Must always be higher than previous subpatch;
#X msg 155 -94 4;
#X obj 84 -53 del 100;
#X msg -3 233 2 \$1 \$2 \$3 \$4 \$5;
#X msg 151 -68 sinwave1.wav;
#X msg 150 -44 sawtooth1.wav;
#X msg 151 -19 squarewave1.wav;
#X msg 151 4 triangle1.wav;
#X connect 0 0 14 0;
#X connect 1 0 0 4;
#X connect 2 0 0 1;
#X connect 3 0 0 2;
#X connect 4 0 0 3;
#X connect 6 0 10 0;
#X connect 7 0 0 0;
#X connect 10 0 13 0;
#X connect 10 1 18 0;
#X connect 10 1 17 0;
#X connect 10 1 16 0;
#X connect 10 1 15 0;
#X connect 12 0 0 0;
#X connect 13 0 12 0;
#X connect 14 0 8 0;
#X connect 15 0 2 0;
#X connect 16 0 3 0;
#X connect 17 0 4 0;
#X connect 18 0 1 0;
#X restore 413 -21 pd sample load 2;
#X obj 82 238 route 1 2 3 4 5 6 7 8;
#X msg 37 77 1 \$1;
#X obj 37 56 tgl 15 0 empty empty empty 17 7 0 10 -262144 -1 -1 0 1
;
#X obj 77 56 tgl 15 0 empty empty empty 17 7 0 10 -262144 -1 -1 0 1
;
#X obj 117 56 tgl 15 0 empty empty empty 17 7 0 10 -262144 -1 -1 0
1;
#X obj 157 56 tgl 15 0 empty empty empty 17 7 0 10 -262144 -1 -1 0
1;
#X msg 77 77 2 \$1;
#X msg 117 77 3 \$1;
#X msg 157 77 4 \$1;
#N canvas 1468 265 666 468 sample 0;
#X obj -3 192 pack f s s s s;
#X obj 92 159 symbol;
#X obj 92 87 symbol;
#X obj 92 111 symbol;
#X obj 92 135 symbol;
#X text 193 -98 number of RRs in cell;
#X obj 84 -105 loadbang;
#X obj 251 23 bng 15 250 50 0 empty empty bang\ when\ change\ is\ made
17 7 0 10 -262144 -1 -1;
#X obj -3 272 outlet;
#X text 224 -36 < enter filenames for samples here;
#X obj 84 -80 t b b;
#X text 144 231 < number at start of message must corrospond to target
cell. Must always be higher than previous subpatch;
#X msg 155 -94 4;
#X obj 84 -53 del 100;
#X msg -3 233 3 \$1 \$2 \$3 \$4 \$5;
#X msg 151 -68 sinwave2.wav;
#X msg 151 -44 sawtooth2.wav;
#X msg 151 -20 squarewave2.wav;
#X msg 151 4 triangle2.wav;
#X connect 0 0 14 0;
#X connect 1 0 0 4;
#X connect 2 0 0 1;
#X connect 3 0 0 2;
#X connect 4 0 0 3;
#X connect 6 0 10 0;
#X connect 7 0 0 0;
#X connect 10 0 13 0;
#X connect 10 1 18 0;
#X connect 10 1 17 0;
#X connect 10 1 16 0;
#X connect 10 1 15 0;
#X connect 12 0 0 0;
#X connect 13 0 12 0;
#X connect 14 0 8 0;
#X connect 15 0 2 0;
#X connect 16 0 3 0;
#X connect 17 0 4 0;
#X connect 18 0 1 0;
#X restore 413 11 pd sample load 3;
#N canvas 1468 265 666 468 sample 0;
#X obj -3 192 pack f s s s s;
#X obj 92 159 symbol;
#X obj 92 87 symbol;
#X obj 92 111 symbol;
#X obj 92 135 symbol;
#X text 193 -98 number of RRs in cell;
#X obj 84 -105 loadbang;
#X obj 251 23 bng 15 250 50 0 empty empty bang\ when\ change\ is\ made
17 7 0 10 -262144 -1 -1;
#X obj -3 272 outlet;
#X text 224 -36 < enter filenames for samples here;
#X obj 84 -80 t b b;
#X text 144 231 < number at start of message must corrospond to target
cell. Must always be higher than previous subpatch;
#X msg 155 -94 4;
#X obj 84 -53 del 100;
#X msg -3 233 4 \$1 \$2 \$3 \$4 \$5;
#X msg 152 -68 sinwave3.wav;
#X msg 151 -44 sawtooth3.wav;
#X msg 151 -20 squarewave3.wav;
#X msg 151 4 triangle3.wav;
#X connect 0 0 14 0;
#X connect 1 0 0 4;
#X connect 2 0 0 1;
#X connect 3 0 0 2;
#X connect 4 0 0 3;
#X connect 6 0 10 0;
#X connect 7 0 0 0;
#X connect 10 0 13 0;
#X connect 10 1 18 0;
#X connect 10 1 17 0;
#X connect 10 1 16 0;
#X connect 10 1 15 0;
#X connect 12 0 0 0;
#X connect 13 0 12 0;
#X connect 14 0 8 0;
#X connect 15 0 2 0;
#X connect 16 0 3 0;
#X connect 17 0 4 0;
#X connect 18 0 1 0;
#X restore 413 43 pd sample load 4;
#X text 209 73 testing;
#X obj 792 155 switch~;
#X obj 792 126 tgl 15 0 empty empty empty 17 7 0 10 -262144 -1 -1 0
1;
#X connect 0 0 1 0;
#X connect 0 1 2 0;
#X connect 3 0 0 0;
#X connect 3 1 0 1;
#X connect 4 0 3 1;
#X connect 5 0 4 0;
#X connect 6 0 4 0;
#X connect 7 0 3 0;
#X connect 8 0 7 0;
#X connect 9 0 8 0;
#X connect 10 0 13 0;
#X connect 11 0 14 0;
#X connect 12 0 15 0;
#X connect 13 0 7 0;
#X connect 14 0 7 0;
#X connect 15 0 7 0;
#X connect 16 0 4 0;
#X connect 17 0 4 0;
#X connect 20 0 19 0;
#X restore 23 123 pd polypadcell;
#X restore 10 167 pd archived;
#N canvas 758 337 833 981 stratus 0;
#N canvas 207 314 797 468 scale_set 0;
#N canvas 0 22 450 300 (subpatch) 0;
#X array scale_intervals 8 float 3 black black;
#A 0 0 0.2 0.3 0.5 0.7 0.8 1 1.2;
#X coords 0 1.2 8 0 200 140 1;
#X restore -38 -363 graph;
#X obj 253 52 tabwrite scale_intervals;
#X text 590 -340 major;
#X text 590 -296 natural minor;
#X msg 253 -347 \; scale_intervals 0 0 0.2 0.4 0.5 0.7 0.9 1.1 1.2
;
#X msg 253 -306 \; scale_intervals 0 0 0.2 0.3 0.5 0.7 0.8 1 1.2;
#X msg 253 -265 \; scale_intervals 0 0 0.2 0.3 0.5 0.7 0.8 1.1 1.2
;
#X text 590 -259 harmonic minor;
#X msg 253 -224 \; scale_intervals 0 0 0.2 0.3 0.5 0.7 0.9 1.1 1.2
;
#X text 590 -217 melodic minor;
#X msg 253 -181 \; scale_intervals 0 0 0.2 0.3 0.5 0.7 0.9 1 1.2;
#X text 590 -175 dorian;
#X msg 253 -136 \; scale_intervals 0 0 0.1 0.3 0.5 0.7 0.8 1 1.2;
#X msg 253 -97 \; scale_intervals 0 0 0.2 0.4 0.6 0.7 0.9 1.1 1.2;
#X text 590 -131 phrygian;
#X text 590 -87 lydian;
#X text 590 -45 mixolydian;
#X msg 253 -52 \; scale_intervals 0 0 0.2 0.4 0.5 0.7 0.9 1 1.2;
#X text 590 -3 locrian;
#X msg 253 -7 \; scale_intervals 0 0 0.1 0.3 0.5 0.6 0.8 1 1.2;
#X obj 190 -345 lbang;
#X connect 4 0 1 0;
#X connect 5 0 1 0;
#X connect 6 0 1 0;
#X connect 8 0 1 0;
#X connect 10 0 1 0;
#X connect 12 0 1 0;
#X connect 13 0 1 0;
#X connect 19 0 1 0;
#X connect 20 0 5 0;
#X restore 36 -615 pd scale_set;
#X obj 198 -442 poly 4 1;
#X obj 198 -411 pack 0 0 0;
#X obj 198 -380 route 1 2 3 4;
#X obj 199 -127 unpack f f;
#X obj 299 -127 unpack f f;
#X obj 399 -127 unpack f f;
#X obj 499 -127 unpack f f;
#N canvas 1055 22 520 332 variables 0;
#X text 46 84 release time;
#X obj 204 49 t b b;
#X obj 204 26 bng 15 250 50 0 empty empty bang\ me\ to\ flush! 17 7
0 10 -262144 -1 -1;
#X obj 204 136 pack f f;
#X text 202 90 delay lower limit;
#X text 365 90 delay upper limit;
#X obj 48 224 outlet;
#X obj 205 224 outlet;
#X msg 48 101 5000;
#X msg 174 90 250;
#X msg 322 90 1000;
#X connect 1 0 10 0;
#X connect 1 1 9 0;
#X connect 2 0 1 0;
#X connect 3 0 7 0;
#X connect 8 0 6 0;
#X connect 9 0 3 1;
#X connect 10 0 3 0;
#X restore 510 -363 pd variables set;
#X obj 198 -580 inlet;
#X obj 198 -535 unpack f f;
#X obj 206 274 outlet;
#X obj 206 215 pack f f;
#X obj 199 -186 stratus_voice;
#X obj 299 -186 stratus_voice;
#X obj 399 -186 stratus_voice;
#X obj 499 -186 stratus_voice;
#X connect 1 0 2 0;
#X connect 1 1 2 1;
#X connect 1 2 2 2;
#X connect 2 0 3 0;
#X connect 3 0 13 0;
#X connect 3 1 14 0;
#X connect 3 2 15 0;
#X connect 3 3 16 0;
#X connect 4 0 12 0;
#X connect 4 1 12 1;
#X connect 5 0 12 0;
#X connect 5 1 12 1;
#X connect 6 0 12 0;
#X connect 6 1 12 1;
#X connect 7 0 12 0;
#X connect 7 1 12 1;
#X connect 8 0 13 1;
#X connect 8 0 14 1;
#X connect 8 0 15 1;
#X connect 8 0 16 1;
#X connect 8 1 13 2;
#X connect 8 1 14 2;
#X connect 8 1 15 2;
#X connect 8 1 16 2;
#X connect 9 0 10 0;
#X connect 10 0 1 0;
#X connect 10 1 1 1;
#X connect 12 0 11 0;
#X connect 13 0 4 0;
#X connect 14 0 5 0;
#X connect 15 0 6 0;
#X connect 16 0 7 0;
#X restore 1032 775 pd stratus;
#X obj 254 -23 declare -path ./components;
#X obj 447 479 list;
#X obj 493 479 list;
#X obj 540 479 list;
#X obj 587 479 list;
#X obj 447 445 sel 1;
#X obj 493 445 sel 1;
#X obj 540 445 sel 1;
#X obj 587 445 sel 1;
#X obj 364 249 route 1 2 3 4;
#X obj 304 324 t f f;
#X obj 351 324 t f f;
#X obj 398 324 t f f;
#X obj 445 324 t f f;
#X connect 3 0 19 0;
#X connect 5 0 0 0;
#X connect 5 0 0 2;
#X connect 6 0 0 1;
#X connect 6 0 0 3;
#X connect 7 0 8 0;
#X connect 7 1 9 0;
#X connect 10 0 12 0;
#X connect 13 0 16 0;
#X connect 13 0 10 0;
#X connect 14 0 7 0;
#X connect 14 1 7 1;
#X connect 15 0 35 1;
#X connect 16 0 11 0;
#X connect 17 0 36 1;
#X connect 19 0 18 0;
#X connect 20 0 43 0;
#X connect 21 0 20 0;
#X connect 22 0 25 0;
#X connect 23 0 26 0;
#X connect 24 0 27 0;
#X connect 25 0 43 0;
#X connect 26 0 43 0;
#X connect 27 0 43 0;
#X connect 28 0 37 1;
#X connect 29 0 38 1;
#X connect 35 0 14 1;
#X connect 36 0 14 1;
#X connect 37 0 14 1;
#X connect 38 0 14 1;
#X connect 39 0 35 0;
#X connect 40 0 36 0;
#X connect 41 0 37 0;
#X connect 42 0 38 0;
#X connect 43 0 44 0;
#X connect 43 1 45 0;
#X connect 43 2 46 0;
#X connect 43 3 47 0;
#X connect 44 0 14 0;
#X connect 44 1 39 0;
#X connect 45 0 14 0;
#X connect 45 1 40 0;
#X connect 46 0 14 0;
#X connect 46 1 41 0;
#X connect 47 0 14 0;
#X connect 47 1 42 0;
