#N canvas 491 79 1797 938 10;
#X declare -path ./components;
#X obj 19 67 declare -path ./components;
#X obj 338 4 list;
#X obj 338 -62 loadbang;
#X obj 338 33 print touchSensor;
#X obj 338 -249 loadbang;
#X obj 546 -116 r bela_trill;
#X obj 338 -130 s bela_setTrill;
#X text 492 -248 First initialise the Trill sensor;
#X text 659 -86 This receives the reading from the Trill sensor.;
#X text 663 -50 Which will be prepended with the sensor_id;
#X text 820 -169 [prescaler <sensor_id> <value> (between 1 and 8);
#X text 819 -148 [threshold <sensor_id> <value>(between 0 and 1.0)
;
#X obj 546 -79 route mycraft;
#X text 1256 -258 device that was successfully initialised. The message
;
#X text 1256 -248 will contain: <sensor_id> <device> <mode> <address>
;
#X text 1255 -269 bela_trillCreated will receive a message for each
;
#X obj 1260 -216 r bela_trillCreated;
#X obj 1260 -187 print bela_trillCreated;
#X text 387 -281 >>> See full documentation in examples/Trill/general-pd
<<<;
#X text 819 -189 We are also changing settings on initialisation:;
#X text 462 -215 Message: [new <sensor_id> <bus> <device> <address=255>(
;
#N canvas 1391 565 859 658 parse_group 1;
#X obj 48 42 inlet;
#X obj 524 35 inlet;
#X obj 92 42 inlet;
#X obj 136 42 inlet;
#X obj 180 42 inlet;
#X obj 224 42 inlet;
#X obj 268 42 inlet;
#X obj 312 42 inlet;
#X obj 356 42 inlet;
#X obj 400 42 inlet;
#X text 563 36 threshold inlet;
#X obj 48 220 parse;
#X obj 102 220 parse;
#X obj 156 220 parse;
#X obj 210 220 parse;
#X obj 264 220 parse;
#X obj 318 220 parse;
#X obj 372 220 parse;
#X obj 426 220 parse;
#X obj 480 220 parse;
#X obj 652 116 inlet;
#X obj 57 380 pack f f f f f f f f f;
#X obj 48 520 outlet;
#X obj 480 256 t b f;
#X obj 426 256 t b f;
#X obj 372 256 t b f;
#X obj 318 256 t b f;
#X obj 210 256 t b f;
#X obj 156 256 t b f;
#X obj 102 256 t b f;
#X obj 48 256 t b f;
#X obj 264 256 t b f;
#X connect 0 0 11 0;
#X connect 1 0 19 1;
#X connect 1 0 18 1;
#X connect 1 0 17 1;
#X connect 1 0 16 1;
#X connect 1 0 15 1;
#X connect 1 0 14 1;
#X connect 1 0 13 1;
#X connect 1 0 12 1;
#X connect 1 0 11 1;
#X connect 2 0 12 0;
#X connect 3 0 13 0;
#X connect 4 0 14 0;
#X connect 5 0 15 0;
#X connect 6 0 16 0;
#X connect 7 0 17 0;
#X connect 8 0 18 0;
#X connect 9 0 19 0;
#X connect 11 0 30 0;
#X connect 12 0 29 0;
#X connect 13 0 28 0;
#X connect 14 0 27 0;
#X connect 15 0 31 0;
#X connect 16 0 26 0;
#X connect 17 0 25 0;
#X connect 18 0 24 0;
#X connect 19 0 23 0;
#X connect 21 0 22 0;
#X connect 23 0 21 0;
#X connect 23 1 21 8;
#X connect 24 0 21 0;
#X connect 24 1 21 7;
#X connect 25 0 21 0;
#X connect 25 1 21 6;
#X connect 26 0 21 0;
#X connect 26 1 21 5;
#X connect 27 0 21 0;
#X connect 27 1 21 3;
#X connect 28 0 21 0;
#X connect 28 1 21 2;
#X connect 29 0 21 0;
#X connect 29 1 21 1;
#X connect 30 1 21 0;
#X connect 31 0 21 0;
#X connect 31 1 21 4;
#X restore 682 103 pd parse_group, f 78;
#X obj 1372 -139 loadbang;
#X obj 745 337 dac~ 1 2 3 4;
#X obj 594 10 unpack f f f f f f f f f f f f f f f f f f f f f f f
f f f f f f f, f 67;
#X text 1469 -79 set DIFF thresholds;
#X obj 355 173 list;
#X obj 355 208 print;
#N canvas 495 23 893 418 soundsource 0;
#X obj 57 241 osc;
#X obj 101 241 osc;
#X obj 145 241 osc;
#X obj 189 241 osc;
#X obj 233 241 osc;
#X obj 277 241 osc;
#X obj 321 241 osc;
#X obj 365 241 osc;
#X obj 409 241 osc;
#X obj 59 55 loadbang;
#X obj 229 341 outlet~;
#X obj 194 6 inlet;
#X obj 194 63 unpack f f f f f f f f f;
#X obj 502 161 loadbang;
#X msg 502 183 0, f 10;
#X msg 77 162 36;
#X msg 106 162 38;
#X msg 135 162 40;
#X msg 164 162 41;
#X msg 193 162 43;
#X msg 222 162 45;
#X msg 251 162 47;
#X msg 280 162 48;
#X msg 309 162 50;
#X connect 0 0 10 0;
#X connect 1 0 10 0;
#X connect 2 0 10 0;
#X connect 3 0 10 0;
#X connect 4 0 10 0;
#X connect 5 0 10 0;
#X connect 6 0 10 0;
#X connect 7 0 10 0;
#X connect 8 0 10 0;
#X connect 9 0 15 0;
#X connect 9 0 23 0;
#X connect 9 0 22 0;
#X connect 9 0 21 0;
#X connect 9 0 20 0;
#X connect 9 0 19 0;
#X connect 9 0 18 0;
#X connect 9 0 17 0;
#X connect 9 0 16 0;
#X connect 11 0 12 0;
#X connect 12 0 0 0;
#X connect 12 1 1 0;
#X connect 12 2 2 0;
#X connect 12 3 3 0;
#X connect 12 4 4 0;
#X connect 12 5 5 0;
#X connect 12 6 6 0;
#X connect 12 7 7 0;
#X connect 12 8 8 0;
#X connect 13 0 14 0;
#X connect 14 0 0 2;
#X connect 14 0 2 2;
#X connect 14 0 8 2;
#X connect 14 0 7 2;
#X connect 14 0 6 2;
#X connect 14 0 5 2;
#X connect 14 0 4 2;
#X connect 14 0 3 2;
#X connect 14 0 1 2;
#X connect 15 0 0 1;
#X connect 16 0 1 1;
#X connect 17 0 2 1;
#X connect 18 0 3 1;
#X connect 19 0 4 1;
#X connect 20 0 5 1;
#X connect 21 0 6 1;
#X connect 22 0 7 1;
#X connect 23 0 8 1;
#X restore 745 257 pd soundsource;
#X text 364 54 Print Raw Values;
#X text 1442 -29 binary (1) / filtered value (0);
#X text 397 208 Print Binary / Filtered Values;
#X obj 1372 -114 t b b;
#X obj 1408 -54 s DIFF_threshold;
#X msg 1408 -29 0;
#X obj 1408 -4 s parse_format;
#X obj 1099 39 r DIFF_threshold;
#X obj 1148 68 r parse_format;
#X obj 745 290 *~ 0.7;
#X obj 338 -36 metro 100;
#N canvas 0 112 859 323 grp_scaling 0;
#X obj 67 56 unpack f f f f f f f f f;
#X obj 67 156 scaler;
#X obj 113 156 scaler;
#X obj 159 156 scaler;
#X obj 205 156 scaler;
#X obj 251 156 scaler;
#X obj 297 156 scaler;
#X obj 343 156 scaler;
#X obj 389 156 scaler;
#X obj 435 156 scaler;
#X obj 70 247 pack f f f f f f f f f;
#X obj 70 272 outlet;
#X obj 68 5 inlet;
#X obj 467 20 r DIFF_threshold;
#X msg 467 45 \$1 \$2 0 1;
#X connect 0 0 1 0;
#X connect 0 1 2 0;
#X connect 0 2 3 0;
#X connect 0 3 4 0;
#X connect 0 4 5 0;
#X connect 0 5 6 0;
#X connect 0 6 7 0;
#X connect 0 7 8 0;
#X connect 0 8 9 0;
#X connect 1 0 10 0;
#X connect 2 0 10 1;
#X connect 3 0 10 2;
#X connect 4 0 10 3;
#X connect 5 0 10 4;
#X connect 6 0 10 5;
#X connect 7 0 10 6;
#X connect 8 0 10 7;
#X connect 9 0 10 8;
#X connect 10 0 11 0;
#X connect 12 0 0 0;
#X connect 13 0 14 0;
#X connect 14 0 9 1;
#X connect 14 0 8 1;
#X connect 14 0 7 1;
#X connect 14 0 6 1;
#X connect 14 0 5 1;
#X connect 14 0 4 1;
#X connect 14 0 3 1;
#X connect 14 0 2 1;
#X connect 14 0 1 1;
#X restore 745 212 pd grp_scaling;
#X msg 1408 -79 0 0.8;
#X msg 339 -170 new mycraft 1 CRAFT \, prescaler mycraft 1 \, threshold
mycraft 0.01;
#X connect 1 0 3 0;
#X connect 2 0 39 0;
#X connect 4 0 42 0;
#X connect 5 0 12 0;
#X connect 12 0 1 1;
#X connect 12 0 24 0;
#X connect 16 0 17 0;
#X connect 21 0 26 1;
#X connect 21 0 40 0;
#X connect 22 0 32 0;
#X connect 24 0 21 0;
#X connect 24 1 21 1;
#X connect 24 2 21 2;
#X connect 24 3 21 3;
#X connect 24 4 21 4;
#X connect 24 5 21 5;
#X connect 24 6 21 6;
#X connect 24 7 21 7;
#X connect 24 8 21 8;
#X connect 28 0 38 0;
#X connect 32 0 41 0;
#X connect 32 1 34 0;
#X connect 34 0 35 0;
#X connect 36 0 21 9;
#X connect 37 0 21 10;
#X connect 38 0 23 0;
#X connect 38 0 23 1;
#X connect 39 0 1 0;
#X connect 39 0 26 0;
#X connect 40 0 28 0;
#X connect 41 0 33 0;
#X connect 42 0 6 0;
