#N canvas 1055 22 450 300 10;
#N canvas 495 23 731 787 polyphonic 0;
#X obj 364 -573 pack symbol \$0;
#X msg 232 -842 1;
#X obj 222 -672 pack f f;
#X obj 231 -897 tgl 15 0 empty empty empty 17 7 0 10 -262144 -1 -1
0 1;
#X obj 221 -604 - 1;
#X obj 214 -557 pack 0 0 0;
#X obj 243 -413 clone pad_cell 8;
#X msg 486 -476 all \$1 \$2 \$3 \$4;
#X obj 486 -568 loadbang;
#X msg 486 -522 2000 5000 1 5000;
#X obj 232 -871 metro 6000;
#X obj 232 -813 makenote 1 2000;
#X obj 222 -642 poly 8 1;
#X obj 203 -148 throw~ L;
#X obj 273 -148 throw~ R;
#X obj 365 -728 sel 1;
#X msg 364 -547 next \$1;
#X obj 318 -768 t f f;
#X obj 372 -695 random_no_repeat;
#X msg 483 -721 4;
#X obj 373 -661 sel 0 1 2 3;
#X obj 483 -743 loadbang;
#X floatatom 512 -663 5 0 0 0 - - -, f 5;
#X msg 329 -612 cell1.wav;
#X msg 401 -612 cell2.wav;
#X msg 473 -612 cell3.wav;
#X msg 545 -612 cell4.wav;
#X text 51 -415 polyphonic single sample >;
#X obj 190 -746 bng 15 250 50 0 empty empty empty 17 7 0 10 -262144
-1 -1;
#X obj 205 -340 fader;
#X connect 0 0 16 0;
#X connect 1 0 11 0;
#X connect 2 0 12 0;
#X connect 3 0 10 0;
#X connect 4 0 5 0;
#X connect 5 0 6 0;
#X connect 6 0 29 0;
#X connect 6 1 29 1;
#X connect 8 0 9 0;
#X connect 9 0 7 0;
#X connect 10 0 1 0;
#X connect 11 0 2 0;
#X connect 11 0 28 0;
#X connect 11 1 17 0;
#X connect 12 0 4 0;
#X connect 12 1 5 1;
#X connect 12 2 5 2;
#X connect 15 0 18 0;
#X connect 16 0 6 1;
#X connect 17 0 2 1;
#X connect 17 1 15 0;
#X connect 18 0 20 0;
#X connect 18 0 22 0;
#X connect 19 0 18 1;
#X connect 20 0 23 0;
#X connect 20 1 24 0;
#X connect 20 2 25 0;
#X connect 20 3 26 0;
#X connect 21 0 19 0;
#X connect 23 0 0 0;
#X connect 24 0 0 0;
#X connect 25 0 0 0;
#X connect 26 0 0 0;
#X connect 29 0 13 0;
#X connect 29 1 14 0;
#X restore 27 75 pd polyphonic single sample;
#N canvas 495 23 857 536 cyclic 0;
#X msg 412 83 all \$1 \$2;
#X msg 413 -11 0 1.wav;
#X msg 615 -8 3 4.wav;
#X msg 557 -8 2 3.wav;
#X obj 413 56 pack float symbol \$0;
#X msg 233 43 next \$1;
#X obj 413 -78 loadbang;
#X obj 233 -17 random_no_repeat;
#X msg 342 -48 4;
#X obj 233 -60 bng 15 250 50 0 empty empty empty 17 7 0 10 -262144
-1 -1;
#X obj 241 452 throw~ L;
#X obj 349 452 throw~ R;
#X obj 235 142 clone sampler_oneshot_RR 8;
#X msg 471 -8 1 cell2.wav;
#X text 38 145 cyclic oneshot triggering >;
#X obj 413 85 pack float symbol \$0;
#X obj 241 250 fader;
#X connect 0 0 12 1;
#X connect 1 0 4 0;
#X connect 2 0 4 0;
#X connect 3 0 4 0;
#X connect 4 0 0 0;
#X connect 4 0 15 0;
#X connect 5 0 12 0;
#X connect 6 0 1 0;
#X connect 6 0 3 0;
#X connect 6 0 2 0;
#X connect 6 0 13 0;
#X connect 6 0 8 0;
#X connect 7 0 5 0;
#X connect 8 0 7 1;
#X connect 9 0 7 0;
#X connect 12 0 16 0;
#X connect 13 0 4 0;
#X connect 16 0 10 0;
#X connect 16 0 11 0;
#X restore 278 74 pd cyclic oneshot triggering;
#N canvas 448 204 915 603 poly 0;
#X msg 226 -273 0 1.wav;
#X msg 106 -262 1;
#X obj 131 -186 pack f f;
#X obj 106 -306 metro 2000;
#X obj 106 -329 tgl 15 0 empty empty empty 17 7 0 10 -262144 -1 -1
0 1;
#X msg 356 -181 10 5000 1 1000;
#X obj 106 -233 makenote 1 1000;
#X obj 183 11 throw~ L;
#X obj 325 19 throw~ R;
#X obj 258 -372 loadbang;
#N canvas 1017 266 770 708 RR_polyphonic_thomash 0;
#X msg 810 -452 1;
#X msg 850 -452 0;
#X obj 810 -512 r \$0-on;
#X obj 850 -487 r \$0-off;
#X floatatom 866 -415 5 0 0 0 - - -, f 5;
#X obj 245 -518 inlet path;
#X obj 69 -527 inlet play;
#X obj 69 563 outlet~;
#N canvas 39 248 474 307 tables 0;
#N canvas 0 22 450 300 (subpatch) 0;
#X array \$0-array-0 88200 float 4 black black;
#X coords 0 1 88199 -1 200 140 1;
#X restore 26 -52 graph;
#N canvas 0 22 450 300 (subpatch) 0;
#X array \$0-array-1 88200 float 4 black black;
#X coords 0 1 88199 -1 200 140 1;
#X restore 240 -52 graph;
#N canvas 0 22 450 300 (subpatch) 0;
#X array \$0-array-2 88200 float 4 black black;
#X coords 0 1 88199 -1 200 140 1;
#X restore 23 119 graph;
#N canvas 0 22 450 300 (subpatch) 0;
#X array \$0-array-3 88200 float 4 black black;
#X coords 0 1 88199 -1 200 140 1;
#X restore 246 119 graph;
#X restore 512 -527 pd tables;
#X obj 69 -222 sel 0 1 2 3;
#X obj 69 -128 f;
#X obj 104 -128 f;
#X obj 69 139 phasor~;
#X obj 69 174 *~;
#X obj 69 -51 t f b;
#X obj 101 -6 spigot;
#X obj 140 -33 tgl 15 0 empty empty enable\ random\ playback\ point
17 7 0 10 -262144 -1 -1 0 1;
#X obj 99 18 random_noise;
#X obj 69 428 tabread4~ \$0-array1;
#X obj 125 460 tabread4~ \$0-array1;
#X obj 69 -496 unpack f f;
#X obj 136 -462 t f f f;
#X obj 182 -399 s \$0-on;
#X obj 182 -432 route 1;
#N canvas 74 74 1158 781 envelope1 0;
#X obj 353 -378 timer;
#X obj 423 -388 +;
#X obj 423 -417 f;
#X obj 352 -452 t b b;
#X obj 354 -285 >= 0;
#X obj 354 -330 t f f;
#X obj 312 -141 f;
#X msg 312 -108 0 \$1;
#X obj 454 -169 f;
#X obj 454 -144 pack f f f;
#X obj 313 -55 vline~;
#X obj 354 -256 sel 0 1;
#X msg 454 -115 \$1 \$2 \, 0 \$3 \$2;
#X obj 354 -353 expr $f2-$f1;
#X obj 482 -308 min;
#X obj 482 -287 min;
#X text 121 -374 [attack \, decay \, sustain];
#X text 357 -560 [release];
#X obj 150 -141 pack f f f f f;
#X msg 150 -116 \$1 \$2 \, \$3 \$4 \$5;
#X obj 199 -247 *;
#X obj 141 -292 t f f;
#X obj 547 -230 *;
#X obj 313 -35 outlet~;
#X obj 352 -490 sel 1 0;
#X obj 96 -634 inlet velocity;
#X obj 154 -589 inlet A;
#X obj 205 -591 inlet D;
#X obj 255 -591 inlet S;
#X obj 308 -598 inlet R;
#X obj 947 -549 unpack \$1 \$2 \$3 \$4;
#X obj 876 -578 loadbang;
#X obj 352 -511 > 0;
#X obj 114 -323 sel 0;
#X text 670 -626 inlets for individual parameters;
#X text 948 -590 creation arguments for ADSR;
#X text 648 -486 Note that the midi standard is for full velocity to
be 127 \, so that's what we are expecting at our inlet \, and then
we scale by dividing by 127 You can change this so that the patch just
accepts 0->1 scale directly if that is easier for you and you don't
want to follow midi standards.;
#X text 648 -408 The attack \, decay and release are all accepting
millisecond values \, as that seems the clearest way \, but again \,
if you prefer to use midi standards \, or scale 0->1 \, then that is
an easy modification.;
#X text 646 -347 Sustain here takes a 0->1 value. You can change that
too \, depending on what type of controller you wish to use.;
#X obj 122 -471 unpack \$1 \$2 \$3 \$4;
#X obj 123 -519 loadbang;
#X obj 97 -589 / 1;
#X obj 97 -613 clip 0 1;
#X connect 0 0 13 0;
#X connect 1 0 13 1;
#X connect 2 0 1 0;
#X connect 3 0 0 0;
#X connect 3 1 2 0;
#X connect 4 0 11 0;
#X connect 5 0 4 0;
#X connect 5 1 14 0;
#X connect 6 0 7 0;
#X connect 7 0 10 0;
#X connect 8 0 9 0;
#X connect 9 0 12 0;
#X connect 10 0 23 0;
#X connect 11 0 6 0;
#X connect 11 1 8 0;
#X connect 12 0 10 0;
#X connect 13 0 5 0;
#X connect 14 0 15 0;
#X connect 15 0 9 1;
#X connect 18 0 19 0;
#X connect 19 0 10 0;
#X connect 20 0 18 2;
#X connect 21 0 18 0;
#X connect 21 1 20 0;
#X connect 22 0 8 1;
#X connect 24 0 3 0;
#X connect 24 1 0 1;
#X connect 25 0 42 0;
#X connect 26 0 18 1;
#X connect 26 0 18 4;
#X connect 26 0 2 1;
#X connect 27 0 18 3;
#X connect 27 0 14 1;
#X connect 27 0 1 1;
#X connect 28 0 20 1;
#X connect 28 0 22 1;
#X connect 29 0 6 1;
#X connect 29 0 9 2;
#X connect 29 0 15 1;
#X connect 31 0 30 0;
#X connect 32 0 24 0;
#X connect 33 1 21 0;
#X connect 39 0 18 1;
#X connect 39 0 18 4;
#X connect 39 0 2 1;
#X connect 39 1 18 3;
#X connect 39 1 1 1;
#X connect 39 1 14 1;
#X connect 39 2 20 1;
#X connect 39 2 22 1;
#X connect 39 3 6 1;
#X connect 39 3 9 2;
#X connect 39 3 15 1;
#X connect 40 0 39 0;
#X connect 41 0 33 0;
#X connect 41 0 22 0;
#X connect 41 0 32 0;
#X connect 42 0 41 0;
#X restore 398 63 pd envelope1;
#X obj 69 520 *~;
#X obj 125 520 *~;
#N canvas 495 23 450 300 env_snapshot 0;
#X obj 34 24 snapshot~;
#X obj 125 -21 metro 100;
#X obj 34 53 change;
#X obj 34 82 sel 0;
#X obj 125 -52 loadbang;
#X obj 34 -51 inlet~;
#X obj 34 172 outlet;
#X obj 143 172 outlet;
#X obj 193 -52 bng 15 250 50 0 empty empty empty 17 7 0 10 -262144
-1 -1;
#X connect 0 0 2 0;
#X connect 0 0 7 0;
#X connect 1 0 0 0;
#X connect 2 0 3 0;
#X connect 3 0 6 0;
#X connect 4 0 1 0;
#X connect 5 0 0 0;
#X connect 8 0 1 0;
#X restore 405 91 pd env_snapshot;
#X obj 405 121 t b b;
#X floatatom 524 115 5 0 0 0 - - -, f 5;
#X obj 416 -527 inlet ADSR;
#X obj 416 -8 unpack f f f f;
#X obj 405 198 s \$0-off;
#X obj 405 150 del 100;
#X msg 138 56 0;
#X obj 138 85 t f f;
#X obj 125 563 outlet~;
#X obj 74 -303 random_no_repeat;
#X msg 183 -337 4;
#X obj 87 -431 route 1;
#X obj 74 -274 t f f;
#X obj 183 -364 loadbang;
#X obj 110 304 *~;
#X obj 128 264 line~;
#X obj 128 175 == 0;
#X msg 128 236 \$1 1;
#X obj 777 -478 loadbang;
#X obj 547 248 osc~ 440;
#X obj 128 204 change;
#X msg 205 6 0;
#X obj 215 -251 expr 44100 / $f1;
#N canvas 535 237 271 289 arrays 0;
#X obj 43 125 soundfiler;
#X obj 44 29 inlet;
#X obj 27 229 outlet;
#X msg 35 79 read -resize \$2 \$0-array-\$1;
#X obj 33 176 expr 44100 / $f1;
#X connect 0 0 4 0;
#X connect 1 0 3 0;
#X connect 3 0 0 0;
#X connect 4 0 2 0;
#X restore 246 -475 pd arrays;
#X connect 0 0 4 0;
#X connect 1 0 4 0;
#X connect 5 0 51 0;
#X connect 6 0 20 0;
#X connect 9 0 10 0;
#X connect 9 1 11 0;
#X connect 10 0 14 0;
#X connect 11 0 14 0;
#X connect 12 0 13 0;
#X connect 13 0 42 0;
#X connect 14 0 12 0;
#X connect 14 1 15 0;
#X connect 14 1 49 0;
#X connect 15 0 17 0;
#X connect 16 0 15 1;
#X connect 17 0 12 1;
#X connect 18 0 25 0;
#X connect 19 0 26 0;
#X connect 20 1 21 0;
#X connect 21 0 24 0;
#X connect 21 1 39 0;
#X connect 21 2 23 0;
#X connect 23 0 22 0;
#X connect 24 0 25 1;
#X connect 24 0 26 1;
#X connect 24 0 27 0;
#X connect 25 0 7 0;
#X connect 26 0 36 0;
#X connect 27 0 28 0;
#X connect 27 1 29 0;
#X connect 28 0 33 0;
#X connect 28 1 34 0;
#X connect 30 0 31 0;
#X connect 31 0 24 1;
#X connect 31 1 24 2;
#X connect 31 2 24 3;
#X connect 31 3 24 4;
#X connect 33 0 32 0;
#X connect 34 0 35 0;
#X connect 35 0 12 1;
#X connect 35 1 12 0;
#X connect 37 0 40 0;
#X connect 38 0 37 1;
#X connect 39 0 37 0;
#X connect 40 0 9 0;
#X connect 40 1 44 0;
#X connect 41 0 38 0;
#X connect 42 0 18 0;
#X connect 42 0 19 0;
#X connect 43 0 42 1;
#X connect 44 0 48 0;
#X connect 45 0 43 0;
#X connect 46 0 0 0;
#X connect 48 0 45 0;
#X connect 49 0 12 1;
#X connect 50 0 10 1;
#X restore 180 -118 pd RR_polyphonic_thomash;
#X msg 284 -273 1 2.wav;
#X msg 342 -273 2 3.wav;
#X msg 400 -273 3 4.wav, f 12;
#N canvas 572 50 868 805 RR_polyphonic_OLD 0;
#X msg 757 21 1;
#X msg 797 21 0;
#X obj 757 -39 r \$0-on;
#X obj 797 -14 r \$0-off;
#X floatatom 813 58 5 0 0 0 - - -, f 5;
#X obj 195 -54 inlet path;
#X obj 16 -54 inlet play;
#X obj 16 1036 outlet~;
#N canvas 603 242 450 392 tables 0;
#N canvas 0 22 450 300 (subpatch) 0;
#X array \$0-array1 88200 float 4 black black;
#X coords 0 1 88199 -1 200 140 1;
#X restore 26 -52 graph;
#N canvas 0 22 450 300 (subpatch) 0;
#X array \$0-array2 88200 float 4 black black;
#X coords 0 1 88199 -1 200 140 1;
#X restore 240 -52 graph;
#N canvas 0 22 450 300 (subpatch) 0;
#X array \$0-array3 88200 float 4 black black;
#X coords 0 1 88199 -1 200 140 1;
#X restore 24 119 graph;
#N canvas 0 22 450 300 (subpatch) 0;
#X array \$0-array4 1.2348e+06 float 4 black black;
#X coords 0 1 1.2348e+06 -1 200 140 1;
#X restore 246 119 graph;
#X restore 459 -54 pd tables;
#X obj 16 251 sel 0 1 2 3;
#X obj 195 -18 route 0 1 2 3;
#X obj 16 345 f;
#X obj 51 345 f;
#X obj 86 345 f;
#X obj 121 345 f;
#N canvas 532 199 450 300 array1 0;
#X obj 45 94 soundfiler;
#X obj 45 36 pack symbol \$0;
#X obj 45 7 inlet;
#X obj 45 152 outlet;
#X msg 45 65 read -resize \$1 \$0-array1;
#X msg 183 162;
#X connect 0 0 3 0;
#X connect 1 0 4 0;
#X connect 2 0 1 0;
#X connect 4 0 0 0;
#X connect 4 0 5 0;
#X restore 195 17 pd array1;
#N canvas 0 22 450 300 array2 0;
#X obj 45 94 soundfiler;
#X obj 45 36 pack symbol \$0;
#X obj 45 7 inlet;
#X obj 45 152 outlet;
#X msg 45 65 read -resize \$1 \$0-array2;
#X connect 0 0 3 0;
#X connect 1 0 4 0;
#X connect 2 0 1 0;
#X connect 4 0 0 0;
#X restore 217 74 pd array2;
#N canvas 0 22 450 300 array3 0;
#X obj 45 94 soundfiler;
#X obj 45 36 pack symbol \$0;
#X obj 45 7 inlet;
#X obj 45 152 outlet;
#X msg 45 65 read -resize \$1 \$0-array3;
#X connect 0 0 3 0;
#X connect 1 0 4 0;
#X connect 2 0 1 0;
#X connect 4 0 0 0;
#X restore 239 121 pd array3;
#N canvas 0 22 450 300 array4 0;
#X obj 45 94 soundfiler;
#X obj 45 36 pack symbol \$0;
#X obj 45 7 inlet;
#X obj 45 152 outlet;
#X msg 45 65 read -resize \$1 \$0-array4;
#X connect 0 0 3 0;
#X connect 1 0 4 0;
#X connect 2 0 1 0;
#X connect 4 0 0 0;
#X restore 274 182 pd array4;
#X obj 16 612 phasor~;
#X obj 16 647 *~;
#X obj 16 422 t f b;
#X obj 48 467 spigot;
#X obj 87 440 tgl 15 0 empty empty enable\ random\ playback\ point
17 7 0 10 -262144 -1 -1 0 1;
#X obj 46 491 random_noise;
#X obj 16 901 tabread4~ \$0-array1;
#X obj 72 933 tabread4~ \$0-array1;
#X obj 16 -23 unpack f f;
#X obj 83 11 t f f f;
#X obj 129 74 s \$0-on;
#X obj 129 41 route 1;
#N canvas 74 74 1158 781 envelope1 0;
#X obj 353 -378 timer;
#X obj 423 -388 +;
#X obj 423 -417 f;
#X obj 352 -452 t b b;
#X obj 354 -285 >= 0;
#X obj 354 -330 t f f;
#X obj 312 -141 f;
#X msg 312 -108 0 \$1;
#X obj 454 -169 f;
#X obj 454 -144 pack f f f;
#X obj 313 -55 vline~;
#X obj 354 -256 sel 0 1;
#X msg 454 -115 \$1 \$2 \, 0 \$3 \$2;
#X obj 354 -353 expr $f2-$f1;
#X obj 482 -308 min;
#X obj 482 -287 min;
#X text 121 -374 [attack \, decay \, sustain];
#X text 357 -560 [release];
#X obj 150 -141 pack f f f f f;
#X msg 150 -116 \$1 \$2 \, \$3 \$4 \$5;
#X obj 199 -247 *;
#X obj 141 -292 t f f;
#X obj 547 -230 *;
#X obj 313 -35 outlet~;
#X obj 352 -490 sel 1 0;
#X obj 96 -634 inlet velocity;
#X obj 154 -589 inlet A;
#X obj 205 -591 inlet D;
#X obj 255 -591 inlet S;
#X obj 308 -598 inlet R;
#X obj 947 -549 unpack \$1 \$2 \$3 \$4;
#X obj 876 -578 loadbang;
#X obj 352 -511 > 0;
#X obj 114 -323 sel 0;
#X text 670 -626 inlets for individual parameters;
#X text 948 -590 creation arguments for ADSR;
#X text 648 -486 Note that the midi standard is for full velocity to
be 127 \, so that's what we are expecting at our inlet \, and then
we scale by dividing by 127 You can change this so that the patch just
accepts 0->1 scale directly if that is easier for you and you don't
want to follow midi standards.;
#X text 648 -408 The attack \, decay and release are all accepting
millisecond values \, as that seems the clearest way \, but again \,
if you prefer to use midi standards \, or scale 0->1 \, then that is
an easy modification.;
#X text 646 -347 Sustain here takes a 0->1 value. You can change that
too \, depending on what type of controller you wish to use.;
#X obj 122 -471 unpack \$1 \$2 \$3 \$4;
#X obj 123 -519 loadbang;
#X obj 97 -589 / 1;
#X obj 97 -613 clip 0 1;
#X connect 0 0 13 0;
#X connect 1 0 13 1;
#X connect 2 0 1 0;
#X connect 3 0 0 0;
#X connect 3 1 2 0;
#X connect 4 0 11 0;
#X connect 5 0 4 0;
#X connect 5 1 14 0;
#X connect 6 0 7 0;
#X connect 7 0 10 0;
#X connect 8 0 9 0;
#X connect 9 0 12 0;
#X connect 10 0 23 0;
#X connect 11 0 6 0;
#X connect 11 1 8 0;
#X connect 12 0 10 0;
#X connect 13 0 5 0;
#X connect 14 0 15 0;
#X connect 15 0 9 1;
#X connect 18 0 19 0;
#X connect 19 0 10 0;
#X connect 20 0 18 2;
#X connect 21 0 18 0;
#X connect 21 1 20 0;
#X connect 22 0 8 1;
#X connect 24 0 3 0;
#X connect 24 1 0 1;
#X connect 25 0 42 0;
#X connect 26 0 18 1;
#X connect 26 0 18 4;
#X connect 26 0 2 1;
#X connect 27 0 18 3;
#X connect 27 0 14 1;
#X connect 27 0 1 1;
#X connect 28 0 20 1;
#X connect 28 0 22 1;
#X connect 29 0 6 1;
#X connect 29 0 9 2;
#X connect 29 0 15 1;
#X connect 31 0 30 0;
#X connect 32 0 24 0;
#X connect 33 1 21 0;
#X connect 39 0 18 1;
#X connect 39 0 18 4;
#X connect 39 0 2 1;
#X connect 39 1 18 3;
#X connect 39 1 1 1;
#X connect 39 1 14 1;
#X connect 39 2 20 1;
#X connect 39 2 22 1;
#X connect 39 3 6 1;
#X connect 39 3 9 2;
#X connect 39 3 15 1;
#X connect 40 0 39 0;
#X connect 41 0 33 0;
#X connect 41 0 22 0;
#X connect 41 0 32 0;
#X connect 42 0 41 0;
#X restore 345 536 pd envelope1;
#X obj 16 993 *~;
#X obj 72 993 *~;
#N canvas 495 23 450 300 env_snapshot 0;
#X obj 34 24 snapshot~;
#X obj 125 -21 metro 100;
#X obj 34 53 change;
#X obj 34 82 sel 0;
#X obj 125 -52 loadbang;
#X obj 34 -51 inlet~;
#X obj 34 172 outlet;
#X obj 143 172 outlet;
#X obj 193 -52 bng 15 250 50 0 empty empty empty 17 7 0 10 -262144
-1 -1;
#X connect 0 0 2 0;
#X connect 0 0 7 0;
#X connect 1 0 0 0;
#X connect 2 0 3 0;
#X connect 3 0 6 0;
#X connect 4 0 1 0;
#X connect 5 0 0 0;
#X connect 8 0 1 0;
#X restore 352 564 pd env_snapshot;
#X obj 352 594 t b b;
#X floatatom 471 588 5 0 0 0 - - -, f 5;
#X obj 363 -54 inlet ADSR;
#X obj 363 465 unpack f f f f;
#X obj 352 671 s \$0-off;
#X obj 352 623 del 100;
#X msg 85 529 0;
#X obj 85 558 t f f;
#X obj 72 1036 outlet~;
#X obj 21 170 random_no_repeat;
#X msg 130 136 4;
#X obj 34 42 route 1;
#X obj 21 199 t f f;
#X obj 130 109 loadbang;
#X obj 57 777 *~;
#X obj 75 737 line~;
#X obj 75 648 == 0;
#X obj 109 777 *~;
#X obj 127 737 line~;
#X obj 160 777 *~;
#X obj 178 737 line~;
#X obj 212 777 *~;
#X obj 230 737 line~;
#X obj 127 648 == 2;
#X obj 178 648 == 3;
#X obj 230 648 == 4;
#X obj 222 901 tabread4~ \$0-array2;
#X obj 278 933 tabread4~ \$0-array2;
#X obj 428 901 tabread4~ \$0-array3;
#X obj 484 933 tabread4~ \$0-array3;
#X obj 610 901 tabread4~ \$0-array4;
#X obj 666 933 tabread4~ \$0-array4;
#X msg 75 709 \$1 1;
#X msg 127 709 \$1 1;
#X msg 178 709 \$1 1;
#X msg 230 709 \$1 1;
#X obj 724 -5 loadbang;
#X obj 494 721 osc~ 440;
#X obj 75 677 change;
#X obj 127 678 change;
#X obj 179 677 change;
#X obj 230 679 change;
#X msg 152 479 0;
#X obj 264 233 expr 44100 / $f1;
#X obj 242 145 expr 44100 / $f1;
#X obj 220 98 expr 44100 / $f1;
#X obj 195 42 expr 44100 / $f1;
#X obj 160 343 f;
#X obj 195 343 f;
#X obj 230 343 f;
#X obj 286 349 f;
#X connect 0 0 4 0;
#X connect 1 0 4 0;
#X connect 5 0 10 0;
#X connect 6 0 27 0;
#X connect 9 0 11 0;
#X connect 9 0 82 0;
#X connect 9 1 12 0;
#X connect 9 1 83 0;
#X connect 9 2 13 0;
#X connect 9 2 84 0;
#X connect 9 3 14 0;
#X connect 9 3 85 0;
#X connect 10 0 15 0;
#X connect 10 1 16 0;
#X connect 10 2 17 0;
#X connect 10 3 18 0;
#X connect 11 0 21 0;
#X connect 12 0 21 0;
#X connect 13 0 21 0;
#X connect 14 0 21 0;
#X connect 15 0 81 0;
#X connect 15 0 82 1;
#X connect 16 0 80 0;
#X connect 16 0 83 1;
#X connect 17 0 79 0;
#X connect 17 0 84 1;
#X connect 18 0 78 0;
#X connect 18 0 85 1;
#X connect 19 0 20 0;
#X connect 20 0 49 0;
#X connect 20 0 56 0;
#X connect 20 0 54 0;
#X connect 20 0 52 0;
#X connect 21 0 19 0;
#X connect 21 1 22 0;
#X connect 21 1 77 0;
#X connect 22 0 24 0;
#X connect 23 0 22 1;
#X connect 24 0 19 1;
#X connect 25 0 32 0;
#X connect 26 0 33 0;
#X connect 27 1 28 0;
#X connect 28 0 31 0;
#X connect 28 1 46 0;
#X connect 28 2 30 0;
#X connect 30 0 29 0;
#X connect 31 0 32 1;
#X connect 31 0 33 1;
#X connect 31 0 34 0;
#X connect 32 0 7 0;
#X connect 33 0 43 0;
#X connect 34 0 35 0;
#X connect 34 1 36 0;
#X connect 35 0 40 0;
#X connect 35 1 41 0;
#X connect 37 0 38 0;
#X connect 38 0 31 1;
#X connect 38 1 31 2;
#X connect 38 2 31 3;
#X connect 38 3 31 4;
#X connect 40 0 39 0;
#X connect 41 0 42 0;
#X connect 42 0 19 1;
#X connect 42 1 19 0;
#X connect 44 0 47 0;
#X connect 45 0 44 1;
#X connect 46 0 44 0;
#X connect 47 0 9 0;
#X connect 47 1 51 0;
#X connect 47 1 60 0;
#X connect 47 1 59 0;
#X connect 47 1 58 0;
#X connect 48 0 45 0;
#X connect 49 0 25 0;
#X connect 49 0 26 0;
#X connect 50 0 49 1;
#X connect 51 0 73 0;
#X connect 52 0 61 0;
#X connect 52 0 62 0;
#X connect 53 0 52 1;
#X connect 54 0 63 0;
#X connect 54 0 64 0;
#X connect 55 0 54 1;
#X connect 56 0 65 0;
#X connect 56 0 66 0;
#X connect 57 0 56 1;
#X connect 58 0 74 0;
#X connect 59 0 75 0;
#X connect 60 0 76 0;
#X connect 61 0 32 0;
#X connect 62 0 33 0;
#X connect 63 0 32 0;
#X connect 64 0 33 0;
#X connect 65 0 32 0;
#X connect 66 0 33 0;
#X connect 67 0 50 0;
#X connect 68 0 53 0;
#X connect 69 0 55 0;
#X connect 70 0 57 0;
#X connect 71 0 0 0;
#X connect 73 0 67 0;
#X connect 74 0 68 0;
#X connect 75 0 69 0;
#X connect 76 0 70 0;
#X connect 77 0 19 1;
#X connect 78 0 14 1;
#X connect 79 0 13 1;
#X connect 80 0 12 1;
#X connect 81 0 11 1;
#X connect 82 0 20 1;
#X connect 83 0 20 1;
#X connect 84 0 20 1;
#X connect 85 0 20 1;
#X restore 559 -119 pd RR_polyphonic_OLD;
#X connect 0 0 10 1;
#X connect 1 0 6 0;
#X connect 2 0 10 0;
#X connect 3 0 1 0;
#X connect 4 0 3 0;
#X connect 5 0 10 2;
#X connect 6 0 2 0;
#X connect 6 1 2 1;
#X connect 9 0 0 0;
#X connect 9 0 13 0;
#X connect 9 0 12 0;
#X connect 9 0 11 0;
#X connect 9 0 5 0;
#X connect 10 0 7 0;
#X connect 10 1 8 0;
#X connect 11 0 10 1;
#X connect 12 0 10 1;
#X connect 13 0 10 1;
#X restore 659 79 pd poly cyclic sample playback;
#X text 518 81 work in progress >;
