#N canvas 645 312 1915 1059 12;
#X obj 12 -33 dsp;
#X obj 12 -56 tgl 15 0 empty empty empty 17 7 0 10 -262144 -1 -1 1
1;
#X obj 232 698 dac~ 1 2 3 4;
#N canvas 394 24 808 711 bela_input 0;
#X obj 47 377 list;
#X obj 47 337 metro 200;
#X obj 47 311 loadbang;
#X text 117 337 Throttle printing;
#X obj 48 417 print touchSensor;
#X obj 47 74 loadbang;
#X obj 385 237 r bela_trill;
#X obj 47 193 s bela_setTrill;
#X text 201 75 First initialise the Trill sensor;
#X text 498 237 This receives the reading from the Trill sensor.;
#X text 899 340 and then the individual channels if in diff mode;
#X text 899 361 In this example we use the first 4 channels to;
#X text 502 273 Which will be prepended with the sensor_id;
#X text 659 154 [prescaler <sensor_id> <value> (between 1 and 8);
#X text 658 175 [threshold <sensor_id> <value>(between 0 and 1.0);
#X text 899 381 trigger sample playback and print all on the console.
;
#X obj 385 274 route mycraft;
#X text 32 539 device that was successfully initialised. The message
;
#X text 32 549 will contain: <sensor_id> <device> <mode> <address>
;
#X text 31 528 bela_trillCreated will receive a message for each;
#X obj 36 581 r bela_trillCreated;
#X obj 36 610 print bela_trillCreated;
#X text 96 42 >>> See full documentation in examples/Trill/general-pd
<<<;
#X text 658 134 We are also changing settings on initialisation:;
#X msg 47 154 new mycraft 1 CRAFT \, prescaler mycraft 2 \, threshold
mycraft 0.01;
#X text 171 108 Message: [new <sensor_id> <bus> <device> <address=255>(
;
#N canvas 0 322 1440 436 parse_group 0;
#X obj 48 42 inlet;
#X obj 48 376 outlet;
#X obj 1514 35 inlet;
#X obj 48 212 parse;
#X obj 92 42 inlet;
#X obj 92 376 outlet;
#X obj 92 212 parse;
#X obj 136 42 inlet;
#X obj 136 376 outlet;
#X obj 136 212 parse;
#X obj 180 42 inlet;
#X obj 180 376 outlet;
#X obj 180 212 parse;
#X obj 224 42 inlet;
#X obj 224 376 outlet;
#X obj 224 212 parse;
#X obj 268 42 inlet;
#X obj 268 376 outlet;
#X obj 268 212 parse;
#X obj 312 42 inlet;
#X obj 312 376 outlet;
#X obj 312 212 parse;
#X obj 356 42 inlet;
#X obj 356 376 outlet;
#X obj 356 212 parse;
#X obj 400 42 inlet;
#X obj 400 376 outlet;
#X obj 400 212 parse;
#X obj 444 42 inlet;
#X obj 444 376 outlet;
#X obj 444 212 parse;
#X obj 488 42 inlet;
#X obj 488 376 outlet;
#X obj 488 212 parse;
#X obj 532 42 inlet;
#X obj 532 376 outlet;
#X obj 532 212 parse;
#X obj 576 42 inlet;
#X obj 576 376 outlet;
#X obj 576 212 parse;
#X obj 620 42 inlet;
#X obj 620 376 outlet;
#X obj 620 212 parse;
#X obj 664 42 inlet;
#X obj 664 376 outlet;
#X obj 664 212 parse;
#X obj 708 42 inlet;
#X obj 708 376 outlet;
#X obj 708 212 parse;
#X obj 752 42 inlet;
#X obj 752 376 outlet;
#X obj 752 212 parse;
#X obj 796 42 inlet;
#X obj 796 376 outlet;
#X obj 796 212 parse;
#X obj 840 42 inlet;
#X obj 840 376 outlet;
#X obj 840 212 parse;
#X obj 884 42 inlet;
#X obj 884 376 outlet;
#X obj 884 212 parse;
#X obj 928 42 inlet;
#X obj 928 376 outlet;
#X obj 928 212 parse;
#X obj 972 42 inlet;
#X obj 972 376 outlet;
#X obj 972 212 parse;
#X obj 1016 42 inlet;
#X obj 1016 376 outlet;
#X obj 1016 212 parse;
#X obj 1060 42 inlet;
#X obj 1060 376 outlet;
#X obj 1060 212 parse;
#X obj 1104 42 inlet;
#X obj 1104 376 outlet;
#X obj 1104 212 parse;
#X obj 1148 42 inlet;
#X obj 1148 376 outlet;
#X obj 1148 212 parse;
#X obj 1192 42 inlet;
#X obj 1192 376 outlet;
#X obj 1192 212 parse;
#X obj 1236 42 inlet;
#X obj 1236 376 outlet;
#X obj 1236 212 parse;
#X obj 1280 42 inlet;
#X obj 1280 376 outlet;
#X obj 1280 212 parse;
#X obj 1324 42 inlet;
#X obj 1324 376 outlet;
#X obj 1324 212 parse;
#X text 1558 36 threshold inlet;
#X connect 0 0 3 0;
#X connect 2 0 3 1;
#X connect 2 0 90 1;
#X connect 2 0 87 1;
#X connect 2 0 84 1;
#X connect 2 0 81 1;
#X connect 2 0 78 1;
#X connect 2 0 75 1;
#X connect 2 0 72 1;
#X connect 2 0 69 1;
#X connect 2 0 66 1;
#X connect 2 0 63 1;
#X connect 2 0 60 1;
#X connect 2 0 57 1;
#X connect 2 0 54 1;
#X connect 2 0 51 1;
#X connect 2 0 48 1;
#X connect 2 0 45 1;
#X connect 2 0 42 1;
#X connect 2 0 39 1;
#X connect 2 0 36 1;
#X connect 2 0 33 1;
#X connect 2 0 30 1;
#X connect 2 0 27 1;
#X connect 2 0 24 1;
#X connect 2 0 21 1;
#X connect 2 0 18 1;
#X connect 2 0 15 1;
#X connect 2 0 12 1;
#X connect 2 0 9 1;
#X connect 2 0 6 1;
#X connect 3 0 1 0;
#X connect 4 0 6 0;
#X connect 6 0 5 0;
#X connect 7 0 9 0;
#X connect 9 0 8 0;
#X connect 10 0 12 0;
#X connect 12 0 11 0;
#X connect 13 0 15 0;
#X connect 15 0 14 0;
#X connect 16 0 18 0;
#X connect 18 0 17 0;
#X connect 19 0 21 0;
#X connect 21 0 20 0;
#X connect 22 0 24 0;
#X connect 24 0 23 0;
#X connect 25 0 27 0;
#X connect 27 0 26 0;
#X connect 28 0 30 0;
#X connect 30 0 29 0;
#X connect 31 0 33 0;
#X connect 33 0 32 0;
#X connect 34 0 36 0;
#X connect 36 0 35 0;
#X connect 37 0 39 0;
#X connect 39 0 38 0;
#X connect 40 0 42 0;
#X connect 42 0 41 0;
#X connect 43 0 45 0;
#X connect 45 0 44 0;
#X connect 46 0 48 0;
#X connect 48 0 47 0;
#X connect 49 0 51 0;
#X connect 51 0 50 0;
#X connect 52 0 54 0;
#X connect 54 0 53 0;
#X connect 55 0 57 0;
#X connect 57 0 56 0;
#X connect 58 0 60 0;
#X connect 60 0 59 0;
#X connect 61 0 63 0;
#X connect 63 0 62 0;
#X connect 64 0 66 0;
#X connect 66 0 65 0;
#X connect 67 0 69 0;
#X connect 69 0 68 0;
#X connect 70 0 72 0;
#X connect 72 0 71 0;
#X connect 73 0 75 0;
#X connect 75 0 74 0;
#X connect 76 0 78 0;
#X connect 78 0 77 0;
#X connect 79 0 81 0;
#X connect 81 0 80 0;
#X connect 82 0 84 0;
#X connect 84 0 83 0;
#X connect 85 0 87 0;
#X connect 87 0 86 0;
#X connect 88 0 90 0;
#X connect 90 0 89 0;
#X restore 385 347 pd parse_group, f 69;
#X obj 385 313 unpack f f f f f f f f f f f f f f f f f f f f f f f
f f f f f f f, f 67;
#X text 900 286 threshold;
#X obj 867 247 loadbang;
#X msg 867 286 0.65;
#N canvas 0 322 1440 436 midistlye_mesage_generator 0;
#X obj 48 42 inlet;
#X obj 48 348 outlet;
#X msg 48 195 0 \$1;
#X obj 88 42 inlet;
#X obj 88 348 outlet;
#X obj 128 42 inlet;
#X obj 128 348 outlet;
#X obj 168 42 inlet;
#X obj 168 348 outlet;
#X obj 208 42 inlet;
#X obj 208 348 outlet;
#X obj 248 42 inlet;
#X obj 248 348 outlet;
#X obj 288 42 inlet;
#X obj 288 348 outlet;
#X obj 328 42 inlet;
#X obj 328 348 outlet;
#X obj 368 42 inlet;
#X obj 368 348 outlet;
#X obj 408 42 inlet;
#X obj 408 348 outlet;
#X obj 448 42 inlet;
#X obj 448 348 outlet;
#X obj 488 42 inlet;
#X obj 488 348 outlet;
#X obj 528 42 inlet;
#X obj 528 348 outlet;
#X obj 568 42 inlet;
#X obj 568 348 outlet;
#X obj 608 42 inlet;
#X obj 608 348 outlet;
#X obj 648 42 inlet;
#X obj 648 348 outlet;
#X obj 688 42 inlet;
#X obj 688 348 outlet;
#X obj 728 42 inlet;
#X obj 728 348 outlet;
#X obj 768 42 inlet;
#X obj 768 348 outlet;
#X obj 808 42 inlet;
#X obj 808 348 outlet;
#X obj 848 42 inlet;
#X obj 848 348 outlet;
#X obj 888 42 inlet;
#X obj 888 348 outlet;
#X obj 928 42 inlet;
#X obj 928 348 outlet;
#X obj 968 42 inlet;
#X obj 968 348 outlet;
#X obj 1008 42 inlet;
#X obj 1008 348 outlet;
#X obj 1048 42 inlet;
#X obj 1048 348 outlet;
#X obj 1088 42 inlet;
#X obj 1088 348 outlet;
#X obj 1128 42 inlet;
#X obj 1128 348 outlet;
#X obj 1168 42 inlet;
#X obj 1168 348 outlet;
#X obj 1208 42 inlet;
#X obj 1208 348 outlet;
#X msg 88 195 1 \$1;
#X msg 128 195 2 \$1;
#X msg 168 195 3 \$1;
#X msg 208 195 4 \$1;
#X msg 248 195 5 \$1;
#X msg 288 195 6 \$1;
#X msg 328 195 7 \$1;
#X msg 368 195 8 \$1;
#X msg 408 195 9 \$1;
#X msg 448 195 10 \$1;
#X msg 488 195 11 \$1;
#X msg 528 195 12 \$1;
#X msg 568 195 13 \$1;
#X msg 608 195 14 \$1;
#X msg 648 195 15 \$1;
#X msg 688 195 16 \$1;
#X msg 728 195 17 \$1;
#X msg 768 195 18 \$1;
#X msg 808 195 19 \$1;
#X msg 848 195 20 \$1;
#X msg 888 195 21 \$1;
#X msg 928 195 22 \$1;
#X msg 968 195 23 \$1;
#X msg 1008 195 24 \$1;
#X msg 1048 195 25 \$1;
#X msg 1088 195 26 \$1;
#X msg 1128 195 27 \$1;
#X msg 1168 195 28 \$1;
#X msg 1208 195 29 \$1;
#X connect 0 0 2 0;
#X connect 2 0 1 0;
#X connect 3 0 61 0;
#X connect 5 0 62 0;
#X connect 7 0 63 0;
#X connect 9 0 64 0;
#X connect 11 0 65 0;
#X connect 13 0 66 0;
#X connect 15 0 67 0;
#X connect 17 0 68 0;
#X connect 19 0 69 0;
#X connect 21 0 70 0;
#X connect 23 0 71 0;
#X connect 25 0 72 0;
#X connect 27 0 73 0;
#X connect 29 0 74 0;
#X connect 31 0 75 0;
#X connect 33 0 76 0;
#X connect 35 0 77 0;
#X connect 37 0 78 0;
#X connect 39 0 79 0;
#X connect 41 0 80 0;
#X connect 43 0 81 0;
#X connect 45 0 82 0;
#X connect 47 0 83 0;
#X connect 49 0 84 0;
#X connect 51 0 85 0;
#X connect 53 0 86 0;
#X connect 55 0 87 0;
#X connect 57 0 88 0;
#X connect 59 0 89 0;
#X connect 61 0 4 0;
#X connect 62 0 6 0;
#X connect 63 0 8 0;
#X connect 64 0 10 0;
#X connect 65 0 12 0;
#X connect 66 0 14 0;
#X connect 67 0 16 0;
#X connect 68 0 18 0;
#X connect 69 0 20 0;
#X connect 70 0 22 0;
#X connect 71 0 24 0;
#X connect 72 0 26 0;
#X connect 73 0 28 0;
#X connect 74 0 30 0;
#X connect 75 0 32 0;
#X connect 76 0 34 0;
#X connect 77 0 36 0;
#X connect 78 0 38 0;
#X connect 79 0 40 0;
#X connect 80 0 42 0;
#X connect 81 0 44 0;
#X connect 82 0 46 0;
#X connect 83 0 48 0;
#X connect 84 0 50 0;
#X connect 85 0 52 0;
#X connect 86 0 54 0;
#X connect 87 0 56 0;
#X connect 88 0 58 0;
#X connect 89 0 60 0;
#X restore 385 379 pd midistlye_mesage_generator, f 69;
#X floatatom 259 296 5 0 0 0 - - -, f 5;
#X obj 289 348 pipe 1098;
#X obj 272 324 pipe 1090;
#X obj 425 560 outlet;
#X connect 1 0 0 0;
#X connect 2 0 1 0;
#X connect 5 0 24 0;
#X connect 6 0 16 0;
#X connect 16 0 0 1;
#X connect 16 0 27 0;
#X connect 20 0 21 0;
#X connect 24 0 7 0;
#X connect 26 0 31 0;
#X connect 26 1 31 1;
#X connect 26 2 31 2;
#X connect 26 3 31 3;
#X connect 26 4 31 4;
#X connect 26 5 31 5;
#X connect 26 6 31 6;
#X connect 26 7 31 7;
#X connect 26 8 31 8;
#X connect 26 9 31 9;
#X connect 26 10 31 10;
#X connect 26 11 31 11;
#X connect 26 12 31 12;
#X connect 26 13 31 13;
#X connect 26 14 31 14;
#X connect 26 15 31 15;
#X connect 26 16 31 16;
#X connect 26 17 31 17;
#X connect 26 18 31 18;
#X connect 26 19 31 19;
#X connect 26 20 31 20;
#X connect 26 21 31 21;
#X connect 26 22 31 22;
#X connect 26 23 31 23;
#X connect 26 24 31 24;
#X connect 26 25 31 25;
#X connect 26 26 31 26;
#X connect 26 27 31 27;
#X connect 26 28 31 28;
#X connect 26 29 31 29;
#X connect 27 0 26 0;
#X connect 27 1 26 1;
#X connect 27 2 26 2;
#X connect 27 3 26 3;
#X connect 27 4 26 4;
#X connect 27 5 26 5;
#X connect 27 6 26 6;
#X connect 27 7 26 7;
#X connect 27 8 26 8;
#X connect 27 9 26 9;
#X connect 27 10 26 10;
#X connect 27 11 26 11;
#X connect 27 12 26 12;
#X connect 27 13 26 13;
#X connect 27 14 26 14;
#X connect 27 15 26 15;
#X connect 27 16 26 16;
#X connect 27 17 26 17;
#X connect 27 18 26 18;
#X connect 27 19 26 19;
#X connect 27 20 26 20;
#X connect 27 21 26 21;
#X connect 27 22 26 22;
#X connect 27 23 26 23;
#X connect 27 24 26 24;
#X connect 27 25 26 25;
#X connect 27 26 26 26;
#X connect 27 27 26 27;
#X connect 27 28 26 28;
#X connect 27 29 26 29;
#X connect 29 0 30 0;
#X connect 30 0 26 30;
#X connect 31 0 35 0;
#X connect 31 1 35 0;
#X connect 31 2 35 0;
#X connect 31 3 35 0;
#X connect 31 4 35 0;
#X connect 31 5 35 0;
#X connect 31 6 35 0;
#X connect 31 7 35 0;
#X connect 31 8 35 0;
#X connect 31 9 35 0;
#X connect 31 10 35 0;
#X connect 31 11 35 0;
#X connect 31 12 35 0;
#X connect 31 13 35 0;
#X connect 31 14 35 0;
#X connect 31 15 35 0;
#X connect 31 16 35 0;
#X connect 31 17 35 0;
#X connect 31 18 35 0;
#X connect 31 19 35 0;
#X connect 31 20 35 0;
#X connect 31 21 35 0;
#X connect 31 22 35 0;
#X connect 31 23 35 0;
#X connect 31 24 35 0;
#X connect 31 25 35 0;
#X connect 31 26 35 0;
#X connect 31 27 35 0;
#X connect 31 28 35 0;
#X connect 31 29 35 0;
#X connect 32 0 26 0;
#X connect 32 0 34 0;
#X connect 33 0 26 2;
#X connect 34 0 26 1;
#X connect 34 0 33 0;
#X restore 12 -5 pd bela_input;
#N canvas 133 23 1307 832 scale_selector 0;
#N canvas 0 22 450 300 (subpatch) 0;
#X array scale_intervals 15 float 3 black black;
#A 0 0 0.2 0.3 0.5 0.7 0.8 1 1.2 1.4 1.5 1.7 1.9 2 2.2 2.4;
#X coords 0 2.4 15 0 200 140 1;
#X restore 105 -21 graph;
#X msg 77 195 \; scale_intervals 0 0 0.2 0.4 0.5 0.7 0.9 1.1 1.2;
#X msg 77 457 \; scale_intervals 0 0 0.2 0.3 0.5 0.7 0.8 1.1 1.2;
#X msg 77 628 \; scale_intervals 0 0 0.2 0.3 0.5 0.7 0.9 1.1 1.2;
#X text 381 201 major;
#X text 561 335 natural minor;
#X text 381 462 harmonic minor;
#X text 381 634 melodic minor;
#X msg 77 259 \; scale_intervals 0 1.2 1.4 1.6 1.7 1.9 2.1 2.3 2.4
;
#X msg 77 227 \; scale_intervals 0 0.5 0.7 0.9 1.1 1.2 1.4 1.6 1.7
;
#X msg 77 396 \; scale_intervals 0 1.2 1.4 1.5 1.7 1.9 2 2.2 2.4;
#X msg 77 361 \; scale_intervals 0 0.5 0.7 0.8 1 1.2 1.4 1.5 1.7;
#X msg 77 537 \; scale_intervals 0 1.2 1.4 1.5 1.7 1.9 2 2.3 2.4;
#X msg 77 497 \; scale_intervals 0 0.5 0.7 0.8 1.1 1.2 1.4 1.5 1.7
;
#X msg 77 708 \; scale_intervals 0 1.2 1.4 1.5 1.7 1.9 2.1 2.3 2.4
;
#X msg 77 668 \; scale_intervals 0 0.5 0.7 0.9 1.1 1.2 1.4 1.5 1.7
;
#X obj 12 283 loadbang;
#X text 704 336 natural minor scale is the only scale that will work
as intended as it spans a two octave range;
#X msg 77 326 \; scale_intervals 0 0 0.2 0.3 0.5 0.7 0.8 1 1.2 1.4
1.5 1.7 1.9 2 2.2 2.4, f 76;
#X connect 16 0 18 0;
#X restore 12 23 pd scale_selector;
#X obj 342 204 pack symbol \$0;
#X msg 210 -65 1;
#X obj 200 105 pack f f;
#X obj 209 -120 tgl 15 0 empty empty empty 17 7 0 10 -262144 -1 -1
1 1;
#X obj 199 173 - 1;
#X obj 192 220 pack 0 0 0;
#X obj 221 364 clone pad_cell 8;
#X msg 464 301 all \$1 \$2 \$3 \$4;
#X obj 464 209 loadbang;
#X obj 12 -84 loadbang;
#N canvas 64 99 1349 439 random_generators 0;
#X obj 24 51 random_noise;
#X restore 12 51 pd random_generators;
#X msg 464 255 2000 5000 1 5000;
#X obj 210 -94 metro 6000;
#X obj 210 -36 makenote 1 2000;
#X obj 200 135 poly 8 1;
#X msg 904 274 all \$1 \$2;
#X msg 905 180 0 1.wav;
#X msg 1107 183 3 4.wav;
#X msg 1049 183 2 3.wav;
#X obj 905 247 pack float symbol \$0;
#X msg 725 234 next \$1;
#X obj 905 113 loadbang;
#X obj 725 174 random_no_repeat;
#X msg 834 143 4;
#X obj 725 131 bng 15 250 50 0 empty empty empty 17 7 0 10 -262144
-1 -1;
#X obj 181 629 throw~ L;
#X obj 251 629 throw~ R;
#X obj 727 559 throw~ L;
#X obj 797 559 throw~ R;
#X obj 231 665 catch~ L;
#X obj 298 665 catch~ R;
#X obj 727 333 clone sampler_oneshot_RR 8;
#N canvas 545 27 868 805 RR_polyphonic 0;
#X msg 757 21 1;
#X msg 797 21 0;
#X obj 757 -39 r \$0-on;
#X obj 797 -14 r \$0-off;
#X floatatom 813 58 5 0 0 0 - - -, f 5;
#X obj 195 -54 inlet path;
#X obj 16 -54 inlet play;
#X obj 16 1036 outlet~;
#N canvas 86 435 450 392 tables 0;
#N canvas 0 22 450 300 (subpatch) 0;
#X array \$0-array1 88200 float 4 black black;
#X coords 0 1 88199 -1 200 140 1;
#X restore 26 -52 graph;
#N canvas 0 22 450 300 (subpatch) 0;
#X array \$0-array2 88200 float 4 black black;
#X coords 0 1 88199 -1 200 140 1;
#X restore 240 -52 graph;
#N canvas 0 22 450 300 (subpatch) 0;
#X array \$0-array3 88200 float 4 black black;
#X coords 0 1 88199 -1 200 140 1;
#X restore 24 119 graph;
#N canvas 0 22 450 300 (subpatch) 0;
#X array \$0-array4 1.2348e+06 float 4 black black;
#X coords 0 1 1.2348e+06 -1 200 140 1;
#X restore 246 119 graph;
#X restore 459 -54 pd tables;
#X obj 16 251 sel 0 1 2 3;
#X obj 195 -18 route 0 1 2 3;
#X obj 16 345 f;
#X obj 51 345 f;
#X obj 86 345 f;
#X obj 121 345 f;
#N canvas 0 22 450 300 array1 0;
#X obj 45 94 soundfiler;
#X obj 45 36 pack symbol \$0;
#X obj 45 7 inlet;
#X obj 45 152 outlet;
#X msg 45 65 read -resize \$1 \$0-array1;
#X connect 0 0 3 0;
#X connect 1 0 4 0;
#X connect 2 0 1 0;
#X connect 4 0 0 0;
#X restore 195 17 pd array1;
#N canvas 0 22 450 300 array2 0;
#X obj 45 94 soundfiler;
#X obj 45 36 pack symbol \$0;
#X obj 45 7 inlet;
#X obj 45 152 outlet;
#X msg 45 65 read -resize \$1 \$0-array2;
#X connect 0 0 3 0;
#X connect 1 0 4 0;
#X connect 2 0 1 0;
#X connect 4 0 0 0;
#X restore 217 74 pd array2;
#N canvas 0 22 450 300 array3 0;
#X obj 45 94 soundfiler;
#X obj 45 36 pack symbol \$0;
#X obj 45 7 inlet;
#X obj 45 152 outlet;
#X msg 45 65 read -resize \$1 \$0-array3;
#X connect 0 0 3 0;
#X connect 1 0 4 0;
#X connect 2 0 1 0;
#X connect 4 0 0 0;
#X restore 239 121 pd array3;
#N canvas 0 22 450 300 array4 0;
#X obj 45 94 soundfiler;
#X obj 45 36 pack symbol \$0;
#X obj 45 7 inlet;
#X obj 45 152 outlet;
#X msg 45 65 read -resize \$1 \$0-array4;
#X connect 0 0 3 0;
#X connect 1 0 4 0;
#X connect 2 0 1 0;
#X connect 4 0 0 0;
#X restore 274 182 pd array4;
#X obj 16 612 phasor~;
#X obj 16 647 *~;
#X obj 16 422 t f b;
#X obj 48 467 spigot;
#X obj 87 440 tgl 15 0 empty empty enable\ random\ playback\ point
17 7 0 10 -262144 -1 -1 0 1;
#X obj 46 491 random_noise;
#X obj 16 901 tabread4~ \$0-array1;
#X obj 72 933 tabread4~ \$0-array1;
#X obj 16 -23 unpack f f;
#X obj 83 11 t f f f;
#X obj 129 74 s \$0-on;
#X obj 129 41 route 1;
#N canvas 74 74 1158 781 envelope1 0;
#X obj 353 -378 timer;
#X obj 423 -388 +;
#X obj 423 -417 f;
#X obj 352 -452 t b b;
#X obj 354 -285 >= 0;
#X obj 354 -330 t f f;
#X obj 312 -141 f;
#X msg 312 -108 0 \$1;
#X obj 454 -169 f;
#X obj 454 -144 pack f f f;
#X obj 313 -55 vline~;
#X obj 354 -256 sel 0 1;
#X msg 454 -115 \$1 \$2 \, 0 \$3 \$2;
#X obj 354 -353 expr $f2-$f1;
#X obj 482 -308 min;
#X obj 482 -287 min;
#X text 121 -374 [attack \, decay \, sustain];
#X text 357 -560 [release];
#X obj 150 -141 pack f f f f f;
#X msg 150 -116 \$1 \$2 \, \$3 \$4 \$5;
#X obj 199 -247 *;
#X obj 141 -292 t f f;
#X obj 547 -230 *;
#X obj 313 -35 outlet~;
#X obj 352 -490 sel 1 0;
#X obj 96 -634 inlet velocity;
#X obj 154 -589 inlet A;
#X obj 205 -591 inlet D;
#X obj 255 -591 inlet S;
#X obj 308 -598 inlet R;
#X obj 947 -549 unpack \$1 \$2 \$3 \$4;
#X obj 876 -578 loadbang;
#X obj 352 -511 > 0;
#X obj 114 -323 sel 0;
#X text 670 -626 inlets for individual parameters;
#X text 948 -590 creation arguments for ADSR;
#X text 648 -486 Note that the midi standard is for full velocity to
be 127 \, so that's what we are expecting at our inlet \, and then
we scale by dividing by 127 You can change this so that the patch just
accepts 0->1 scale directly if that is easier for you and you don't
want to follow midi standards.;
#X text 648 -408 The attack \, decay and release are all accepting
millisecond values \, as that seems the clearest way \, but again \,
if you prefer to use midi standards \, or scale 0->1 \, then that is
an easy modification.;
#X text 646 -347 Sustain here takes a 0->1 value. You can change that
too \, depending on what type of controller you wish to use.;
#X obj 122 -471 unpack \$1 \$2 \$3 \$4;
#X obj 123 -519 loadbang;
#X obj 97 -589 / 1;
#X obj 97 -613 clip 0 1;
#X connect 0 0 13 0;
#X connect 1 0 13 1;
#X connect 2 0 1 0;
#X connect 3 0 0 0;
#X connect 3 1 2 0;
#X connect 4 0 11 0;
#X connect 5 0 4 0;
#X connect 5 1 14 0;
#X connect 6 0 7 0;
#X connect 7 0 10 0;
#X connect 8 0 9 0;
#X connect 9 0 12 0;
#X connect 10 0 23 0;
#X connect 11 0 6 0;
#X connect 11 1 8 0;
#X connect 12 0 10 0;
#X connect 13 0 5 0;
#X connect 14 0 15 0;
#X connect 15 0 9 1;
#X connect 18 0 19 0;
#X connect 19 0 10 0;
#X connect 20 0 18 2;
#X connect 21 0 18 0;
#X connect 21 1 20 0;
#X connect 22 0 8 1;
#X connect 24 0 3 0;
#X connect 24 1 0 1;
#X connect 25 0 42 0;
#X connect 26 0 18 1;
#X connect 26 0 18 4;
#X connect 26 0 2 1;
#X connect 27 0 18 3;
#X connect 27 0 14 1;
#X connect 27 0 1 1;
#X connect 28 0 20 1;
#X connect 28 0 22 1;
#X connect 29 0 6 1;
#X connect 29 0 9 2;
#X connect 29 0 15 1;
#X connect 31 0 30 0;
#X connect 32 0 24 0;
#X connect 33 1 21 0;
#X connect 39 0 18 1;
#X connect 39 0 18 4;
#X connect 39 0 2 1;
#X connect 39 1 18 3;
#X connect 39 1 1 1;
#X connect 39 1 14 1;
#X connect 39 2 20 1;
#X connect 39 2 22 1;
#X connect 39 3 6 1;
#X connect 39 3 9 2;
#X connect 39 3 15 1;
#X connect 40 0 39 0;
#X connect 41 0 33 0;
#X connect 41 0 22 0;
#X connect 41 0 32 0;
#X connect 42 0 41 0;
#X restore 345 536 pd envelope1;
#X obj 16 993 *~;
#X obj 72 993 *~;
#N canvas 495 23 450 300 env_snapshot 0;
#X obj 34 24 snapshot~;
#X obj 125 -21 metro 100;
#X obj 34 53 change;
#X obj 34 82 sel 0;
#X obj 125 -52 loadbang;
#X obj 34 -51 inlet~;
#X obj 34 172 outlet;
#X obj 143 172 outlet;
#X obj 193 -52 bng 15 250 50 0 empty empty empty 17 7 0 10 -262144
-1 -1;
#X connect 0 0 2 0;
#X connect 0 0 7 0;
#X connect 1 0 0 0;
#X connect 2 0 3 0;
#X connect 3 0 6 0;
#X connect 4 0 1 0;
#X connect 5 0 0 0;
#X connect 8 0 1 0;
#X restore 352 564 pd env_snapshot;
#X obj 352 594 t b b;
#X floatatom 471 588 5 0 0 0 - - -, f 5;
#X obj 363 -54 inlet ADSR;
#X obj 363 465 unpack f f f f;
#X obj 352 671 s \$0-off;
#X obj 352 623 del 100;
#X msg 85 529 0;
#X obj 85 558 t f f;
#X obj 72 1036 outlet~;
#X obj 21 170 random_no_repeat;
#X msg 130 136 4;
#X obj 34 42 route 1;
#X obj 21 199 t f f;
#X obj 130 109 loadbang;
#X obj 57 777 *~;
#X obj 75 737 line~;
#X obj 75 648 == 0;
#X obj 109 777 *~;
#X obj 127 737 line~;
#X obj 160 777 *~;
#X obj 178 737 line~;
#X obj 212 777 *~;
#X obj 230 737 line~;
#X obj 127 648 == 2;
#X obj 178 648 == 3;
#X obj 230 648 == 4;
#X obj 222 901 tabread4~ \$0-array2;
#X obj 278 933 tabread4~ \$0-array2;
#X obj 428 901 tabread4~ \$0-array3;
#X obj 484 933 tabread4~ \$0-array3;
#X obj 610 901 tabread4~ \$0-array4;
#X obj 666 933 tabread4~ \$0-array4;
#X msg 75 709 \$1 1;
#X msg 127 709 \$1 1;
#X msg 178 709 \$1 1;
#X msg 230 709 \$1 1;
#X obj 724 -5 loadbang;
#X obj 494 721 osc~ 440;
#X obj 75 677 change;
#X obj 127 678 change;
#X obj 179 677 change;
#X obj 230 679 change;
#X msg 152 479 0;
#X obj 264 233 expr 44100 / $f1;
#X obj 242 145 expr 44100 / $f1;
#X obj 220 98 expr 44100 / $f1;
#X obj 195 42 expr 44100 / $f1;
#X obj 160 343 f;
#X obj 195 343 f;
#X obj 230 343 f;
#X obj 286 349 f;
#X connect 0 0 4 0;
#X connect 1 0 4 0;
#X connect 5 0 10 0;
#X connect 6 0 27 0;
#X connect 9 0 11 0;
#X connect 9 0 82 0;
#X connect 9 1 12 0;
#X connect 9 1 83 0;
#X connect 9 2 13 0;
#X connect 9 2 84 0;
#X connect 9 3 14 0;
#X connect 9 3 85 0;
#X connect 10 0 15 0;
#X connect 10 1 16 0;
#X connect 10 2 17 0;
#X connect 10 3 18 0;
#X connect 11 0 21 0;
#X connect 12 0 21 0;
#X connect 13 0 21 0;
#X connect 14 0 21 0;
#X connect 15 0 81 0;
#X connect 15 0 82 1;
#X connect 16 0 80 0;
#X connect 16 0 83 1;
#X connect 17 0 79 0;
#X connect 17 0 84 1;
#X connect 18 0 78 0;
#X connect 18 0 85 1;
#X connect 19 0 20 0;
#X connect 20 0 49 0;
#X connect 20 0 56 0;
#X connect 20 0 54 0;
#X connect 20 0 52 0;
#X connect 21 0 19 0;
#X connect 21 1 22 0;
#X connect 21 1 77 0;
#X connect 22 0 24 0;
#X connect 23 0 22 1;
#X connect 24 0 19 1;
#X connect 25 0 32 0;
#X connect 26 0 33 0;
#X connect 27 1 28 0;
#X connect 28 0 31 0;
#X connect 28 1 46 0;
#X connect 28 2 30 0;
#X connect 30 0 29 0;
#X connect 31 0 32 1;
#X connect 31 0 33 1;
#X connect 31 0 34 0;
#X connect 32 0 7 0;
#X connect 33 0 43 0;
#X connect 34 0 35 0;
#X connect 34 1 36 0;
#X connect 35 0 40 0;
#X connect 35 1 41 0;
#X connect 37 0 38 0;
#X connect 38 0 31 1;
#X connect 38 1 31 2;
#X connect 38 2 31 3;
#X connect 38 3 31 4;
#X connect 40 0 39 0;
#X connect 41 0 42 0;
#X connect 42 0 19 1;
#X connect 42 1 19 0;
#X connect 44 0 47 0;
#X connect 45 0 44 1;
#X connect 46 0 44 0;
#X connect 47 0 9 0;
#X connect 47 1 51 0;
#X connect 47 1 60 0;
#X connect 47 1 59 0;
#X connect 47 1 58 0;
#X connect 48 0 45 0;
#X connect 49 0 25 0;
#X connect 49 0 26 0;
#X connect 50 0 49 1;
#X connect 51 0 73 0;
#X connect 52 0 61 0;
#X connect 52 0 62 0;
#X connect 53 0 52 1;
#X connect 54 0 63 0;
#X connect 54 0 64 0;
#X connect 55 0 54 1;
#X connect 56 0 65 0;
#X connect 56 0 66 0;
#X connect 57 0 56 1;
#X connect 58 0 74 0;
#X connect 59 0 75 0;
#X connect 60 0 76 0;
#X connect 61 0 32 0;
#X connect 62 0 33 0;
#X connect 63 0 32 0;
#X connect 64 0 33 0;
#X connect 65 0 32 0;
#X connect 66 0 33 0;
#X connect 67 0 50 0;
#X connect 68 0 53 0;
#X connect 69 0 55 0;
#X connect 70 0 57 0;
#X connect 71 0 0 0;
#X connect 73 0 67 0;
#X connect 74 0 68 0;
#X connect 75 0 69 0;
#X connect 76 0 70 0;
#X connect 77 0 19 1;
#X connect 78 0 14 1;
#X connect 79 0 13 1;
#X connect 80 0 12 1;
#X connect 81 0 11 1;
#X connect 82 0 20 1;
#X connect 83 0 20 1;
#X connect 84 0 20 1;
#X connect 85 0 20 1;
#X restore 1494 344 pd RR_polyphonic;
#X msg 963 183 1 cell2.wav;
#X msg 1479 250 0 1.wav;
#X msg 1354 229 1;
#X obj 1354 287 pack f f;
#X obj 1363 185 metro 2000;
#X obj 1366 149 tgl 15 0 empty empty empty 17 7 0 10 -262144 -1 -1
0 1;
#X msg 1594 308 10 5000 1 1000;
#X obj 1354 258 makenote 1 1000;
#X msg 1537 250 1 3.wav;
#X msg 1595 250 2 4.wav;
#X msg 1653 250 3 cell2.wav;
#N canvas 512 48 566 398 fader 0;
#X obj 50 18 inlet~;
#X obj 72 309 outlet~;
#X obj 188 108 vsl 15 80 0 1 0 1 empty empty empty 0 -9 0 10 -262144
-1 -1 7022 1;
#X obj 110 18 inlet~;
#X obj 134 309 outlet~;
#X obj 300 135 expr round($f1);
#X obj 300 161 * 0.01;
#X floatatom 188 197 5 0 0 0 - - -, f 5;
#X obj 213 108 bng 15 250 50 0 empty empty unity 0 20 0 10 -262144
-1 -1;
#X obj 213 145 tgl 15 1 empty empty mute 0 20 0 10 -262144 -1 -1 0
1;
#X obj 300 109 expr ((90 * $f1 + -80) * 100) + 0.4;
#X msg 233 51 0.8889;
#X obj 75 240 fader_backend;
#X connect 2 0 10 0;
#X connect 5 0 6 0;
#X connect 6 0 7 0;
#X connect 6 0 12 3;
#X connect 8 0 11 0;
#X connect 9 0 12 2;
#X connect 10 0 5 0;
#X connect 11 0 2 0;
#X connect 12 0 1 0;
#X connect 12 1 4 0;
#X coords 0 -1 1 1 72 135 1 181 88;
#X restore 726 370 pd fader;
#X text 1102 346 polyphonic cyclic triggering sample (round robins)
>;
#X text 530 336 cyclic oneshot triggering >;
#X obj 343 49 sel 1;
#X obj 905 276 pack float symbol \$0;
#X msg 342 230 next \$1;
#X obj 296 9 t f f;
#X obj 350 82 random_no_repeat;
#X msg 461 56 4;
#X obj 351 116 sel 0 1 2 3;
#X obj 461 34 loadbang;
#X floatatom 490 114 5 0 0 0 - - -, f 5;
#X obj 1499 579 throw~ L;
#X obj 1569 579 throw~ R;
#N canvas 512 48 566 398 fader 0;
#X obj 50 18 inlet~;
#X obj 72 309 outlet~;
#X obj 188 108 vsl 15 80 0 1 0 1 empty empty empty 0 -9 0 10 -262144
-1 -1 7022 1;
#X obj 110 18 inlet~;
#X obj 134 309 outlet~;
#X obj 300 135 expr round($f1);
#X obj 300 161 * 0.01;
#X floatatom 188 197 5 0 0 0 - - -, f 5;
#X obj 213 108 bng 15 250 50 0 empty empty unity 0 20 0 10 -262144
-1 -1;
#X obj 213 145 tgl 15 1 empty empty mute 0 20 0 10 -262144 -1 -1 0
1;
#X obj 300 109 expr ((90 * $f1 + -80) * 100) + 0.4;
#X msg 233 51 0.8889;
#X obj 75 240 fader_backend;
#X connect 2 0 10 0;
#X connect 5 0 6 0;
#X connect 6 0 7 0;
#X connect 6 0 12 3;
#X connect 8 0 11 0;
#X connect 9 0 12 2;
#X connect 10 0 5 0;
#X connect 11 0 2 0;
#X connect 12 0 1 0;
#X connect 12 1 4 0;
#X coords 0 -1 1 1 72 135 1 181 88;
#X restore 1498 390 pd fader;
#X obj 1591 164 loadbang;
#X text 29 362 polyphonic single sample >;
#X obj 183 437 fader;
#X obj 369 538 osc~ 440;
#X obj 377 569 *~ 1;
#X msg 307 165 1.wav;
#X msg 379 165 2.wav;
#X msg 451 165 3.wav;
#X msg 523 165 4.wav;
#X msg 378 358 all \$1;
#X obj 384 312 tgl 15 0 empty empty empty 17 7 0 10 -262144 -1 -1 0
1;
#X connect 1 0 0 0;
#X connect 5 0 54 0;
#X connect 6 0 18 0;
#X connect 7 0 19 0;
#X connect 8 0 17 0;
#X connect 9 0 10 0;
#X connect 10 0 11 0;
#X connect 11 0 66 0;
#X connect 11 1 66 1;
#X connect 12 0 11 2;
#X connect 13 0 16 0;
#X connect 14 0 1 0;
#X connect 16 0 12 0;
#X connect 17 0 6 0;
#X connect 18 0 7 0;
#X connect 18 1 55 0;
#X connect 19 0 9 0;
#X connect 19 1 10 1;
#X connect 19 2 10 2;
#X connect 20 0 36 1;
#X connect 21 0 24 0;
#X connect 22 0 24 0;
#X connect 23 0 24 0;
#X connect 24 0 20 0;
#X connect 24 0 53 0;
#X connect 25 0 36 0;
#X connect 26 0 21 0;
#X connect 26 0 23 0;
#X connect 26 0 22 0;
#X connect 26 0 38 0;
#X connect 26 0 28 0;
#X connect 27 0 25 0;
#X connect 28 0 27 1;
#X connect 29 0 27 0;
#X connect 34 0 2 0;
#X connect 34 0 2 2;
#X connect 35 0 2 1;
#X connect 35 0 2 3;
#X connect 36 0 49 0;
#X connect 37 0 63 0;
#X connect 37 1 63 1;
#X connect 38 0 24 0;
#X connect 39 0 37 1;
#X connect 40 0 45 0;
#X connect 41 0 37 0;
#X connect 42 0 40 0;
#X connect 43 0 42 0;
#X connect 44 0 37 2;
#X connect 45 0 41 0;
#X connect 45 1 41 1;
#X connect 46 0 37 1;
#X connect 47 0 37 1;
#X connect 48 0 37 1;
#X connect 49 0 32 0;
#X connect 49 1 33 0;
#X connect 52 0 56 0;
#X connect 54 0 11 1;
#X connect 55 0 7 1;
#X connect 55 1 52 0;
#X connect 56 0 58 0;
#X connect 56 0 60 0;
#X connect 57 0 56 1;
#X connect 58 0 69 0;
#X connect 58 1 70 0;
#X connect 58 2 71 0;
#X connect 58 3 72 0;
#X connect 59 0 57 0;
#X connect 63 0 61 0;
#X connect 63 1 62 0;
#X connect 64 0 39 0;
#X connect 64 0 48 0;
#X connect 64 0 47 0;
#X connect 64 0 46 0;
#X connect 64 0 44 0;
#X connect 66 0 30 0;
#X connect 66 1 31 0;
#X connect 67 0 68 0;
#X connect 69 0 5 0;
#X connect 70 0 5 0;
#X connect 71 0 5 0;
#X connect 72 0 5 0;
#X connect 73 0 11 3;
#X connect 74 0 73 0;
