#N canvas 1055 22 694 412 10;
#N canvas 74 74 1158 781 envelope1 0;
#X obj 353 -378 timer;
#X obj 423 -388 +;
#X obj 423 -417 f;
#X obj 352 -452 t b b;
#X obj 354 -285 >= 0;
#X obj 354 -330 t f f;
#X obj 312 -141 f;
#X msg 312 -108 0 \$1;
#X obj 454 -169 f;
#X obj 454 -144 pack f f f;
#X obj 354 -256 sel 0 1;
#X msg 454 -115 \$1 \$2 \, 0 \$3 \$2;
#X obj 354 -353 expr $f2-$f1;
#X obj 482 -308 min;
#X obj 482 -287 min;
#X text 121 -374 [attack \, decay \, sustain];
#X text 357 -560 [release];
#X obj 150 -141 pack f f f f f;
#X msg 150 -116 \$1 \$2 \, \$3 \$4 \$5;
#X obj 199 -247 *;
#X obj 141 -292 t f f;
#X obj 547 -230 *;
#X obj 352 -490 sel 1 0;
#X obj 96 -634 inlet velocity;
#X obj 154 -589 inlet A;
#X obj 205 -591 inlet D;
#X obj 255 -591 inlet S;
#X obj 308 -598 inlet R;
#X obj 947 -549 unpack \$1 \$2 \$3 \$4;
#X obj 876 -578 loadbang;
#X obj 352 -511 > 0;
#X obj 114 -323 sel 0;
#X text 670 -626 inlets for individual parameters;
#X text 948 -590 creation arguments for ADSR;
#X text 648 -486 Note that the midi standard is for full velocity to
be 127 \, so that's what we are expecting at our inlet \, and then
we scale by dividing by 127 You can change this so that the patch just
accepts 0->1 scale directly if that is easier for you and you don't
want to follow midi standards.;
#X text 648 -408 The attack \, decay and release are all accepting
millisecond values \, as that seems the clearest way \, but again \,
if you prefer to use midi standards \, or scale 0->1 \, then that is
an easy modification.;
#X text 646 -347 Sustain here takes a 0->1 value. You can change that
too \, depending on what type of controller you wish to use.;
#X obj 122 -471 unpack \$1 \$2 \$3 \$4;
#X obj 123 -519 loadbang;
#X obj 97 -589 / 1;
#X obj 97 -613 clip 0 1;
#X obj 313 -55 line;
#X obj 313 -35 outlet;
#X connect 0 0 12 0;
#X connect 1 0 12 1;
#X connect 2 0 1 0;
#X connect 3 0 0 0;
#X connect 3 1 2 0;
#X connect 4 0 10 0;
#X connect 5 0 4 0;
#X connect 5 1 13 0;
#X connect 6 0 7 0;
#X connect 7 0 41 0;
#X connect 8 0 9 0;
#X connect 9 0 11 0;
#X connect 10 0 6 0;
#X connect 10 1 8 0;
#X connect 11 0 41 0;
#X connect 12 0 5 0;
#X connect 13 0 14 0;
#X connect 14 0 9 1;
#X connect 17 0 18 0;
#X connect 18 0 41 0;
#X connect 19 0 17 2;
#X connect 20 0 17 0;
#X connect 20 1 19 0;
#X connect 21 0 8 1;
#X connect 22 0 3 0;
#X connect 22 1 0 1;
#X connect 23 0 40 0;
#X connect 24 0 17 1;
#X connect 24 0 17 4;
#X connect 24 0 2 1;
#X connect 25 0 17 3;
#X connect 25 0 13 1;
#X connect 25 0 1 1;
#X connect 26 0 19 1;
#X connect 26 0 21 1;
#X connect 27 0 6 1;
#X connect 27 0 9 2;
#X connect 27 0 14 1;
#X connect 29 0 28 0;
#X connect 30 0 22 0;
#X connect 31 1 20 0;
#X connect 37 0 17 1;
#X connect 37 0 17 4;
#X connect 37 0 2 1;
#X connect 37 1 17 3;
#X connect 37 1 1 1;
#X connect 37 1 13 1;
#X connect 37 2 19 1;
#X connect 37 2 21 1;
#X connect 37 3 6 1;
#X connect 37 3 9 2;
#X connect 37 3 14 1;
#X connect 38 0 37 0;
#X connect 39 0 31 0;
#X connect 39 0 21 0;
#X connect 39 0 30 0;
#X connect 40 0 39 0;
#X connect 41 0 42 0;
#X restore 131 146 pd envelope1;
#X obj 152 100 unpack f f f f;
#X obj 60 10 inlet;
#X obj 131 259 outlet;
#X obj 131 172 > 0;
#X msg 79 104 1;
#X msg 103 104 0;
#X obj 131 217 change;
#X obj 163 7 inlet;
#X connect 0 0 4 0;
#X connect 1 0 0 1;
#X connect 1 1 0 2;
#X connect 1 2 0 3;
#X connect 1 3 0 4;
#X connect 2 0 0 0;
#X connect 4 0 7 0;
#X connect 5 0 0 0;
#X connect 6 0 0 0;
#X connect 7 0 3 0;
#X connect 8 0 1 0;
