#N canvas 7 188 842 538 10;
#X obj 121 273 *~;
#X obj 121 95 mtof;
#X obj 122 -11 inlet;
#X obj 121 194 osc~;
#X obj 121 395 outlet~;
#X obj 50 -26 inlet;
#X obj 121 365 *~ 1;
#X obj 701 99 switch~;
#X floatatom 759 99 5 0 0 0 - - -, f 5;
#X msg 701 60 1;
#X msg 731 60 0;
#X obj 701 -84 r \$0-on;
#X obj 731 -65 r \$0-off;
#X obj 256 -7 s \$0-on;
#X obj 175 374 s \$0-off;
#N canvas 495 23 450 300 env_snapshot 0;
#X obj 34 24 snapshot~;
#X obj 125 -21 metro 100;
#X obj 34 53 change;
#X obj 34 82 sel 0;
#X obj 125 -52 loadbang;
#X obj 34 -51 inlet~;
#X obj 34 172 outlet;
#X obj 143 172 outlet;
#X obj 193 -52 bng 15 250 50 0 empty empty empty 17 7 0 10 -262144
-1 -1;
#X obj 34 107 del 100;
#X connect 0 0 2 0;
#X connect 0 0 7 0;
#X connect 1 0 0 0;
#X connect 2 0 3 0;
#X connect 3 0 9 0;
#X connect 4 0 1 0;
#X connect 5 0 0 0;
#X connect 8 0 1 0;
#X connect 9 0 6 0;
#X restore 175 334 pd env_snapshot;
#X floatatom 262 374 5 0 0 0 - - -, f 5;
#X obj 121 318 *~;
#N canvas 495 23 503 349 env~ 0;
#X obj 150 317 outlet~;
#X obj 150 16 inlet;
#X msg 150 237 1 500;
#X obj 150 92 > 0;
#X obj 150 117 change;
#X obj 150 142 route 1 0;
#X obj 201 210 pack f f;
#X msg 201 237 0 \$2;
#X obj 246 182 scaler;
#X obj 280 112 loadbang;
#X floatatom 150 46 5 0 0 0 - - -, f 5;
#X obj 208 109 line;
#X obj 150 284 line~;
#X floatatom 293 212 5 0 0 0 - - -, f 5;
#X obj 208 84 pack f 100;
#X msg 280 148 0 1 400 6000;
#X connect 1 0 10 0;
#X connect 2 0 12 0;
#X connect 3 0 4 0;
#X connect 4 0 5 0;
#X connect 5 0 2 0;
#X connect 5 1 6 0;
#X connect 6 0 7 0;
#X connect 7 0 12 0;
#X connect 8 0 6 1;
#X connect 8 0 13 0;
#X connect 9 0 15 0;
#X connect 10 0 3 0;
#X connect 10 0 14 0;
#X connect 11 0 8 0;
#X connect 12 0 0 0;
#X connect 14 0 11 0;
#X connect 15 0 8 1;
#X restore 163 285 pd env~;
#X obj 50 -1 t f f f;
#X obj 186 122 timer_ramp;
#X obj 186 77 > 0;
#X obj 186 177 scaler;
#X msg 245 94 5000;
#X obj 279 63 loadbang;
#X obj 186 202 line~;
#X obj 701 -41 > 0;
#X obj 701 -16 change;
#X obj 701 9 route 1;
#X obj 126 146 +~;
#X obj 384 134 *~;
#X obj 351 90 osc~ 196;
#X obj 457 105 timer_ramp;
#X obj 550 46 loadbang;
#X msg 516 77 1000;
#X obj 470 163 scaler;
#X msg 511 137 0 1 0 2000;
#X msg 227 151 0 1 0.4 0.7;
#X obj 457 60 > 0.3;
#X connect 0 0 17 0;
#X connect 1 0 29 0;
#X connect 2 0 1 0;
#X connect 3 0 0 0;
#X connect 5 0 19 0;
#X connect 6 0 4 0;
#X connect 9 0 7 0;
#X connect 9 0 8 0;
#X connect 10 0 8 0;
#X connect 10 0 7 0;
#X connect 11 0 26 0;
#X connect 12 0 10 0;
#X connect 15 0 14 0;
#X connect 15 1 16 0;
#X connect 17 0 6 0;
#X connect 18 0 17 1;
#X connect 18 0 15 0;
#X connect 19 0 18 0;
#X connect 19 0 38 0;
#X connect 19 1 21 0;
#X connect 19 2 13 0;
#X connect 20 0 22 0;
#X connect 21 0 20 0;
#X connect 22 0 25 0;
#X connect 23 0 20 1;
#X connect 24 0 23 0;
#X connect 24 0 37 0;
#X connect 25 0 0 1;
#X connect 26 0 27 0;
#X connect 27 0 28 0;
#X connect 28 0 9 0;
#X connect 29 0 3 0;
#X connect 30 0 29 1;
#X connect 31 0 30 0;
#X connect 32 0 35 0;
#X connect 33 0 34 0;
#X connect 33 0 36 0;
#X connect 34 0 32 1;
#X connect 35 0 30 1;
#X connect 36 0 35 1;
#X connect 37 0 22 1;
#X connect 38 0 32 0;
