#N canvas 272 163 339 464 10;
#X obj 57 46 inlet;
#X obj 57 415 outlet;
#X floatatom 58 296 5 0 0 1 true_value - -, f 5;
#X floatatom 58 375 5 0 0 0 - - -, f 5;
#X obj 58 320 change;
#X connect 0 0 2 0;
#X connect 2 0 4 0;
#X connect 3 0 1 0;
#X connect 4 0 3 0;
