#N canvas 412 166 1019 374 10;
#X obj 47 171 expr ($f3 - $f2) * ($f1 - $f4) / ($f5 - $f4) + $f2;
#X msg 269 134 0;
#X msg 344 134 1;
#X text 285 105 input range;
#X text 151 105 scale range;
#X floatatom 47 112 5 0 0 0 - - -, f 5;
#X obj 47 51 inlet;
#X obj 47 257 outlet;
#X obj 269 7 inlet;
#X obj 47 205 clip 0 1;
#X floatatom 47 230 5 0 0 0 - - -, f 5;
#X msg 121 134 0;
#X msg 195 134 1;
#X obj 269 48 unpack f f f f;
#X connect 0 0 9 0;
#X connect 1 0 0 3;
#X connect 2 0 0 4;
#X connect 5 0 0 0;
#X connect 6 0 5 0;
#X connect 8 0 13 0;
#X connect 9 0 10 0;
#X connect 10 0 7 0;
#X connect 11 0 0 1;
#X connect 12 0 0 2;
#X connect 13 0 0 3;
#X connect 13 1 0 4;
#X connect 13 2 0 1;
#X connect 13 3 0 2;
