#N canvas 79 74 1116 965 10;
#X obj 95 435 readsf~ 2;
#X msg 164 295 0;
#X msg 95 295 1;
#X obj 179 358 list;
#X obj 179 389 route list;
#X obj 95 333 t f b;
#X obj 95 547 outlet~;
#X obj 157 547 outlet~;
#X obj 285 16 inlet;
#X obj 95 16 inlet;
#N canvas 74 74 1158 781 envelope1 0;
#X obj 353 -378 timer;
#X obj 423 -388 +;
#X obj 423 -417 f;
#X obj 352 -452 t b b;
#X obj 354 -285 >= 0;
#X obj 354 -330 t f f;
#X obj 312 -141 f;
#X msg 312 -108 0 \$1;
#X obj 454 -169 f;
#X obj 454 -144 pack f f f;
#X obj 313 -55 vline~;
#X obj 354 -256 sel 0 1;
#X msg 454 -115 \$1 \$2 \, 0 \$3 \$2;
#X obj 354 -353 expr $f2-$f1;
#X obj 482 -308 min;
#X obj 482 -287 min;
#X text 121 -374 [attack \, decay \, sustain];
#X text 357 -560 [release];
#X obj 150 -141 pack f f f f f;
#X msg 150 -116 \$1 \$2 \, \$3 \$4 \$5;
#X obj 199 -247 *;
#X obj 141 -292 t f f;
#X obj 547 -230 *;
#X obj 313 -35 outlet~;
#X obj 352 -490 sel 1 0;
#X obj 96 -634 inlet velocity;
#X obj 154 -589 inlet A;
#X obj 205 -591 inlet D;
#X obj 255 -591 inlet S;
#X obj 308 -598 inlet R;
#X obj 947 -549 unpack \$1 \$2 \$3 \$4;
#X obj 876 -578 loadbang;
#X obj 352 -511 > 0;
#X obj 114 -323 sel 0;
#X text 670 -626 inlets for individual parameters;
#X text 948 -590 creation arguments for ADSR;
#X text 648 -486 Note that the midi standard is for full velocity to
be 127 \, so that's what we are expecting at our inlet \, and then
we scale by dividing by 127 You can change this so that the patch just
accepts 0->1 scale directly if that is easier for you and you don't
want to follow midi standards.;
#X text 648 -408 The attack \, decay and release are all accepting
millisecond values \, as that seems the clearest way \, but again \,
if you prefer to use midi standards \, or scale 0->1 \, then that is
an easy modification.;
#X text 646 -347 Sustain here takes a 0->1 value. You can change that
too \, depending on what type of controller you wish to use.;
#X obj 122 -471 unpack \$1 \$2 \$3 \$4;
#X obj 123 -519 loadbang;
#X obj 97 -589 / 1;
#X obj 97 -613 clip 0 1;
#X connect 0 0 13 0;
#X connect 1 0 13 1;
#X connect 2 0 1 0;
#X connect 3 0 0 0;
#X connect 3 1 2 0;
#X connect 4 0 11 0;
#X connect 5 0 4 0;
#X connect 5 1 14 0;
#X connect 6 0 7 0;
#X connect 7 0 10 0;
#X connect 8 0 9 0;
#X connect 9 0 12 0;
#X connect 10 0 23 0;
#X connect 11 0 6 0;
#X connect 11 1 8 0;
#X connect 12 0 10 0;
#X connect 13 0 5 0;
#X connect 14 0 15 0;
#X connect 15 0 9 1;
#X connect 18 0 19 0;
#X connect 19 0 10 0;
#X connect 20 0 18 2;
#X connect 21 0 18 0;
#X connect 21 1 20 0;
#X connect 22 0 8 1;
#X connect 24 0 3 0;
#X connect 24 1 0 1;
#X connect 25 0 42 0;
#X connect 26 0 18 1;
#X connect 26 0 18 4;
#X connect 26 0 2 1;
#X connect 27 0 18 3;
#X connect 27 0 14 1;
#X connect 27 0 1 1;
#X connect 28 0 20 1;
#X connect 28 0 22 1;
#X connect 29 0 6 1;
#X connect 29 0 9 2;
#X connect 29 0 15 1;
#X connect 31 0 30 0;
#X connect 32 0 24 0;
#X connect 33 1 21 0;
#X connect 39 0 18 1;
#X connect 39 0 18 4;
#X connect 39 0 2 1;
#X connect 39 1 18 3;
#X connect 39 1 1 1;
#X connect 39 1 14 1;
#X connect 39 2 20 1;
#X connect 39 2 22 1;
#X connect 39 3 6 1;
#X connect 39 3 9 2;
#X connect 39 3 15 1;
#X connect 40 0 39 0;
#X connect 41 0 33 0;
#X connect 41 0 22 0;
#X connect 41 0 32 0;
#X connect 42 0 41 0;
#X restore 299 166 pd envelope1;
#N canvas 495 23 450 300 env_snapshot 0;
#X obj 34 24 snapshot~;
#X obj 125 -21 metro 100;
#X obj 34 53 change;
#X obj 34 82 sel 0;
#X obj 125 -52 loadbang;
#X obj 34 -51 inlet~;
#X obj 34 172 outlet;
#X obj 143 172 outlet;
#X obj 193 -52 bng 15 250 50 0 empty empty empty 17 7 0 10 -262144
-1 -1;
#X connect 0 0 2 0;
#X connect 0 0 7 0;
#X connect 1 0 0 0;
#X connect 2 0 3 0;
#X connect 3 0 6 0;
#X connect 4 0 1 0;
#X connect 5 0 0 0;
#X connect 8 0 1 0;
#X restore 306 194 pd env_snapshot;
#X obj 306 224 t b b;
#X floatatom 425 218 5 0 0 0 - - -, f 5;
#X obj 317 125 unpack f f f f;
#X obj 306 281 s \$0-off;
#X obj 306 253 del 100;
#X obj 892 124 switch~;
#X floatatom 950 124 5 0 0 0 - - -, f 5;
#X msg 892 95 1;
#X msg 922 95 0;
#X obj 892 51 r \$0-on;
#X obj 922 70 r \$0-off;
#X obj 134 74 route 1 0;
#X obj 134 103 s \$0-on;
#X obj 95 45 t f f f;
#X obj 95 184 route 1;
#X obj 381 25 inlet;
#X obj 92 483 *~;
#X obj 134 482 *~;
#X connect 0 0 28 0;
#X connect 0 1 29 0;
#X connect 0 2 2 0;
#X connect 1 0 0 0;
#X connect 2 0 5 0;
#X connect 3 0 4 0;
#X connect 4 0 0 0;
#X connect 5 0 0 0;
#X connect 5 1 3 0;
#X connect 8 0 3 1;
#X connect 9 0 25 0;
#X connect 10 0 11 0;
#X connect 10 0 29 1;
#X connect 10 0 28 1;
#X connect 11 0 12 0;
#X connect 11 1 13 0;
#X connect 12 0 16 0;
#X connect 12 1 1 0;
#X connect 14 0 10 1;
#X connect 14 1 10 2;
#X connect 14 2 10 3;
#X connect 14 3 10 4;
#X connect 16 0 15 0;
#X connect 19 0 17 0;
#X connect 19 0 18 0;
#X connect 20 0 18 0;
#X connect 20 0 17 0;
#X connect 21 0 19 0;
#X connect 22 0 20 0;
#X connect 23 0 24 0;
#X connect 25 0 10 0;
#X connect 25 1 26 0;
#X connect 25 2 23 0;
#X connect 26 0 2 0;
#X connect 27 0 14 0;
#X connect 28 0 6 0;
#X connect 29 0 7 0;
