#N canvas 622 220 1630 1175 10;
#X obj 45 -1439 inlet;
#X obj 426 -1439 inlet;
#X obj 637 -1439 inlet;
#X obj 222 -673 outlet~ L;
#X obj 305 -673 outlet~ R;
#X msg 557 -1113 all \$1 \$2 \$3 \$4;
#X obj 98 -1172 pack f f;
#X obj 98 -1104 - 1;
#X msg 100 -1350 1;
#X msg 131 -1350 0;
#X msg 99 -1217 1;
#X obj 98 -1142 poly 4 1;
#X obj 99 -1289 t b f f;
#X obj 142 -1264 sel 1;
#X obj 155 -1238 urn;
#X floatatom 155 -1216 5 0 0 0 - - -, f 5;
#X obj 426 -1167 unpack s s s s;
#X obj 219 -805 clone simplr 4;
#X obj 235 -1166 sel 0 1 2 3;
#X obj 98 -1017 pack 0 0 0;
#X msg 98 -995 \$1 \$3;
#X obj 272 -1091 list;
#X obj 316 -1091 list;
#X obj 360 -1091 list;
#X obj 404 -1091 list;
#X obj 782 -1414 inlet;
#X msg 782 -1083 all \$1;
#X obj 98 -1082 t f f;
#X obj 265 -1004 pack f s;
#X connect 0 0 12 0;
#X connect 1 0 16 0;
#X connect 2 0 5 0;
#X connect 5 0 17 2;
#X connect 6 0 11 0;
#X connect 7 0 27 0;
#X connect 8 0 12 0;
#X connect 9 0 12 0;
#X connect 10 0 6 0;
#X connect 11 0 7 0;
#X connect 11 1 19 1;
#X connect 11 2 19 2;
#X connect 12 0 10 0;
#X connect 12 1 6 1;
#X connect 12 2 13 0;
#X connect 13 0 14 0;
#X connect 14 0 15 0;
#X connect 15 0 18 0;
#X connect 16 0 21 1;
#X connect 16 1 22 1;
#X connect 16 2 23 1;
#X connect 16 3 24 1;
#X connect 17 0 3 0;
#X connect 17 1 4 0;
#X connect 18 0 21 0;
#X connect 18 1 22 0;
#X connect 18 2 23 0;
#X connect 18 3 24 0;
#X connect 19 0 20 0;
#X connect 20 0 17 0;
#X connect 21 0 28 1;
#X connect 22 0 28 1;
#X connect 23 0 28 1;
#X connect 24 0 28 1;
#X connect 25 0 26 0;
#X connect 26 0 17 3;
#X connect 27 0 19 0;
#X connect 27 1 28 0;
#X connect 28 0 17 1;
