#N canvas 1511 167 465 442 10;
#X obj 94 -177 moses 0.1;
#X obj 146 -136 moses 0.5;
#X obj 199 -83 moses 0.9;
#X text 152 -224 logic to pass scaled values;
#X obj 55 -217 moses 0;
#X obj 55 -304 inlet;
#X msg 37 -168 0;
#X msg 110 -137 0;
#X msg 170 -98 0;
#X msg 274 -54 0;
#X msg 214 -48 0;
#X msg 134 -100 0;
#X msg 69 -131 0;
#X obj 285 86 change;
#X obj 199 86 change;
#X obj 113 86 change;
#X obj 27 86 change;
#X obj 27 108 outlet;
#X obj 113 108 outlet;
#X obj 199 108 outlet;
#X obj 285 108 outlet;
#X connect 0 0 12 0;
#X connect 0 0 16 0;
#X connect 0 1 1 0;
#X connect 0 1 7 0;
#X connect 1 0 11 0;
#X connect 1 0 15 0;
#X connect 1 1 2 0;
#X connect 1 1 8 0;
#X connect 2 0 10 0;
#X connect 2 0 14 0;
#X connect 2 1 9 0;
#X connect 2 1 13 0;
#X connect 4 0 6 0;
#X connect 4 1 0 0;
#X connect 5 0 4 0;
#X connect 6 0 13 0;
#X connect 6 0 14 0;
#X connect 6 0 15 0;
#X connect 6 0 16 0;
#X connect 7 0 16 0;
#X connect 8 0 15 0;
#X connect 9 0 14 0;
#X connect 10 0 13 0;
#X connect 11 0 14 0;
#X connect 12 0 15 0;
#X connect 13 0 20 0;
#X connect 14 0 19 0;
#X connect 15 0 18 0;
#X connect 16 0 17 0;
