#N canvas 212 22 1701 1371 10;
#X declare -path ./components;
#X obj 36 32 declare -path ./components;
#X obj 764 266 list;
#X obj 665 213 loadbang;
#X obj 764 295 print touchSensor;
#X obj 701 -53 loadbang;
#X obj 914 147 r bela_trill;
#X obj 706 83 s bela_setTrill;
#X text 860 -35 First initialise the Trill sensor;
#X text 1027 177 This receives the reading from the Trill sensor.;
#X text 1031 213 Which will be prepended with the sensor_id;
#X text 1188 94 [prescaler <sensor_id> <value> (between 1 and 8);
#X text 1187 115 [threshold <sensor_id> <value>(between 0 and 1.0)
;
#X obj 914 184 route mycraft;
#X text 1779 -2 device that was successfully initialised. The message
;
#X text 1779 8 will contain: <sensor_id> <device> <mode> <address>
;
#X text 1778 -13 bela_trillCreated will receive a message for each
;
#X obj 1783 40 r bela_trillCreated;
#X obj 1783 69 print bela_trillCreated;
#X text 1187 74 We are also changing settings on initialisation:;
#X text 830 -2 Message: [new <sensor_id> <bus> <device> <address=255>(
;
#X obj 1862 117 loadbang;
#X text 1923 149 set DIFF thresholds;
#X obj 756 338 list;
#X text 790 316 Print Raw Values;
#X text 711 458 Print Binary / Filtered Values;
#X msg 435 70 updateBaseline mycraft;
#X obj 1862 174 s full_touch;
#X msg 1862 149 0.7;
#X obj 1862 255 s scale_down;
#X text 1958 240 amount to scale down each electrode;
#X obj 988 236 s unfiltered_data;
#X obj 552 -67 r unfiltered_data;
#N canvas 768 380 1450 977 reset_logic 0;
#X obj 200 14 inlet;
#X obj 38 198 unpack f f f f f f f f f;
#X obj 361 376 change;
#X obj 361 332 line;
#X obj 38 280 > 0.1;
#X obj 38 324 line;
#X obj 38 346 == 1;
#X obj 277 518 spigot;
#X obj 361 354 == 1;
#X obj 361 288 < 0.06;
#X msg 100 445 1, f 2;
#X msg 145 443 0;
#X obj 146 341 line;
#X obj 146 319 pack f 100;
#X obj 38 390 sel 1;
#X obj 38 368 change;
#X obj 146 363 change;
#X obj 145 385 sel 1;
#X obj 361 398 sel 1;
#X obj 195 198 unpack f f f f f f f f f;
#X obj 352 198 unpack f f f f f f f f f;
#X obj 146 289 == 0;
#X msg 363 595 1;
#X obj 200 67 t l l l l;
#X obj 570 195 unpack f f f f f f f f f;
#X obj 575 324 line;
#X obj 575 346 change;
#X obj 574 368 sel 1;
#X obj 575 272 == 0;
#X msg 449 591 0;
#X obj 449 613 t f f;
#X obj 383 812 outlet;
#X floatatom 447 26 5 0 0 0 - - -, f 5;
#X obj 361 310 pack f 0;
#N canvas 0 22 450 300 list-max 0;
#X obj 106 57 route float;
#X obj 131 187 f;
#X obj 77 343 outlet;
#X obj 133 308 f;
#X obj 133 345 outlet;
#X obj 77 224 t b b;
#X obj 77 -75 inlet;
#X obj 77 308 f;
#N canvas 0 22 450 300 once 0;
#X obj 110 75 inlet;
#X obj 105 187 spigot 1;
#X obj 110 104 t b f;
#X msg 125 151 0;
#X msg 165 99 1;
#X obj 165 63 inlet;
#X obj 102 219 outlet;
#X connect 0 0 2 0;
#X connect 1 0 6 0;
#X connect 2 0 3 0;
#X connect 2 1 1 0;
#X connect 3 0 1 1;
#X connect 4 0 1 1;
#X connect 5 0 4 0;
#X restore 198 135 pd once;
#X obj 92 187 max;
#X text 253 135 prime [min] and [max] with first item once;
#X obj 171 187 bang;
#X msg 300 187 0;
#X obj 126 223 change;
#X obj 158 281 f;
#X obj 126 252 bang;
#N canvas 917 609 301 314 cup 0;
#X obj 64 45 inlet;
#X obj 64 161 i;
#X obj 104 161 + 1;
#X obj 64 99 route bang setbang float;
#X obj 64 235 outlet;
#X connect 0 0 3 0;
#X connect 1 0 2 0;
#X connect 1 0 4 0;
#X connect 2 0 1 1;
#X connect 3 0 1 0;
#X connect 3 1 1 0;
#X connect 3 2 1 1;
#X restore 173 223 pd cup;
#N canvas 833 279 728 567 list-drip 0;
#X obj 73 94 t a a;
#X obj 73 251 spigot;
#X obj 112 159 bang;
#X obj 112 178 1;
#X obj 233 159 route bang;
#X obj 193 160 bang;
#X obj 193 179 0;
#X obj 112 124 list split 2;
#X obj 242 389 list split;
#X obj 309 338 list length;
#X obj 309 360 >> 1;
#X obj 73 270 t a a a a;
#X obj 73 456 list split;
#X obj 140 408 list length;
#X obj 140 433 >> 1;
#X obj 41 29 inlet;
#X obj 300 185 outlet;
#X text 83 29 Copyright 2009 by Mathieu Bouchard;
#X obj 41 63 t b a;
#X obj 475 129 outlet;
#X text 530 131 signal end of list;
#X text 391 33 made compatible with [list-drip]: fbar 2009;
#X connect 0 0 1 0;
#X connect 0 1 7 0;
#X connect 1 0 11 0;
#X connect 2 0 3 0;
#X connect 3 0 1 1;
#X connect 4 1 16 0;
#X connect 5 0 6 0;
#X connect 6 0 1 1;
#X connect 7 0 2 0;
#X connect 7 2 4 0;
#X connect 7 2 5 0;
#X connect 8 0 0 0;
#X connect 9 0 10 0;
#X connect 10 0 8 1;
#X connect 11 0 12 0;
#X connect 11 1 13 0;
#X connect 11 2 8 0;
#X connect 11 3 9 0;
#X connect 12 1 0 0;
#X connect 13 0 14 0;
#X connect 14 0 12 1;
#X connect 15 0 18 0;
#X connect 18 0 19 0;
#X connect 18 1 0 0;
#X restore 106 32 pd list-drip;
#X obj 77 -37 trigger b a b b;
#X obj 92 84 trigger a a a;
#X connect 0 0 19 0;
#X connect 1 0 9 1;
#X connect 3 0 4 0;
#X connect 5 0 7 0;
#X connect 5 1 3 0;
#X connect 6 0 18 0;
#X connect 7 0 2 0;
#X connect 8 0 9 1;
#X connect 9 0 1 0;
#X connect 9 0 7 1;
#X connect 9 0 13 0;
#X connect 11 0 16 0;
#X connect 12 0 14 0;
#X connect 12 0 16 0;
#X connect 13 0 15 0;
#X connect 14 0 3 1;
#X connect 15 0 14 0;
#X connect 16 0 14 1;
#X connect 17 0 0 0;
#X connect 18 0 5 0;
#X connect 18 1 17 0;
#X connect 18 2 8 1;
#X connect 18 3 12 0;
#X connect 19 0 9 0;
#X connect 19 1 11 0;
#X connect 19 2 8 0;
#X restore 47 162 pd list-max;
#N canvas 0 22 450 300 list-max 0;
#X obj 106 57 route float;
#X obj 131 187 f;
#X obj 77 343 outlet;
#X obj 133 308 f;
#X obj 133 345 outlet;
#X obj 77 224 t b b;
#X obj 77 -75 inlet;
#X obj 77 308 f;
#N canvas 0 22 450 300 once 0;
#X obj 110 75 inlet;
#X obj 105 187 spigot 1;
#X obj 110 104 t b f;
#X msg 125 151 0;
#X msg 165 99 1;
#X obj 165 63 inlet;
#X obj 102 219 outlet;
#X connect 0 0 2 0;
#X connect 1 0 6 0;
#X connect 2 0 3 0;
#X connect 2 1 1 0;
#X connect 3 0 1 1;
#X connect 4 0 1 1;
#X connect 5 0 4 0;
#X restore 198 135 pd once;
#X obj 92 187 max;
#X text 253 135 prime [min] and [max] with first item once;
#X obj 171 187 bang;
#X msg 300 187 0;
#X obj 126 223 change;
#X obj 158 281 f;
#X obj 126 252 bang;
#N canvas 917 609 301 314 cup 0;
#X obj 64 45 inlet;
#X obj 64 161 i;
#X obj 104 161 + 1;
#X obj 64 99 route bang setbang float;
#X obj 64 235 outlet;
#X connect 0 0 3 0;
#X connect 1 0 2 0;
#X connect 1 0 4 0;
#X connect 2 0 1 1;
#X connect 3 0 1 0;
#X connect 3 1 1 0;
#X connect 3 2 1 1;
#X restore 173 223 pd cup;
#N canvas 833 279 728 567 list-drip 0;
#X obj 73 94 t a a;
#X obj 73 251 spigot;
#X obj 112 159 bang;
#X obj 112 178 1;
#X obj 233 159 route bang;
#X obj 193 160 bang;
#X obj 193 179 0;
#X obj 112 124 list split 2;
#X obj 242 389 list split;
#X obj 309 338 list length;
#X obj 309 360 >> 1;
#X obj 73 270 t a a a a;
#X obj 73 456 list split;
#X obj 140 408 list length;
#X obj 140 433 >> 1;
#X obj 41 29 inlet;
#X obj 300 185 outlet;
#X text 83 29 Copyright 2009 by Mathieu Bouchard;
#X obj 41 63 t b a;
#X obj 475 129 outlet;
#X text 530 131 signal end of list;
#X text 391 33 made compatible with [list-drip]: fbar 2009;
#X connect 0 0 1 0;
#X connect 0 1 7 0;
#X connect 1 0 11 0;
#X connect 2 0 3 0;
#X connect 3 0 1 1;
#X connect 4 1 16 0;
#X connect 5 0 6 0;
#X connect 6 0 1 1;
#X connect 7 0 2 0;
#X connect 7 2 4 0;
#X connect 7 2 5 0;
#X connect 8 0 0 0;
#X connect 9 0 10 0;
#X connect 10 0 8 1;
#X connect 11 0 12 0;
#X connect 11 1 13 0;
#X connect 11 2 8 0;
#X connect 11 3 9 0;
#X connect 12 1 0 0;
#X connect 13 0 14 0;
#X connect 14 0 12 1;
#X connect 15 0 18 0;
#X connect 18 0 19 0;
#X connect 18 1 0 0;
#X restore 106 32 pd list-drip;
#X obj 77 -37 trigger b a b b;
#X obj 92 84 trigger a a a;
#X connect 0 0 19 0;
#X connect 1 0 9 1;
#X connect 3 0 4 0;
#X connect 5 0 7 0;
#X connect 5 1 3 0;
#X connect 6 0 18 0;
#X connect 7 0 2 0;
#X connect 8 0 9 1;
#X connect 9 0 1 0;
#X connect 9 0 7 1;
#X connect 9 0 13 0;
#X connect 11 0 16 0;
#X connect 12 0 14 0;
#X connect 12 0 16 0;
#X connect 13 0 15 0;
#X connect 14 0 3 1;
#X connect 15 0 14 0;
#X connect 16 0 14 1;
#X connect 17 0 0 0;
#X connect 18 0 5 0;
#X connect 18 1 17 0;
#X connect 18 2 8 1;
#X connect 18 3 12 0;
#X connect 19 0 9 0;
#X connect 19 1 11 0;
#X connect 19 2 8 0;
#X restore 199 160 pd list-max;
#N canvas 0 22 450 300 list-max 0;
#X obj 106 57 route float;
#X obj 131 187 f;
#X obj 77 343 outlet;
#X obj 133 308 f;
#X obj 133 345 outlet;
#X obj 77 224 t b b;
#X obj 77 -75 inlet;
#X obj 77 308 f;
#N canvas 0 22 450 300 once 0;
#X obj 110 75 inlet;
#X obj 105 187 spigot 1;
#X obj 110 104 t b f;
#X msg 125 151 0;
#X msg 165 99 1;
#X obj 165 63 inlet;
#X obj 102 219 outlet;
#X connect 0 0 2 0;
#X connect 1 0 6 0;
#X connect 2 0 3 0;
#X connect 2 1 1 0;
#X connect 3 0 1 1;
#X connect 4 0 1 1;
#X connect 5 0 4 0;
#X restore 198 135 pd once;
#X obj 92 187 max;
#X text 253 135 prime [min] and [max] with first item once;
#X obj 171 187 bang;
#X msg 300 187 0;
#X obj 126 223 change;
#X obj 158 281 f;
#X obj 126 252 bang;
#N canvas 917 609 301 314 cup 0;
#X obj 64 45 inlet;
#X obj 64 161 i;
#X obj 104 161 + 1;
#X obj 64 99 route bang setbang float;
#X obj 64 235 outlet;
#X connect 0 0 3 0;
#X connect 1 0 2 0;
#X connect 1 0 4 0;
#X connect 2 0 1 1;
#X connect 3 0 1 0;
#X connect 3 1 1 0;
#X connect 3 2 1 1;
#X restore 173 223 pd cup;
#N canvas 833 279 728 567 list-drip 0;
#X obj 73 94 t a a;
#X obj 73 251 spigot;
#X obj 112 159 bang;
#X obj 112 178 1;
#X obj 233 159 route bang;
#X obj 193 160 bang;
#X obj 193 179 0;
#X obj 112 124 list split 2;
#X obj 242 389 list split;
#X obj 309 338 list length;
#X obj 309 360 >> 1;
#X obj 73 270 t a a a a;
#X obj 73 456 list split;
#X obj 140 408 list length;
#X obj 140 433 >> 1;
#X obj 41 29 inlet;
#X obj 300 185 outlet;
#X text 83 29 Copyright 2009 by Mathieu Bouchard;
#X obj 41 63 t b a;
#X obj 475 129 outlet;
#X text 530 131 signal end of list;
#X text 391 33 made compatible with [list-drip]: fbar 2009;
#X connect 0 0 1 0;
#X connect 0 1 7 0;
#X connect 1 0 11 0;
#X connect 2 0 3 0;
#X connect 3 0 1 1;
#X connect 4 1 16 0;
#X connect 5 0 6 0;
#X connect 6 0 1 1;
#X connect 7 0 2 0;
#X connect 7 2 4 0;
#X connect 7 2 5 0;
#X connect 8 0 0 0;
#X connect 9 0 10 0;
#X connect 10 0 8 1;
#X connect 11 0 12 0;
#X connect 11 1 13 0;
#X connect 11 2 8 0;
#X connect 11 3 9 0;
#X connect 12 1 0 0;
#X connect 13 0 14 0;
#X connect 14 0 12 1;
#X connect 15 0 18 0;
#X connect 18 0 19 0;
#X connect 18 1 0 0;
#X restore 106 32 pd list-drip;
#X obj 77 -37 trigger b a b b;
#X obj 92 84 trigger a a a;
#X connect 0 0 19 0;
#X connect 1 0 9 1;
#X connect 3 0 4 0;
#X connect 5 0 7 0;
#X connect 5 1 3 0;
#X connect 6 0 18 0;
#X connect 7 0 2 0;
#X connect 8 0 9 1;
#X connect 9 0 1 0;
#X connect 9 0 7 1;
#X connect 9 0 13 0;
#X connect 11 0 16 0;
#X connect 12 0 14 0;
#X connect 12 0 16 0;
#X connect 13 0 15 0;
#X connect 14 0 3 1;
#X connect 15 0 14 0;
#X connect 16 0 14 1;
#X connect 17 0 0 0;
#X connect 18 0 5 0;
#X connect 18 1 17 0;
#X connect 18 2 8 1;
#X connect 18 3 12 0;
#X connect 19 0 9 0;
#X connect 19 1 11 0;
#X connect 19 2 8 0;
#X restore 351 156 pd list-max;
#N canvas 0 22 450 300 list-max 0;
#X obj 106 57 route float;
#X obj 131 187 f;
#X obj 77 343 outlet;
#X obj 133 308 f;
#X obj 133 345 outlet;
#X obj 77 224 t b b;
#X obj 77 -75 inlet;
#X obj 77 308 f;
#N canvas 0 22 450 300 once 0;
#X obj 110 75 inlet;
#X obj 105 187 spigot 1;
#X obj 110 104 t b f;
#X msg 125 151 0;
#X msg 165 99 1;
#X obj 165 63 inlet;
#X obj 102 219 outlet;
#X connect 0 0 2 0;
#X connect 1 0 6 0;
#X connect 2 0 3 0;
#X connect 2 1 1 0;
#X connect 3 0 1 1;
#X connect 4 0 1 1;
#X connect 5 0 4 0;
#X restore 198 135 pd once;
#X obj 92 187 max;
#X text 253 135 prime [min] and [max] with first item once;
#X obj 171 187 bang;
#X msg 300 187 0;
#X obj 126 223 change;
#X obj 158 281 f;
#X obj 126 252 bang;
#N canvas 917 609 301 314 cup 0;
#X obj 64 45 inlet;
#X obj 64 161 i;
#X obj 104 161 + 1;
#X obj 64 99 route bang setbang float;
#X obj 64 235 outlet;
#X connect 0 0 3 0;
#X connect 1 0 2 0;
#X connect 1 0 4 0;
#X connect 2 0 1 1;
#X connect 3 0 1 0;
#X connect 3 1 1 0;
#X connect 3 2 1 1;
#X restore 173 223 pd cup;
#N canvas 833 279 728 567 list-drip 0;
#X obj 73 94 t a a;
#X obj 73 251 spigot;
#X obj 112 159 bang;
#X obj 112 178 1;
#X obj 233 159 route bang;
#X obj 193 160 bang;
#X obj 193 179 0;
#X obj 112 124 list split 2;
#X obj 242 389 list split;
#X obj 309 338 list length;
#X obj 309 360 >> 1;
#X obj 73 270 t a a a a;
#X obj 73 456 list split;
#X obj 140 408 list length;
#X obj 140 433 >> 1;
#X obj 41 29 inlet;
#X obj 300 185 outlet;
#X text 83 29 Copyright 2009 by Mathieu Bouchard;
#X obj 41 63 t b a;
#X obj 475 129 outlet;
#X text 530 131 signal end of list;
#X text 391 33 made compatible with [list-drip]: fbar 2009;
#X connect 0 0 1 0;
#X connect 0 1 7 0;
#X connect 1 0 11 0;
#X connect 2 0 3 0;
#X connect 3 0 1 1;
#X connect 4 1 16 0;
#X connect 5 0 6 0;
#X connect 6 0 1 1;
#X connect 7 0 2 0;
#X connect 7 2 4 0;
#X connect 7 2 5 0;
#X connect 8 0 0 0;
#X connect 9 0 10 0;
#X connect 10 0 8 1;
#X connect 11 0 12 0;
#X connect 11 1 13 0;
#X connect 11 2 8 0;
#X connect 11 3 9 0;
#X connect 12 1 0 0;
#X connect 13 0 14 0;
#X connect 14 0 12 1;
#X connect 15 0 18 0;
#X connect 18 0 19 0;
#X connect 18 1 0 0;
#X restore 106 32 pd list-drip;
#X obj 77 -37 trigger b a b b;
#X obj 92 84 trigger a a a;
#X connect 0 0 19 0;
#X connect 1 0 9 1;
#X connect 3 0 4 0;
#X connect 5 0 7 0;
#X connect 5 1 3 0;
#X connect 6 0 18 0;
#X connect 7 0 2 0;
#X connect 8 0 9 1;
#X connect 9 0 1 0;
#X connect 9 0 7 1;
#X connect 9 0 13 0;
#X connect 11 0 16 0;
#X connect 12 0 14 0;
#X connect 12 0 16 0;
#X connect 13 0 15 0;
#X connect 14 0 3 1;
#X connect 15 0 14 0;
#X connect 16 0 14 1;
#X connect 17 0 0 0;
#X connect 18 0 5 0;
#X connect 18 1 17 0;
#X connect 18 2 8 1;
#X connect 18 3 12 0;
#X connect 19 0 9 0;
#X connect 19 1 11 0;
#X connect 19 2 8 0;
#X restore 585 158 pd list-max;
#X obj 38 302 pack f 0;
#X obj 731 714 f;
#X obj 768 714 + 1;
#X obj 731 736 mod 2;
#X obj 849 801 bng 23 250 50 0 empty empty empty 17 7 0 10 -262144
-1 -1;
#X obj 735 778 metro 100;
#X obj 379 663 metro 200;
#X obj 575 302 pack f 1;
#X connect 0 0 23 0;
#X connect 1 0 4 0;
#X connect 1 1 4 0;
#X connect 1 2 4 0;
#X connect 1 3 4 0;
#X connect 1 4 4 0;
#X connect 1 5 4 0;
#X connect 1 6 4 0;
#X connect 1 7 4 0;
#X connect 1 8 4 0;
#X connect 2 0 18 0;
#X connect 3 0 8 0;
#X connect 4 0 38 0;
#X connect 5 0 6 0;
#X connect 6 0 15 0;
#X connect 7 0 22 0;
#X connect 8 0 2 0;
#X connect 9 0 33 0;
#X connect 10 0 7 1;
#X connect 11 0 7 1;
#X connect 12 0 16 0;
#X connect 13 0 12 0;
#X connect 14 0 10 0;
#X connect 15 0 14 0;
#X connect 16 0 17 0;
#X connect 17 0 11 0;
#X connect 18 0 7 0;
#X connect 19 0 21 0;
#X connect 19 1 21 0;
#X connect 19 2 21 0;
#X connect 19 3 21 0;
#X connect 19 4 21 0;
#X connect 19 5 21 0;
#X connect 19 6 21 0;
#X connect 19 7 21 0;
#X connect 19 8 21 0;
#X connect 20 0 9 0;
#X connect 20 1 9 0;
#X connect 20 2 9 0;
#X connect 20 3 9 0;
#X connect 20 4 9 0;
#X connect 20 5 9 0;
#X connect 20 6 9 0;
#X connect 20 7 9 0;
#X connect 20 8 9 0;
#X connect 21 0 13 0;
#X connect 22 0 44 0;
#X connect 23 0 37 0;
#X connect 23 0 24 0;
#X connect 23 1 35 0;
#X connect 23 1 19 0;
#X connect 23 2 36 0;
#X connect 23 3 34 0;
#X connect 24 0 28 0;
#X connect 24 1 28 0;
#X connect 24 2 28 0;
#X connect 24 3 28 0;
#X connect 24 4 28 0;
#X connect 24 5 28 0;
#X connect 24 6 28 0;
#X connect 24 7 28 0;
#X connect 24 8 28 0;
#X connect 25 0 26 0;
#X connect 26 0 27 0;
#X connect 27 0 29 0;
#X connect 28 0 45 0;
#X connect 29 0 30 0;
#X connect 30 0 44 0;
#X connect 32 0 23 0;
#X connect 33 0 3 0;
#X connect 34 0 4 0;
#X connect 36 0 9 0;
#X connect 38 0 5 0;
#X connect 39 0 40 0;
#X connect 39 0 41 0;
#X connect 40 0 39 1;
#X connect 41 0 43 0;
#X connect 43 0 42 0;
#X connect 44 0 31 0;
#X connect 44 0 42 0;
#X connect 45 0 25 0;
#X restore 552 -32 pd reset_logic;
#X obj 407 38 bng 15 250 50 0 empty empty empty 17 7 0 10 -262144 -1
-1;
#X obj 407 146 print;
#X msg 407 119 -----BASELINE RESET-----;
#X obj 435 96 s bela_setTrill;
#X msg 706 43 new mycraft 1 CRAFT \, mode mycraft DIFF \, prescaler
mycraft 2 \, threshold mycraft 0.01 \, updateBaseline mycraft;
#X msg 1862 234 0.9841;
#X obj 739 537 print scaledDATA;
#X obj 756 373 print parsedDATA;
#X obj 739 505 list;
#X obj 657 262 metro 200;
#X obj 405 -59 r manualreset;
#N canvas 1055 23 503 449 reset_logic-MANUAL 0;
#X obj 147 -134 metro 1000;
#X obj 147 -89 f;
#X obj 178 -89 + 1;
#X floatatom 147 -45 5 0 0 0 - - -, f 5;
#X msg 147 20 0;
#X obj 147 -2 sel 1;
#X msg 91 -187 1;
#X floatatom 91 83 5 0 0 0 - - -, f 5;
#X obj 91 -165 t f f;
#X obj 147 42 t f f;
#X obj 91 -213 sel 1;
#X obj 91 126 outlet;
#X obj 91 -252 inlet;
#X obj 91 104 metro 100;
#X obj 147 -67 mod 7;
#X obj 147 -24 == 6;
#X connect 0 0 1 0;
#X connect 1 0 2 0;
#X connect 1 0 14 0;
#X connect 2 0 1 1;
#X connect 3 0 15 0;
#X connect 4 0 9 0;
#X connect 5 0 4 0;
#X connect 6 0 8 0;
#X connect 7 0 13 0;
#X connect 8 0 0 0;
#X connect 8 1 7 0;
#X connect 9 0 7 0;
#X connect 9 1 0 0;
#X connect 10 0 6 0;
#X connect 12 0 10 0;
#X connect 13 0 11 0;
#X connect 14 0 3 0;
#X connect 15 0 5 0;
#X restore 405 -33 pd reset_logic-MANUAL;
#X obj 642 215 tgl 15 0 empty empty empty 17 7 0 10 -262144 -1 -1 0
1;
#N canvas 935 374 677 427 new_parse 0;
#X obj 64 22 inlet;
#X obj 64 62 unpack f f f f f f f f f f f f f f f f f f f f f f f f
f f f f f f, f 67;
#X msg 68 114 0 \$1;
#X msg 99 114 1 \$1;
#X msg 130 114 2 \$1;
#X msg 161 114 3 \$1;
#X msg 192 114 4 \$1;
#X msg 223 114 5 \$1;
#X msg 254 114 6 \$1;
#X msg 285 114 7 \$1;
#X msg 316 114 8 \$1;
#X obj 96 192 clone parse 9;
#X obj 96 313 outlet;
#X obj 542 159 > 0.4;
#X obj 542 137 parse;
#X obj 542 181 s manualreset;
#X connect 0 0 1 0;
#X connect 1 0 10 0;
#X connect 1 1 9 0;
#X connect 1 2 8 0;
#X connect 1 3 7 0;
#X connect 1 4 6 0;
#X connect 1 5 5 0;
#X connect 1 6 4 0;
#X connect 1 7 3 0;
#X connect 1 8 2 0;
#X connect 1 14 14 0;
#X connect 2 0 11 0;
#X connect 3 0 11 0;
#X connect 4 0 11 0;
#X connect 5 0 11 0;
#X connect 6 0 11 0;
#X connect 7 0 11 0;
#X connect 8 0 11 0;
#X connect 9 0 11 0;
#X connect 10 0 11 0;
#X connect 11 0 12 0;
#X connect 13 0 15 0;
#X connect 14 0 13 0;
#X restore 930 267 pd new_parse;
#N canvas 374 585 901 489 new_grp_scaling 0;
#X obj 72 484 outlet;
#X obj 68 5 inlet;
#N canvas 1106 346 1185 1049 scale_down 0;
#X obj 126 98 * 0.9827;
#X obj 182 178 * 0.9827;
#X obj 262 254 * 0.9827;
#X obj 326 337 * 0.9827;
#X obj 394 421 * 0.9827;
#X obj 461 506 * 0.9827;
#X obj 523 592 * 0.9827;
#X obj 595 675 * 0.9827;
#X obj 70 7 inlet;
#X obj 42 859 outlet;
#X obj 92 859 outlet;
#X obj 142 859 outlet;
#X obj 192 859 outlet;
#X obj 242 859 outlet;
#X obj 292 859 outlet;
#X obj 342 859 outlet;
#X obj 392 859 outlet;
#X obj 444 5 inlet;
#X connect 0 0 9 0;
#X connect 0 0 1 0;
#X connect 1 0 10 0;
#X connect 1 0 2 0;
#X connect 2 0 11 0;
#X connect 2 0 3 0;
#X connect 3 0 12 0;
#X connect 3 0 4 0;
#X connect 4 0 13 0;
#X connect 4 0 5 0;
#X connect 5 0 14 0;
#X connect 5 0 6 0;
#X connect 6 0 15 0;
#X connect 6 0 7 0;
#X connect 7 0 16 0;
#X connect 8 0 0 0;
#X connect 17 0 0 1;
#X connect 17 0 7 1;
#X connect 17 0 6 1;
#X connect 17 0 5 1;
#X connect 17 0 4 1;
#X connect 17 0 3 1;
#X connect 17 0 2 1;
#X connect 17 0 1 1;
#X restore 289 61 pd scale_down;
#X obj 285 18 r full_touch;
#X obj 405 21 r scale_down;
#X msg 204 203 0 0 \$1 0 1;
#X msg 271 203 1 0 \$1 0 1;
#X msg 338 203 2 0 \$1 0 1;
#X msg 405 203 3 0 \$1 0 1;
#X msg 472 203 4 0 \$1 0 1;
#X msg 539 203 5 0 \$1 0 1;
#X msg 606 203 6 0 \$1 0 1;
#X msg 673 203 7 0 \$1 0 1;
#X msg 740 203 8 0 \$1 0 1;
#X obj 71 311 clone scaler 9;
#X connect 1 0 14 0;
#X connect 2 0 6 0;
#X connect 2 1 7 0;
#X connect 2 2 8 0;
#X connect 2 3 9 0;
#X connect 2 4 10 0;
#X connect 2 5 11 0;
#X connect 2 6 12 0;
#X connect 2 7 13 0;
#X connect 3 0 2 0;
#X connect 3 0 5 0;
#X connect 4 0 2 1;
#X connect 5 0 14 1;
#X connect 6 0 14 1;
#X connect 7 0 14 1;
#X connect 8 0 14 1;
#X connect 9 0 14 1;
#X connect 10 0 14 1;
#X connect 11 0 14 1;
#X connect 12 0 14 1;
#X connect 13 0 14 1;
#X connect 14 0 0 0;
#X restore 930 312 pd new_grp_scaling;
#X obj 1044 825 dac~ 1 2 3 4;
#N canvas 1055 22 563 275 route_&_pack 0;
#X obj 38 191 pack f f f f f f f f f;
#X obj 38 29 route 0 1 2 3 4 5 6 7 8;
#X obj 38 7 inlet;
#X obj 38 213 outlet;
#X obj 55 96 t b f;
#X obj 96 96 t b f;
#X obj 137 96 t b f;
#X obj 178 96 t b f;
#X obj 219 96 t b f;
#X obj 260 96 t b f;
#X obj 301 96 t b f;
#X obj 342 96 t b f;
#X connect 0 0 3 0;
#X connect 1 0 0 0;
#X connect 1 1 4 0;
#X connect 1 2 5 0;
#X connect 1 3 6 0;
#X connect 1 4 7 0;
#X connect 1 5 8 0;
#X connect 1 6 9 0;
#X connect 1 7 10 0;
#X connect 1 8 11 0;
#X connect 2 0 1 0;
#X connect 4 0 0 0;
#X connect 4 1 0 1;
#X connect 5 0 0 0;
#X connect 5 1 0 2;
#X connect 6 0 0 0;
#X connect 6 1 0 3;
#X connect 7 0 0 0;
#X connect 7 1 0 4;
#X connect 8 0 0 0;
#X connect 8 1 0 5;
#X connect 9 0 0 0;
#X connect 9 1 0 6;
#X connect 10 0 0 0;
#X connect 10 1 0 7;
#X connect 11 0 0 0;
#X connect 11 1 0 8;
#X restore 835 422 pd route_&_pack;
#N canvas 570 499 1266 714 new_touch_type 0;
#X obj 49 31 inlet;
#X obj 52 419 outlet;
#X obj 167 419 outlet;
#X text 52 441 proximity;
#X text 167 441 light touch;
#X obj 274 419 outlet;
#X text 730 284 logic to pass scaled values;
#X text 189 278 logic to pass binary values;
#X obj 113 309 clone touch_split 9;
#X msg 532 226 0 \$1;
#X obj 552 147 unpack f f f f f f f f f;
#X msg 563 226 1 \$1;
#X msg 594 226 2 \$1;
#X msg 625 226 3 \$1;
#X msg 656 226 4 \$1;
#X msg 687 226 5 \$1;
#X msg 718 226 6 \$1;
#X msg 749 226 7 \$1;
#X msg 780 226 8 \$1;
#X obj 609 326 clone touch_scaledvalues 9;
#X obj 609 394 route 0;
#X floatatom 609 416 5 0 0 0 - - -, f 5;
#X obj 670 393 route 0;
#X floatatom 670 415 5 0 0 0 - - -, f 5;
#X obj 727 391 route 0;
#X floatatom 727 413 5 0 0 0 - - -, f 5;
#X obj 788 390 route 0;
#X floatatom 788 412 5 0 0 0 - - -, f 5;
#X text 348 503 reduce down to three;
#X text 274 441 full touch;
#X connect 0 0 10 0;
#X connect 0 0 8 0;
#X connect 8 0 1 0;
#X connect 8 1 2 0;
#X connect 8 2 5 0;
#X connect 9 0 19 0;
#X connect 10 0 9 0;
#X connect 10 1 11 0;
#X connect 10 2 12 0;
#X connect 10 3 13 0;
#X connect 10 4 14 0;
#X connect 10 5 15 0;
#X connect 10 6 16 0;
#X connect 10 7 17 0;
#X connect 10 8 18 0;
#X connect 11 0 19 0;
#X connect 12 0 19 0;
#X connect 13 0 19 0;
#X connect 14 0 19 0;
#X connect 15 0 19 0;
#X connect 16 0 19 0;
#X connect 17 0 19 0;
#X connect 18 0 19 0;
#X connect 19 0 20 0;
#X connect 19 1 22 0;
#X connect 19 2 24 0;
#X connect 19 3 26 0;
#X connect 20 0 21 0;
#X connect 22 0 23 0;
#X connect 24 0 25 0;
#X connect 26 0 27 0;
#X restore 963 352 pd new_touch_type;
#N canvas 0 22 450 300 osc 0;
#X obj 79 236 *~ 0.8;
#X obj 82 178 clone osc 9;
#X msg 259 125 0 60;
#X msg 293 125 1 61;
#X msg 327 125 2 62;
#X msg 361 125 3 63;
#X msg 395 125 4 64;
#X msg 429 125 5 65;
#X msg 463 125 6 66;
#X msg 497 125 7 67;
#X msg 531 125 8 68;
#X obj 249 56 loadbang;
#X msg 171 69 0;
#X msg 199 68 1;
#X msg 148 108 1 \$1;
#X connect 1 0 0 0;
#X connect 2 0 1 1;
#X connect 3 0 1 1;
#X connect 4 0 1 1;
#X connect 5 0 1 1;
#X connect 6 0 1 1;
#X connect 7 0 1 1;
#X connect 8 0 1 1;
#X connect 9 0 1 1;
#X connect 10 0 1 1;
#X connect 11 0 2 0;
#X connect 11 0 10 0;
#X connect 11 0 9 0;
#X connect 11 0 8 0;
#X connect 11 0 7 0;
#X connect 11 0 6 0;
#X connect 11 0 5 0;
#X connect 11 0 4 0;
#X connect 11 0 3 0;
#X connect 12 0 14 0;
#X connect 13 0 14 0;
#X connect 14 0 1 0;
#X restore 78 388 pd osc tester;
#N canvas 622 116 1938 835 proximity 0;
#X obj 54 20 inlet;
#X msg 116 188 0 \$1 \$2 \$3 \$4;
#X msg 993 204 all \$1 \$2 \$3 \$4;
#X msg 85 70 1;
#X msg 128 71 0;
#N canvas 466 651 621 540 load_sound 0;
#X obj 89 48 t b b b b b;
#X obj 82 303 outlet;
#X obj 82 223 pack s s s s;
#X obj 341 18 bng 15 250 50 0 empty empty flush\ new\ samples 17 7
0 10 -262144 -1 -1;
#X msg 78 100 pad_1.wav;
#X obj 89 3 inlet;
#X obj 78 122 pack s;
#X obj 351 122 pack s;
#X obj 261 122 pack s;
#X obj 170 122 pack s;
#X obj 341 38 t b b b b;
#X msg 169 100 pad_1.wav;
#X msg 260 100 pad_1.wav;
#X msg 351 100 pad_1.wav;
#X connect 0 0 4 0;
#X connect 0 1 11 0;
#X connect 0 2 12 0;
#X connect 0 3 13 0;
#X connect 2 0 1 0;
#X connect 3 0 10 0;
#X connect 4 0 6 0;
#X connect 5 0 0 0;
#X connect 6 0 2 0;
#X connect 7 0 2 3;
#X connect 8 0 2 2;
#X connect 9 0 2 1;
#X connect 10 0 4 0;
#X connect 10 1 11 0;
#X connect 10 2 12 0;
#X connect 10 3 13 0;
#X connect 11 0 9 0;
#X connect 12 0 8 0;
#X connect 13 0 7 0;
#X coords 0 0 1 1 85 60 0;
#X restore 117 160 pd load_sound;
#X msg 207 188 1 \$1 \$2 \$3 \$4;
#X msg 298 188 2 \$1 \$2 \$3 \$4;
#X msg 389 188 3 \$1 \$2 \$3 \$4;
#X msg 480 188 4 \$1 \$2 \$3 \$4;
#X msg 571 188 5 \$1 \$2 \$3 \$4;
#X msg 662 188 6 \$1 \$2 \$3 \$4;
#X msg 753 188 7 \$1 \$2 \$3 \$4;
#X msg 844 188 8 \$1 \$2 \$3 \$4;
#X obj 993 128 loadbang;
#X text 1100 167 ADSR;
#N canvas 952 563 621 517 load_sound 0;
#X obj 78 164 pack s;
#X obj 169 164 pack s;
#X obj 260 164 pack s;
#X obj 351 163 pack s;
#X obj 89 48 t b b b b b;
#X obj 82 303 outlet;
#X obj 82 223 pack s s s s;
#X obj 14 186 bng 15 250 50 0 empty empty flush\ new\ samples 17 7
0 10 -262144 -1 -1;
#X obj 89 3 inlet;
#X msg 78 100 pad_2.wav;
#X msg 169 100 pad_2.wav;
#X msg 260 100 pad_2.wav;
#X msg 351 100 pad_2.wav;
#X connect 0 0 6 0;
#X connect 1 0 6 1;
#X connect 2 0 6 2;
#X connect 3 0 6 3;
#X connect 4 0 9 0;
#X connect 4 1 10 0;
#X connect 4 2 11 0;
#X connect 4 3 12 0;
#X connect 6 0 5 0;
#X connect 7 0 6 0;
#X connect 8 0 4 0;
#X connect 9 0 0 0;
#X connect 10 0 1 0;
#X connect 11 0 2 0;
#X connect 12 0 3 0;
#X coords 0 0 1 1 85 60 0;
#X restore 207 160 pd load_sound;
#N canvas 952 563 621 517 load_sound 0;
#X obj 78 164 pack s;
#X obj 169 164 pack s;
#X obj 260 164 pack s;
#X obj 351 163 pack s;
#X obj 89 48 t b b b b b;
#X obj 82 303 outlet;
#X obj 82 223 pack s s s s;
#X obj 14 186 bng 15 250 50 0 empty empty flush\ new\ samples 17 7
0 10 -262144 -1 -1;
#X obj 89 3 inlet;
#X msg 77 99 pad_3.wav;
#X msg 169 100 pad_3.wav;
#X msg 260 100 pad_3.wav;
#X msg 351 100 pad_3.wav;
#X connect 0 0 6 0;
#X connect 1 0 6 1;
#X connect 2 0 6 2;
#X connect 3 0 6 3;
#X connect 4 0 9 0;
#X connect 4 1 10 0;
#X connect 4 2 11 0;
#X connect 4 3 12 0;
#X connect 6 0 5 0;
#X connect 7 0 6 0;
#X connect 8 0 4 0;
#X connect 9 0 0 0;
#X connect 10 0 1 0;
#X connect 11 0 2 0;
#X connect 12 0 3 0;
#X coords 0 0 1 1 85 60 0;
#X restore 298 160 pd load_sound;
#N canvas 952 563 621 517 load_sound 0;
#X obj 78 164 pack s;
#X obj 169 164 pack s;
#X obj 260 164 pack s;
#X obj 351 163 pack s;
#X obj 89 48 t b b b b b;
#X obj 82 303 outlet;
#X obj 82 223 pack s s s s;
#X obj 14 186 bng 15 250 50 0 empty empty flush\ new\ samples 17 7
0 10 -262144 -1 -1;
#X obj 89 3 inlet;
#X msg 78 100 pad_4.wav;
#X msg 169 100 pad_4.wav;
#X msg 260 100 pad_4.wav;
#X msg 351 100 pad_4.wav;
#X connect 0 0 6 0;
#X connect 1 0 6 1;
#X connect 2 0 6 2;
#X connect 3 0 6 3;
#X connect 4 0 9 0;
#X connect 4 1 10 0;
#X connect 4 2 11 0;
#X connect 4 3 12 0;
#X connect 6 0 5 0;
#X connect 7 0 6 0;
#X connect 8 0 4 0;
#X connect 9 0 0 0;
#X connect 10 0 1 0;
#X connect 11 0 2 0;
#X connect 12 0 3 0;
#X coords 0 0 1 1 85 60 0;
#X restore 389 160 pd load_sound;
#N canvas 952 563 621 517 load_sound 0;
#X obj 78 164 pack s;
#X obj 169 164 pack s;
#X obj 260 164 pack s;
#X obj 351 163 pack s;
#X obj 89 48 t b b b b b;
#X obj 82 303 outlet;
#X obj 82 223 pack s s s s;
#X obj 14 186 bng 15 250 50 0 empty empty flush\ new\ samples 17 7
0 10 -262144 -1 -1;
#X obj 89 3 inlet;
#X msg 78 100 pad_5.wav;
#X msg 169 100 pad_5.wav;
#X msg 260 100 pad_5.wav;
#X msg 351 100 pad_5.wav;
#X connect 0 0 6 0;
#X connect 1 0 6 1;
#X connect 2 0 6 2;
#X connect 3 0 6 3;
#X connect 4 0 9 0;
#X connect 4 1 10 0;
#X connect 4 2 11 0;
#X connect 4 3 12 0;
#X connect 6 0 5 0;
#X connect 7 0 6 0;
#X connect 8 0 4 0;
#X connect 9 0 0 0;
#X connect 10 0 1 0;
#X connect 11 0 2 0;
#X connect 12 0 3 0;
#X coords 0 0 1 1 85 60 0;
#X restore 480 160 pd load_sound;
#N canvas 952 563 621 517 load_sound 0;
#X obj 78 164 pack s;
#X obj 169 164 pack s;
#X obj 260 164 pack s;
#X obj 351 163 pack s;
#X obj 89 48 t b b b b b;
#X obj 82 303 outlet;
#X obj 82 223 pack s s s s;
#X obj 14 186 bng 15 250 50 0 empty empty flush\ new\ samples 17 7
0 10 -262144 -1 -1;
#X obj 89 3 inlet;
#X msg 78 100 pad_6.wav;
#X msg 169 100 pad_6.wav;
#X msg 260 100 pad_6.wav;
#X msg 351 100 pad_6.wav;
#X connect 0 0 6 0;
#X connect 1 0 6 1;
#X connect 2 0 6 2;
#X connect 3 0 6 3;
#X connect 4 0 9 0;
#X connect 4 1 10 0;
#X connect 4 2 11 0;
#X connect 4 3 12 0;
#X connect 6 0 5 0;
#X connect 7 0 6 0;
#X connect 8 0 4 0;
#X connect 9 0 0 0;
#X connect 10 0 1 0;
#X connect 11 0 2 0;
#X connect 12 0 3 0;
#X coords 0 0 1 1 85 60 0;
#X restore 571 160 pd load_sound;
#N canvas 952 563 621 517 load_sound 0;
#X obj 78 164 pack s;
#X obj 169 164 pack s;
#X obj 260 164 pack s;
#X obj 351 163 pack s;
#X obj 89 48 t b b b b b;
#X obj 82 303 outlet;
#X obj 82 223 pack s s s s;
#X obj 14 186 bng 15 250 50 0 empty empty flush\ new\ samples 17 7
0 10 -262144 -1 -1;
#X obj 89 3 inlet;
#X msg 77 100 pad_7.wav;
#X msg 169 100 pad_7.wav;
#X msg 259 100 pad_7.wav;
#X msg 351 100 pad_7.wav;
#X connect 0 0 6 0;
#X connect 1 0 6 1;
#X connect 2 0 6 2;
#X connect 3 0 6 3;
#X connect 4 0 9 0;
#X connect 4 1 10 0;
#X connect 4 2 11 0;
#X connect 4 3 12 0;
#X connect 6 0 5 0;
#X connect 7 0 6 0;
#X connect 8 0 4 0;
#X connect 9 0 0 0;
#X connect 10 0 1 0;
#X connect 11 0 2 0;
#X connect 12 0 3 0;
#X coords 0 0 1 1 85 60 0;
#X restore 662 160 pd load_sound;
#N canvas 952 563 621 517 load_sound 0;
#X obj 78 164 pack s;
#X obj 169 164 pack s;
#X obj 260 164 pack s;
#X obj 351 163 pack s;
#X obj 89 48 t b b b b b;
#X obj 82 303 outlet;
#X obj 82 223 pack s s s s;
#X obj 14 186 bng 15 250 50 0 empty empty flush\ new\ samples 17 7
0 10 -262144 -1 -1;
#X obj 89 3 inlet;
#X msg 78 100 pad_8.wav;
#X msg 169 100 pad_8.wav;
#X msg 260 100 pad_8.wav;
#X msg 351 100 pad_8.wav;
#X connect 0 0 6 0;
#X connect 1 0 6 1;
#X connect 2 0 6 2;
#X connect 3 0 6 3;
#X connect 4 0 9 0;
#X connect 4 1 10 0;
#X connect 4 2 11 0;
#X connect 4 3 12 0;
#X connect 6 0 5 0;
#X connect 7 0 6 0;
#X connect 8 0 4 0;
#X connect 9 0 0 0;
#X connect 10 0 1 0;
#X connect 11 0 2 0;
#X connect 12 0 3 0;
#X coords 0 0 1 1 85 60 0;
#X restore 753 160 pd load_sound;
#X obj 238 11 loadbang;
#N canvas 952 563 621 517 load_sound 0;
#X obj 78 164 pack s;
#X obj 169 164 pack s;
#X obj 260 164 pack s;
#X obj 351 163 pack s;
#X obj 89 48 t b b b b b;
#X obj 82 303 outlet;
#X obj 82 223 pack s s s s;
#X obj 14 186 bng 15 250 50 0 empty empty flush\ new\ samples 17 7
0 10 -262144 -1 -1;
#X obj 89 3 inlet;
#X msg 78 100 pad_8.wav;
#X msg 169 100 pad_8.wav;
#X msg 260 100 pad_8.wav;
#X msg 351 100 pad_8.wav;
#X connect 0 0 6 0;
#X connect 1 0 6 1;
#X connect 2 0 6 2;
#X connect 3 0 6 3;
#X connect 4 0 9 0;
#X connect 4 1 10 0;
#X connect 4 2 11 0;
#X connect 4 3 12 0;
#X connect 6 0 5 0;
#X connect 7 0 6 0;
#X connect 8 0 4 0;
#X connect 9 0 0 0;
#X connect 10 0 1 0;
#X connect 11 0 2 0;
#X connect 12 0 3 0;
#X coords 0 0 1 1 85 60 0;
#X restore 845 158 pd load_sound;
#X msg 92 120 5 \$1;
#X obj 121 409 clone soundmodule 9;
#X obj 99 588 outlet~ L;
#X obj 214 591 outlet~ R;
#X msg 993 169 1000 2000 1 2000;
#X connect 0 0 26 0;
#X connect 1 0 26 1;
#X connect 2 0 26 2;
#X connect 3 0 25 0;
#X connect 4 0 25 0;
#X connect 5 0 1 0;
#X connect 6 0 26 1;
#X connect 7 0 26 1;
#X connect 8 0 26 1;
#X connect 9 0 26 1;
#X connect 10 0 26 1;
#X connect 11 0 26 1;
#X connect 12 0 26 1;
#X connect 13 0 26 1;
#X connect 14 0 29 0;
#X connect 16 0 6 0;
#X connect 17 0 7 0;
#X connect 18 0 8 0;
#X connect 19 0 9 0;
#X connect 20 0 10 0;
#X connect 21 0 11 0;
#X connect 22 0 12 0;
#X connect 23 0 16 0;
#X connect 23 0 24 0;
#X connect 23 0 22 0;
#X connect 23 0 21 0;
#X connect 23 0 20 0;
#X connect 23 0 19 0;
#X connect 23 0 18 0;
#X connect 23 0 17 0;
#X connect 23 0 5 0;
#X connect 24 0 13 0;
#X connect 25 0 26 0;
#X connect 26 0 27 0;
#X connect 26 1 28 0;
#X connect 29 0 2 0;
#X restore 1031 646 pd proximity;
#X msg 270 628 0 open pad_1.wav;
#X obj 108 850 clone simplr 9;
#X msg 270 647 1 open pad_2.wav;
#X msg 270 666 2 open pad_3.wav;
#X msg 270 685 3 open pad_4.wav;
#X msg 270 704 4 open pad_5.wav;
#X msg 270 723 5 open pad_6.wav;
#X msg 270 742 6 open pad_7.wav;
#X msg 270 761 7 open pad_8.wav;
#X msg 270 780 8 open pad_8.wav;
#X obj 250 574 loadbang;
#X msg 448 764 all \$1 \$2 \$3 \$4;
#X msg 448 742 1000 2000 1 2000;
#X text 297 853 single voice;
#X obj 1055 762 *~ 6;
#X obj 1116 761 *~ 6;
#X obj 1165 763 *~ 1;
#X obj 1209 763 *~ 1;
#N canvas 622 116 1938 835 light_touch 0;
#X obj 54 20 inlet;
#X msg 116 188 0 \$1 \$2 \$3 \$4;
#X msg 993 204 all \$1 \$2 \$3 \$4;
#X msg 85 70 1;
#X msg 128 71 0;
#N canvas 466 651 621 540 load_sound 0;
#X obj 89 48 t b b b b b;
#X obj 82 303 outlet;
#X obj 82 223 pack s s s s;
#X obj 341 18 bng 15 250 50 0 empty empty flush\ new\ samples 17 7
0 10 -262144 -1 -1;
#X obj 89 3 inlet;
#X obj 78 122 pack s;
#X obj 351 122 pack s;
#X obj 261 122 pack s;
#X obj 170 122 pack s;
#X obj 341 38 t b b b b;
#X msg 78 100 touch_1.wav;
#X msg 169 100 touch_1.wav;
#X msg 260 100 touch_1.wav;
#X msg 351 100 touch_1.wav;
#X connect 0 0 10 0;
#X connect 0 1 11 0;
#X connect 0 2 12 0;
#X connect 0 3 13 0;
#X connect 2 0 1 0;
#X connect 3 0 9 0;
#X connect 4 0 0 0;
#X connect 5 0 2 0;
#X connect 6 0 2 3;
#X connect 7 0 2 2;
#X connect 8 0 2 1;
#X connect 9 0 10 0;
#X connect 9 1 11 0;
#X connect 9 2 12 0;
#X connect 9 3 13 0;
#X connect 10 0 5 0;
#X connect 11 0 8 0;
#X connect 12 0 7 0;
#X connect 13 0 6 0;
#X coords 0 0 1 1 85 60 0;
#X restore 117 160 pd load_sound;
#X msg 207 188 1 \$1 \$2 \$3 \$4;
#X msg 298 188 2 \$1 \$2 \$3 \$4;
#X msg 389 188 3 \$1 \$2 \$3 \$4;
#X msg 480 188 4 \$1 \$2 \$3 \$4;
#X msg 571 188 5 \$1 \$2 \$3 \$4;
#X msg 662 188 6 \$1 \$2 \$3 \$4;
#X msg 753 188 7 \$1 \$2 \$3 \$4;
#X msg 844 188 8 \$1 \$2 \$3 \$4;
#X obj 993 128 loadbang;
#X text 1100 167 ADSR;
#X obj 238 11 loadbang;
#X msg 92 120 5 \$1;
#X obj 121 409 clone soundmodule 9;
#X obj 99 588 outlet~ L;
#X obj 214 591 outlet~ R;
#N canvas 466 651 621 540 load_sound 0;
#X obj 89 48 t b b b b b;
#X obj 82 303 outlet;
#X obj 82 223 pack s s s s;
#X obj 341 18 bng 15 250 50 0 empty empty flush\ new\ samples 17 7
0 10 -262144 -1 -1;
#X obj 89 3 inlet;
#X obj 78 122 pack s;
#X obj 351 122 pack s;
#X obj 261 122 pack s;
#X obj 170 122 pack s;
#X obj 341 38 t b b b b;
#X msg 78 100 touch_2.wav;
#X msg 169 100 touch_2.wav;
#X msg 260 100 touch_2.wav;
#X msg 351 100 touch_2.wav;
#X connect 0 0 10 0;
#X connect 0 1 11 0;
#X connect 0 2 12 0;
#X connect 0 3 13 0;
#X connect 2 0 1 0;
#X connect 3 0 9 0;
#X connect 4 0 0 0;
#X connect 5 0 2 0;
#X connect 6 0 2 3;
#X connect 7 0 2 2;
#X connect 8 0 2 1;
#X connect 9 0 10 0;
#X connect 9 1 11 0;
#X connect 9 2 12 0;
#X connect 9 3 13 0;
#X connect 10 0 5 0;
#X connect 11 0 8 0;
#X connect 12 0 7 0;
#X connect 13 0 6 0;
#X coords 0 0 1 1 85 60 0;
#X restore 207 162 pd load_sound;
#N canvas 466 651 621 540 load_sound 0;
#X obj 89 48 t b b b b b;
#X obj 82 303 outlet;
#X obj 82 223 pack s s s s;
#X obj 341 18 bng 15 250 50 0 empty empty flush\ new\ samples 17 7
0 10 -262144 -1 -1;
#X obj 89 3 inlet;
#X obj 78 122 pack s;
#X obj 351 122 pack s;
#X obj 261 122 pack s;
#X obj 170 122 pack s;
#X obj 341 38 t b b b b;
#X msg 79 100 touch_3.wav;
#X msg 169 100 touch_3.wav;
#X msg 260 100 touch_3.wav;
#X msg 351 100 touch_3.wav;
#X connect 0 0 10 0;
#X connect 0 1 11 0;
#X connect 0 2 12 0;
#X connect 0 3 13 0;
#X connect 2 0 1 0;
#X connect 3 0 9 0;
#X connect 4 0 0 0;
#X connect 5 0 2 0;
#X connect 6 0 2 3;
#X connect 7 0 2 2;
#X connect 8 0 2 1;
#X connect 9 0 10 0;
#X connect 9 1 11 0;
#X connect 9 2 12 0;
#X connect 9 3 13 0;
#X connect 10 0 5 0;
#X connect 11 0 8 0;
#X connect 12 0 7 0;
#X connect 13 0 6 0;
#X coords 0 0 1 1 85 60 0;
#X restore 299 161 pd load_sound;
#N canvas 466 651 621 540 load_sound 0;
#X obj 89 48 t b b b b b;
#X obj 82 303 outlet;
#X obj 82 223 pack s s s s;
#X obj 341 18 bng 15 250 50 0 empty empty flush\ new\ samples 17 7
0 10 -262144 -1 -1;
#X obj 89 3 inlet;
#X obj 78 122 pack s;
#X obj 351 122 pack s;
#X obj 261 122 pack s;
#X obj 170 122 pack s;
#X obj 341 38 t b b b b;
#X msg 78 100 touch_4.wav;
#X msg 169 100 touch_4.wav;
#X msg 260 100 touch_4.wav;
#X msg 351 100 touch_4.wav;
#X connect 0 0 10 0;
#X connect 0 1 11 0;
#X connect 0 2 12 0;
#X connect 0 3 13 0;
#X connect 2 0 1 0;
#X connect 3 0 9 0;
#X connect 4 0 0 0;
#X connect 5 0 2 0;
#X connect 6 0 2 3;
#X connect 7 0 2 2;
#X connect 8 0 2 1;
#X connect 9 0 10 0;
#X connect 9 1 11 0;
#X connect 9 2 12 0;
#X connect 9 3 13 0;
#X connect 10 0 5 0;
#X connect 11 0 8 0;
#X connect 12 0 7 0;
#X connect 13 0 6 0;
#X coords 0 0 1 1 85 60 0;
#X restore 389 163 pd load_sound;
#N canvas 466 651 621 540 load_sound 0;
#X obj 89 48 t b b b b b;
#X obj 82 303 outlet;
#X obj 82 223 pack s s s s;
#X obj 341 18 bng 15 250 50 0 empty empty flush\ new\ samples 17 7
0 10 -262144 -1 -1;
#X obj 89 3 inlet;
#X obj 78 122 pack s;
#X obj 351 122 pack s;
#X obj 261 122 pack s;
#X obj 170 122 pack s;
#X obj 341 38 t b b b b;
#X msg 78 100 touch_5.wav;
#X msg 169 100 touch_5.wav;
#X msg 260 100 touch_5.wav;
#X msg 351 100 touch_5.wav;
#X connect 0 0 10 0;
#X connect 0 1 11 0;
#X connect 0 2 12 0;
#X connect 0 3 13 0;
#X connect 2 0 1 0;
#X connect 3 0 9 0;
#X connect 4 0 0 0;
#X connect 5 0 2 0;
#X connect 6 0 2 3;
#X connect 7 0 2 2;
#X connect 8 0 2 1;
#X connect 9 0 10 0;
#X connect 9 1 11 0;
#X connect 9 2 12 0;
#X connect 9 3 13 0;
#X connect 10 0 5 0;
#X connect 11 0 8 0;
#X connect 12 0 7 0;
#X connect 13 0 6 0;
#X coords 0 0 1 1 85 60 0;
#X restore 480 161 pd load_sound;
#N canvas 466 651 621 540 load_sound 0;
#X obj 89 48 t b b b b b;
#X obj 82 303 outlet;
#X obj 82 223 pack s s s s;
#X obj 341 18 bng 15 250 50 0 empty empty flush\ new\ samples 17 7
0 10 -262144 -1 -1;
#X obj 89 3 inlet;
#X obj 78 122 pack s;
#X obj 351 122 pack s;
#X obj 261 122 pack s;
#X obj 170 122 pack s;
#X obj 341 38 t b b b b;
#X msg 78 100 touch_6.wav;
#X msg 169 100 touch_6.wav;
#X msg 260 100 touch_6.wav;
#X msg 351 100 touch_6.wav;
#X connect 0 0 10 0;
#X connect 0 1 11 0;
#X connect 0 2 12 0;
#X connect 0 3 13 0;
#X connect 2 0 1 0;
#X connect 3 0 9 0;
#X connect 4 0 0 0;
#X connect 5 0 2 0;
#X connect 6 0 2 3;
#X connect 7 0 2 2;
#X connect 8 0 2 1;
#X connect 9 0 10 0;
#X connect 9 1 11 0;
#X connect 9 2 12 0;
#X connect 9 3 13 0;
#X connect 10 0 5 0;
#X connect 11 0 8 0;
#X connect 12 0 7 0;
#X connect 13 0 6 0;
#X coords 0 0 1 1 85 60 0;
#X restore 570 163 pd load_sound;
#N canvas 466 651 621 540 load_sound 0;
#X obj 89 48 t b b b b b;
#X obj 82 303 outlet;
#X obj 82 223 pack s s s s;
#X obj 341 18 bng 15 250 50 0 empty empty flush\ new\ samples 17 7
0 10 -262144 -1 -1;
#X obj 89 3 inlet;
#X obj 78 122 pack s;
#X obj 351 122 pack s;
#X obj 261 122 pack s;
#X obj 170 122 pack s;
#X obj 341 38 t b b b b;
#X msg 78 100 touch_7.wav;
#X msg 169 100 touch_7.wav;
#X msg 260 100 touch_7.wav;
#X msg 351 100 touch_7.wav;
#X connect 0 0 10 0;
#X connect 0 1 11 0;
#X connect 0 2 12 0;
#X connect 0 3 13 0;
#X connect 2 0 1 0;
#X connect 3 0 9 0;
#X connect 4 0 0 0;
#X connect 5 0 2 0;
#X connect 6 0 2 3;
#X connect 7 0 2 2;
#X connect 8 0 2 1;
#X connect 9 0 10 0;
#X connect 9 1 11 0;
#X connect 9 2 12 0;
#X connect 9 3 13 0;
#X connect 10 0 5 0;
#X connect 11 0 8 0;
#X connect 12 0 7 0;
#X connect 13 0 6 0;
#X coords 0 0 1 1 85 60 0;
#X restore 662 162 pd load_sound;
#N canvas 466 651 621 540 load_sound 0;
#X obj 89 48 t b b b b b;
#X obj 82 303 outlet;
#X obj 82 223 pack s s s s;
#X obj 341 18 bng 15 250 50 0 empty empty flush\ new\ samples 17 7
0 10 -262144 -1 -1;
#X obj 89 3 inlet;
#X obj 78 122 pack s;
#X obj 351 122 pack s;
#X obj 261 122 pack s;
#X obj 170 122 pack s;
#X obj 341 38 t b b b b;
#X msg 78 100 touch_8.wav;
#X msg 169 100 touch_8.wav;
#X msg 260 100 touch_8.wav;
#X msg 351 100 touch_8.wav;
#X connect 0 0 10 0;
#X connect 0 1 11 0;
#X connect 0 2 12 0;
#X connect 0 3 13 0;
#X connect 2 0 1 0;
#X connect 3 0 9 0;
#X connect 4 0 0 0;
#X connect 5 0 2 0;
#X connect 6 0 2 3;
#X connect 7 0 2 2;
#X connect 8 0 2 1;
#X connect 9 0 10 0;
#X connect 9 1 11 0;
#X connect 9 2 12 0;
#X connect 9 3 13 0;
#X connect 10 0 5 0;
#X connect 11 0 8 0;
#X connect 12 0 7 0;
#X connect 13 0 6 0;
#X coords 0 0 1 1 85 60 0;
#X restore 752 164 pd load_sound;
#N canvas 466 651 621 540 load_sound 0;
#X obj 89 48 t b b b b b;
#X obj 82 303 outlet;
#X obj 82 223 pack s s s s;
#X obj 341 18 bng 15 250 50 0 empty empty flush\ new\ samples 17 7
0 10 -262144 -1 -1;
#X obj 89 3 inlet;
#X obj 78 122 pack s;
#X obj 351 122 pack s;
#X obj 261 122 pack s;
#X obj 170 122 pack s;
#X obj 341 38 t b b b b;
#X msg 78 100 touch_8.wav;
#X msg 169 100 touch_8.wav;
#X msg 260 100 touch_8.wav;
#X msg 351 100 touch_8.wav;
#X connect 0 0 10 0;
#X connect 0 1 11 0;
#X connect 0 2 12 0;
#X connect 0 3 13 0;
#X connect 2 0 1 0;
#X connect 3 0 9 0;
#X connect 4 0 0 0;
#X connect 5 0 2 0;
#X connect 6 0 2 3;
#X connect 7 0 2 2;
#X connect 8 0 2 1;
#X connect 9 0 10 0;
#X connect 9 1 11 0;
#X connect 9 2 12 0;
#X connect 9 3 13 0;
#X connect 10 0 5 0;
#X connect 11 0 8 0;
#X connect 12 0 7 0;
#X connect 13 0 6 0;
#X coords 0 0 1 1 85 60 0;
#X restore 845 162 pd load_sound;
#X msg 993 169 10 100 1 1000;
#X connect 0 0 18 0;
#X connect 1 0 18 1;
#X connect 2 0 18 2;
#X connect 3 0 17 0;
#X connect 4 0 17 0;
#X connect 5 0 1 0;
#X connect 6 0 18 1;
#X connect 7 0 18 1;
#X connect 8 0 18 1;
#X connect 9 0 18 1;
#X connect 10 0 18 1;
#X connect 11 0 18 1;
#X connect 12 0 18 1;
#X connect 13 0 18 1;
#X connect 14 0 29 0;
#X connect 16 0 5 0;
#X connect 16 0 21 0;
#X connect 16 0 28 0;
#X connect 16 0 27 0;
#X connect 16 0 26 0;
#X connect 16 0 25 0;
#X connect 16 0 24 0;
#X connect 16 0 23 0;
#X connect 16 0 22 0;
#X connect 17 0 18 0;
#X connect 18 0 19 0;
#X connect 18 1 20 0;
#X connect 21 0 6 0;
#X connect 22 0 7 0;
#X connect 23 0 8 0;
#X connect 24 0 9 0;
#X connect 25 0 10 0;
#X connect 26 0 11 0;
#X connect 27 0 12 0;
#X connect 28 0 13 0;
#X connect 29 0 2 0;
#X restore 1152 651 pd light_touch;
#X connect 1 0 3 0;
#X connect 2 0 42 0;
#X connect 4 0 37 0;
#X connect 5 0 12 0;
#X connect 12 0 46 0;
#X connect 12 0 30 0;
#X connect 16 0 17 0;
#X connect 20 0 27 0;
#X connect 20 0 38 0;
#X connect 22 0 40 0;
#X connect 25 0 36 0;
#X connect 27 0 26 0;
#X connect 31 0 32 0;
#X connect 33 0 25 0;
#X connect 33 0 35 0;
#X connect 35 0 34 0;
#X connect 37 0 6 0;
#X connect 38 0 28 0;
#X connect 41 0 39 0;
#X connect 42 0 41 0;
#X connect 43 0 44 0;
#X connect 44 0 33 0;
#X connect 45 0 42 0;
#X connect 46 0 47 0;
#X connect 47 0 50 0;
#X connect 47 0 49 0;
#X connect 49 0 41 1;
#X connect 50 0 52 0;
#X connect 50 1 71 0;
#X connect 52 0 67 0;
#X connect 52 1 68 0;
#X connect 53 0 54 1;
#X connect 55 0 54 1;
#X connect 56 0 54 1;
#X connect 57 0 54 1;
#X connect 58 0 54 1;
#X connect 59 0 54 1;
#X connect 60 0 54 1;
#X connect 61 0 54 1;
#X connect 62 0 54 1;
#X connect 63 0 53 0;
#X connect 63 0 62 0;
#X connect 63 0 61 0;
#X connect 63 0 60 0;
#X connect 63 0 59 0;
#X connect 63 0 58 0;
#X connect 63 0 57 0;
#X connect 63 0 56 0;
#X connect 63 0 55 0;
#X connect 63 0 65 0;
#X connect 64 0 54 2;
#X connect 65 0 64 0;
#X connect 67 0 48 0;
#X connect 67 0 48 2;
#X connect 68 0 48 1;
#X connect 68 0 48 3;
#X connect 69 0 48 0;
#X connect 69 0 48 2;
#X connect 70 0 48 1;
#X connect 70 0 48 3;
#X connect 71 0 69 0;
#X connect 71 1 70 0;
