#N canvas 646 105 645 371 12;
#X obj 132 -106 noise~;
#X obj 132 -39 snapshot~;
#X obj 132 15 int;
#X obj 132 42 / 100;
#X obj 132 -12 expr (((1) * ($f1 + 1) / 2) * 100) + 0.4;
#X obj 85 -137 inlet;
#X obj 132 101 outlet;
#X connect 0 0 1 0;
#X connect 1 0 4 0;
#X connect 2 0 3 0;
#X connect 3 0 6 0;
#X connect 4 0 2 0;
#X connect 5 0 1 0;
