#N canvas 495 23 367 358 12;
#X obj 107 159 f;
#X obj 173 168 ==;
#X obj 107 214 t f f;
#X obj 77 277 f;
#X obj -38 216 sel 0;
#X obj -38 185 f;
#X obj 1 29 sel 1;
#X obj 88 84 t b f f;
#X floatatom 88 51 5 0 0 0 - - -, f 5;
#X floatatom 147 124 5 0 0 0 - - -, f 5;
#X floatatom 188 124 5 0 0 0 - - -, f 5;
#X obj 87 -33 inlet;
#X obj 77 306 outlet;
#X obj 88 20 random 10;
#X obj 148 -33 inlet random range;
#X connect 0 0 2 0;
#X connect 1 0 5 1;
#X connect 2 0 10 0;
#X connect 2 1 3 1;
#X connect 3 0 12 0;
#X connect 4 0 3 0;
#X connect 5 0 4 0;
#X connect 5 0 6 0;
#X connect 6 0 13 0;
#X connect 7 0 5 0;
#X connect 7 1 0 0;
#X connect 7 2 9 0;
#X connect 8 0 7 0;
#X connect 9 0 1 0;
#X connect 10 0 1 1;
#X connect 11 0 13 0;
#X connect 13 0 8 0;
#X connect 14 0 13 1;
