#N canvas 1385 96 990 547 12;
#X obj 422 -30 inlet path;
#X obj 54 -30 inlet play;
#X obj 54 450 outlet~;
#N canvas 210 550 504 207 tables 0;
#N canvas 0 22 450 300 (subpatch) 0;
#X array \$0-arrayL 88200 float 4 black black;
#X coords 0 1 88199 -1 200 140 1;
#X restore 26 -52 graph;
#N canvas 0 22 450 300 (subpatch) 0;
#X array \$0-arrayR 88200 float 4 black black;
#X coords 0 1 88199 -1 200 140 1;
#X restore 249 -52 graph;
#X restore 623 -30 pd tables;
#X obj 422 11 pack symbol \$0;
#X obj 827 73 switch~;
#X msg 827 36 1;
#X msg 867 36 0;
#X obj 86 28 s \$0-on;
#X obj 827 -24 r \$0-on;
#X obj 124 282 env~;
#X obj 867 1 r \$0-off;
#X floatatom 883 73 5 0 0 0 - - -, f 5;
#X obj 124 390 s \$0-off;
#X obj 124 363 del 100;
#X obj 124 336 sel 0;
#X obj 124 309 change;
#X obj 54 -1 t f b;
#X obj 422 93 soundfiler;
#X msg 422 52 read -resize \$1 \$0-arrayL \$0-arrayR;
#X obj 54 170 tabplay~ \$0-arrayL;
#X obj 81 196 tabplay~ \$0-arrayR;
#X obj 112 450 outlet~;
#X connect 0 0 4 0;
#X connect 1 0 17 0;
#X connect 4 0 19 0;
#X connect 6 0 5 0;
#X connect 6 0 12 0;
#X connect 7 0 5 0;
#X connect 7 0 12 0;
#X connect 9 0 6 0;
#X connect 10 0 16 0;
#X connect 11 0 7 0;
#X connect 14 0 13 0;
#X connect 15 0 14 0;
#X connect 16 0 15 0;
#X connect 17 0 20 0;
#X connect 17 0 21 0;
#X connect 17 1 8 0;
#X connect 19 0 18 0;
#X connect 20 0 2 0;
#X connect 20 0 10 0;
#X connect 21 0 22 0;
