#N canvas 1055 22 563 906 10;
#X obj 163 557 metroplus;
#X msg 229 517 \$1 \$2 \$3 \$4;
#N canvas 1006 199 904 805 note_seq 0;
#X obj 322 383 tabread scale_intervals;
#X obj 322 410 * 10;
#X obj 322 357 f;
#X obj 307 484 +;
#X obj 322 276 bng 15 250 50 0 empty empty 60% 17 7 0 10 -262144 -1
-1;
#X obj 367 276 bng 15 250 50 0 empty empty 30% 17 7 0 10 -262144 -1
-1;
#X msg 457 188 100;
#X msg 322 300 0;
#X msg 367 300 7;
#X floatatom 304 548 5 0 0 0 - - -, f 5;
#X obj 276 519 f;
#X obj 457 167 lbang;
#X obj 283 129 t b f;
#X obj 283 13 inlet;
#X obj 283 167 t b b;
#N canvas 1055 22 416 217 velocity 0;
#X obj 35 97 random 100;
#X obj 35 132 expr ($f3 - $f2) * ($f1 - $f4) / ($f5 - $f4) + $f2;
#X text 276 69 input range;
#X text 140 69 scale range;
#X msg 271 95 0;
#X msg 341 95 100;
#X msg 131 95 5;
#X obj 128 31 lbang;
#X obj 35 16 inlet;
#X obj 35 194 outlet;
#X msg 201 95 20;
#X connect 0 0 1 0;
#X connect 1 0 9 0;
#X connect 4 0 1 3;
#X connect 5 0 1 4;
#X connect 6 0 1 1;
#X connect 7 0 10 0;
#X connect 7 0 6 0;
#X connect 7 0 5 0;
#X connect 7 0 4 0;
#X connect 8 0 0 0;
#X connect 10 0 1 2;
#X restore 701 89 pd velocity;
#X obj 701 695 outlet;
#X obj 276 700 outlet;
#X obj 322 447 + 12;
#X obj 322 244 moses 70;
#X obj 283 35 t b b;
#X obj 282 81 f;
#X obj 383 19 inlet;
#X obj 346 213 random_no_repeat;
#X connect 0 0 1 0;
#X connect 1 0 18 0;
#X connect 2 0 0 0;
#X connect 3 0 10 1;
#X connect 4 0 7 0;
#X connect 5 0 8 0;
#X connect 6 0 23 1;
#X connect 7 0 2 0;
#X connect 8 0 2 0;
#X connect 10 0 9 0;
#X connect 10 0 17 0;
#X connect 11 0 6 0;
#X connect 12 0 14 0;
#X connect 12 1 3 0;
#X connect 13 0 20 0;
#X connect 14 0 10 0;
#X connect 14 1 23 0;
#X connect 15 0 16 0;
#X connect 18 0 3 1;
#X connect 19 0 4 0;
#X connect 19 1 5 0;
#X connect 20 0 21 0;
#X connect 20 1 15 0;
#X connect 21 0 12 0;
#X connect 22 0 21 1;
#X connect 23 0 19 0;
#X restore 165 637 pd note_seq;
#X obj 159 121 stripnote;
#X obj 159 162 t b b f;
#X obj 170 726 makenote 80 240;
#N canvas 1055 22 316 489 simplestop 0;
#X obj 162 350 bng 15 250 50 0 empty empty empty 20 8 0 8 -262144 -1
-1;
#X obj 120 124 f 0;
#X obj 151 124 + 1;
#X floatatom 146 155 3 0 0 0 - - -, f 3;
#X obj 120 155 f, f 1;
#X msg 105 106 0, f 1;
#X obj 120 223 line;
#X obj 120 175 change;
#X obj 52 58 lbang;
#X obj 120 69 t b b;
#X obj 52 85 metro 100;
#X obj 120 252 > 0;
#X obj 119 274 change;
#X obj 120 197 pack f 4000;
#X msg 122 349 stop;
#X obj 119 296 sel 0 1;
#X obj 127 441 outlet;
#X obj 120 10 inlet;
#X obj 229 17 inlet;
#X connect 0 0 16 0;
#X connect 1 0 2 0;
#X connect 1 0 3 0;
#X connect 1 0 4 1;
#X connect 2 0 1 1;
#X connect 4 0 7 0;
#X connect 5 0 1 0;
#X connect 6 0 11 0;
#X connect 7 0 13 0;
#X connect 8 0 10 0;
#X connect 9 1 1 0;
#X connect 10 0 4 0;
#X connect 10 0 5 0;
#X connect 11 0 12 0;
#X connect 12 0 15 0;
#X connect 13 0 6 0;
#X connect 14 0 16 0;
#X connect 15 0 14 0;
#X connect 15 1 0 0;
#X connect 17 0 9 0;
#X connect 18 0 13 1;
#X restore 110 427 pd simplestop;
#N canvas 199 462 633 510 time_generator 0;
#X floatatom 48 246 5 0 0 0 - - -, f 5;
#X obj 105 214 + 250;
#X floatatom 125 246 5 0 0 0 - - -, f 5;
#X obj 182 214 + 250;
#X floatatom 202 246 5 0 0 0 - - -, f 5;
#X obj 259 214 + 250;
#X floatatom 279 246 5 0 0 0 - - -, f 5;
#X obj 88 42 t b b b b;
#X obj 88 353 pack \$1 \$2 \$3 \$4;
#X msg 88 384 \$1 \$2 \$3 \$4;
#X obj 28 214 + 250;
#X obj 28 192 random 1251;
#X obj 105 192 random 1251;
#X obj 182 192 random 1251;
#X obj 259 192 random 1251;
#X obj 88 11 inlet;
#X obj 88 456 outlet;
#X obj 327 11 inlet lower_limit;
#X obj 473 11 inlet higher_limit;
#X obj 473 81 expr ($f1 + $f2) + 1;
#X connect 1 0 2 0;
#X connect 1 0 8 1;
#X connect 3 0 4 0;
#X connect 3 0 8 2;
#X connect 5 0 6 0;
#X connect 5 0 8 3;
#X connect 7 0 11 0;
#X connect 7 1 12 0;
#X connect 7 2 13 0;
#X connect 7 3 14 0;
#X connect 8 0 9 0;
#X connect 9 0 16 0;
#X connect 10 0 0 0;
#X connect 10 0 8 0;
#X connect 11 0 10 0;
#X connect 12 0 1 0;
#X connect 13 0 3 0;
#X connect 14 0 5 0;
#X connect 15 0 7 0;
#X connect 17 0 5 1;
#X connect 17 0 10 1;
#X connect 17 0 3 1;
#X connect 17 0 1 1;
#X connect 17 0 19 1;
#X connect 18 0 19 0;
#X connect 19 0 14 1;
#X connect 19 0 13 1;
#X connect 19 0 12 1;
#X connect 19 0 11 1;
#X restore 241 427 pd time_generator;
#X obj 170 768 pack f f;
#X obj 170 820 outlet;
#X obj 159 79 inlet;
#X obj 307 96 inlet;
#X obj 413 95 inlet;
#X obj 413 117 unpack f f;
#X connect 0 0 2 0;
#X connect 1 0 0 1;
#X connect 2 0 5 0;
#X connect 2 1 5 1;
#X connect 3 0 4 0;
#X connect 4 0 6 0;
#X connect 4 1 7 0;
#X connect 4 2 2 1;
#X connect 5 0 8 0;
#X connect 5 1 8 1;
#X connect 6 0 0 0;
#X connect 7 0 1 0;
#X connect 8 0 9 0;
#X connect 10 0 3 0;
#X connect 11 0 6 1;
#X connect 12 0 13 0;
#X connect 13 0 7 2;
#X connect 13 1 7 1;
