#N canvas 883 224 1644 1033 10;
#X obj 308 137 pack symbol \$0;
#N canvas 586 443 1262 1153 tables 0;
#N canvas 0 22 450 300 (subpatch) 0;
#X array \$0-arrayL1 1.2348e+06 float 4 black black;
#X coords 0 1 1.2348e+06 -1 200 140 1;
#X restore 92 121 graph;
#N canvas 0 22 450 300 (subpatch) 0;
#X array \$0-arrayR1 1.2348e+06 float 4 black black;
#X coords 0 1 1.2348e+06 -1 200 140 1;
#X restore 318 120 graph;
#N canvas 0 22 450 300 (subpatch) 0;
#X array \$0-arrayL2 1.2348e+06 float 4 black black;
#X coords 0 1 1.2348e+06 -1 200 140 1;
#X restore 92 286 graph;
#N canvas 0 22 450 300 (subpatch) 0;
#X array \$0-arrayR2 1.2348e+06 float 4 black black;
#X coords 0 1 1.2348e+06 -1 200 140 1;
#X restore 318 286 graph;
#N canvas 0 22 450 300 (subpatch) 0;
#X array \$0-arrayL3 1.2348e+06 float 4 black black;
#X coords 0 1 1.2348e+06 -1 200 140 1;
#X restore 92 451 graph;
#N canvas 0 22 450 300 (subpatch) 0;
#X array \$0-arrayR3 1.2348e+06 float 4 black black;
#X coords 0 1 1.2348e+06 -1 200 140 1;
#X restore 318 451 graph;
#N canvas 0 22 450 300 (subpatch) 0;
#X array \$0-arrayL4 1.2348e+06 float 4 black black;
#X coords 0 1 1.2348e+06 -1 200 140 1;
#X restore 92 616 graph;
#N canvas 0 22 450 300 (subpatch) 0;
#X array \$0-arrayR4 1.2348e+06 float 4 black black;
#X coords 0 1 1.2348e+06 -1 200 140 1;
#X restore 318 616 graph;
#X restore 1301 68 pd tables;
#X obj 308 181 soundfiler;
#X msg 308 115 \$1;
#X obj 544 137 pack symbol \$0;
#X obj 544 181 soundfiler;
#X msg 308 159 read -resize \$1 \$2-arrayL1 \$2-arrayR1;
#X msg 544 159 read -resize \$1 \$2-arrayL2 \$2-arrayR2;
#X obj 149 526 tabplay~ \$0-arrayL1;
#X obj 312 564 tabplay~ \$0-arrayR1;
#X obj 791 137 pack symbol \$0;
#X obj 791 181 soundfiler;
#X obj 1027 137 pack symbol \$0;
#X obj 1027 181 soundfiler;
#X msg 544 115 \$2;
#X msg 791 115 \$3;
#X msg 1027 115 \$4;
#X msg 791 159 read -resize \$1 \$2-arrayL3 \$2-arrayR3;
#X msg 1027 159 read -resize \$1 \$2-arrayL4 \$2-arrayR4;
#X msg 316 472 set \$0-arrayR1;
#X msg 417 472 set \$0-arrayR2;
#X msg 526 472 set \$0-arrayR3;
#X msg 637 472 set \$0-arrayR4;
#X msg 316 407 set \$0-arrayL1;
#X msg 417 407 set \$0-arrayL2;
#X msg 526 407 set \$0-arrayL3;
#X msg 637 407 set \$0-arrayL4;
#X obj 316 357 bng 15 250 50 0 empty empty empty 17 7 0 10 -262144
-1 -1;
#X obj 417 360 bng 15 250 50 0 empty empty empty 17 7 0 10 -262144
-1 -1;
#X obj 526 365 bng 15 250 50 0 empty empty empty 17 7 0 10 -262144
-1 -1;
#X obj 637 360 bng 15 250 50 0 empty empty empty 17 7 0 10 -262144
-1 -1;
#X msg 116 28 0;
#X msg 152 28 1;
#X obj 146 380 bng 15 250 50 0 empty empty play 17 7 0 10 -262144 -1
-1;
#X msg 193 380 stop;
#X obj 129 112 route 1 0;
#X obj 129 141 s \$0-on;
#X obj 1378 275 switch~;
#X floatatom 1436 275 5 0 0 0 - - -, f 5;
#X msg 1378 246 1;
#X msg 1408 246 0;
#X obj 1378 202 r \$0-on;
#X obj 1408 221 r \$0-off;
#X obj 108 172 route 1 0;
#N canvas 74 74 1158 781 envelope1 0;
#X obj 353 -378 timer;
#X obj 423 -388 +;
#X obj 423 -417 f;
#X obj 352 -452 t b b;
#X obj 354 -285 >= 0;
#X obj 354 -330 t f f;
#X obj 312 -141 f;
#X msg 312 -108 0 \$1;
#X obj 454 -169 f;
#X obj 454 -144 pack f f f;
#X obj 313 -55 vline~;
#X obj 354 -256 sel 0 1;
#X msg 454 -115 \$1 \$2 \, 0 \$3 \$2;
#X obj 354 -353 expr $f2-$f1;
#X obj 482 -308 min;
#X obj 482 -287 min;
#X text 121 -374 [attack \, decay \, sustain];
#X text 357 -560 [release];
#X obj 150 -141 pack f f f f f;
#X msg 150 -116 \$1 \$2 \, \$3 \$4 \$5;
#X obj 199 -247 *;
#X obj 141 -292 t f f;
#X obj 547 -230 *;
#X obj 313 -35 outlet~;
#X obj 352 -490 sel 1 0;
#X obj 96 -634 inlet velocity;
#X obj 154 -589 inlet A;
#X obj 205 -591 inlet D;
#X obj 255 -591 inlet S;
#X obj 308 -598 inlet R;
#X obj 947 -549 unpack \$1 \$2 \$3 \$4;
#X obj 876 -578 loadbang;
#X obj 352 -511 > 0;
#X obj 114 -323 sel 0;
#X text 670 -626 inlets for individual parameters;
#X text 948 -590 creation arguments for ADSR;
#X text 648 -486 Note that the midi standard is for full velocity to
be 127 \, so that's what we are expecting at our inlet \, and then
we scale by dividing by 127 You can change this so that the patch just
accepts 0->1 scale directly if that is easier for you and you don't
want to follow midi standards.;
#X text 648 -408 The attack \, decay and release are all accepting
millisecond values \, as that seems the clearest way \, but again \,
if you prefer to use midi standards \, or scale 0->1 \, then that is
an easy modification.;
#X text 646 -347 Sustain here takes a 0->1 value. You can change that
too \, depending on what type of controller you wish to use.;
#X obj 122 -471 unpack \$1 \$2 \$3 \$4;
#X obj 123 -519 loadbang;
#X obj 97 -589 / 1;
#X obj 97 -613 clip 0 1;
#X connect 0 0 13 0;
#X connect 1 0 13 1;
#X connect 2 0 1 0;
#X connect 3 0 0 0;
#X connect 3 1 2 0;
#X connect 4 0 11 0;
#X connect 5 0 4 0;
#X connect 5 1 14 0;
#X connect 6 0 7 0;
#X connect 7 0 10 0;
#X connect 8 0 9 0;
#X connect 9 0 12 0;
#X connect 10 0 23 0;
#X connect 11 0 6 0;
#X connect 11 1 8 0;
#X connect 12 0 10 0;
#X connect 13 0 5 0;
#X connect 14 0 15 0;
#X connect 15 0 9 1;
#X connect 18 0 19 0;
#X connect 19 0 10 0;
#X connect 20 0 18 2;
#X connect 21 0 18 0;
#X connect 21 1 20 0;
#X connect 22 0 8 1;
#X connect 24 0 3 0;
#X connect 24 1 0 1;
#X connect 25 0 42 0;
#X connect 26 0 18 1;
#X connect 26 0 18 4;
#X connect 26 0 2 1;
#X connect 27 0 18 3;
#X connect 27 0 14 1;
#X connect 27 0 1 1;
#X connect 28 0 20 1;
#X connect 28 0 22 1;
#X connect 29 0 6 1;
#X connect 29 0 9 2;
#X connect 29 0 15 1;
#X connect 31 0 30 0;
#X connect 32 0 24 0;
#X connect 33 1 21 0;
#X connect 39 0 18 1;
#X connect 39 0 18 4;
#X connect 39 0 2 1;
#X connect 39 1 18 3;
#X connect 39 1 1 1;
#X connect 39 1 14 1;
#X connect 39 2 20 1;
#X connect 39 2 22 1;
#X connect 39 3 6 1;
#X connect 39 3 9 2;
#X connect 39 3 15 1;
#X connect 40 0 39 0;
#X connect 41 0 33 0;
#X connect 41 0 22 0;
#X connect 41 0 32 0;
#X connect 42 0 41 0;
#X restore -4 632 pd envelope1;
#N canvas 495 23 450 300 env_snapshot 0;
#X obj 34 24 snapshot~;
#X obj 125 -21 metro 100;
#X obj 34 53 change;
#X obj 34 82 sel 0;
#X obj 125 -52 loadbang;
#X obj 34 -51 inlet~;
#X obj 34 172 outlet;
#X obj 143 172 outlet;
#X obj 193 -52 bng 15 250 50 0 empty empty empty 17 7 0 10 -262144
-1 -1;
#X connect 0 0 2 0;
#X connect 0 0 7 0;
#X connect 1 0 0 0;
#X connect 2 0 3 0;
#X connect 3 0 6 0;
#X connect 4 0 1 0;
#X connect 5 0 0 0;
#X connect 8 0 1 0;
#X restore 3 660 pd env_snapshot;
#X obj 3 690 t b b;
#X floatatom 122 684 5 0 0 0 - - -, f 5;
#X obj 14 561 unpack f f f f;
#X obj 3 747 s \$0-off;
#X obj 3 719 del 100;
#X obj 213 816 *~;
#X obj 253 816 *~;
#X obj 264 261 urn;
#X obj 264 283 sel 0 1 2 3;
#X obj 90 83 t f f f f;
#X obj 208 111 sel 1;
#X obj 196 951 outlet~;
#X obj 263 950 outlet~;
#X obj 65 8 inlet;
#X obj 312 8 inlet path;
#X obj 425 8 inlet ADSR;
#X connect 0 0 6 0;
#X connect 3 0 0 0;
#X connect 4 0 7 0;
#X connect 6 0 2 0;
#X connect 7 0 5 0;
#X connect 8 0 51 0;
#X connect 8 1 33 0;
#X connect 9 0 52 0;
#X connect 10 0 17 0;
#X connect 12 0 18 0;
#X connect 14 0 4 0;
#X connect 15 0 10 0;
#X connect 16 0 12 0;
#X connect 17 0 11 0;
#X connect 18 0 13 0;
#X connect 19 0 9 0;
#X connect 20 0 9 0;
#X connect 21 0 9 0;
#X connect 22 0 9 0;
#X connect 23 0 8 0;
#X connect 24 0 8 0;
#X connect 25 0 8 0;
#X connect 26 0 8 0;
#X connect 27 0 23 0;
#X connect 27 0 19 0;
#X connect 28 0 24 0;
#X connect 28 0 20 0;
#X connect 29 0 25 0;
#X connect 29 0 21 0;
#X connect 30 0 26 0;
#X connect 30 0 22 0;
#X connect 31 0 55 0;
#X connect 32 0 55 0;
#X connect 33 0 8 0;
#X connect 33 0 9 0;
#X connect 34 0 8 0;
#X connect 34 0 9 0;
#X connect 35 0 36 0;
#X connect 39 0 37 0;
#X connect 39 0 38 0;
#X connect 40 0 38 0;
#X connect 40 0 37 0;
#X connect 41 0 39 0;
#X connect 42 0 40 0;
#X connect 43 0 33 0;
#X connect 44 0 45 0;
#X connect 44 0 52 1;
#X connect 44 0 51 1;
#X connect 45 0 46 0;
#X connect 45 1 47 0;
#X connect 46 0 50 0;
#X connect 46 1 34 0;
#X connect 48 0 44 1;
#X connect 48 1 44 2;
#X connect 48 2 44 3;
#X connect 48 3 44 4;
#X connect 50 0 49 0;
#X connect 51 0 57 0;
#X connect 52 0 58 0;
#X connect 53 0 54 0;
#X connect 54 0 27 0;
#X connect 54 1 28 0;
#X connect 54 2 29 0;
#X connect 54 3 30 0;
#X connect 55 0 44 0;
#X connect 55 1 43 0;
#X connect 55 2 35 0;
#X connect 55 3 56 0;
#X connect 56 0 53 0;
#X connect 59 0 55 0;
#X connect 60 0 3 0;
#X connect 60 0 16 0;
#X connect 60 0 15 0;
#X connect 60 0 14 0;
#X connect 61 0 48 0;
