#N canvas 1055 22 259 167 10;
#X obj 88 110 pack f 1000;
#X obj 88 132 line;
#X obj 88 8 inlet;
#X obj 88 154 outlet;
#X obj 185 39 loadbang;
#X msg 185 68 500;
#X connect 0 0 1 0;
#X connect 1 0 3 0;
#X connect 2 0 0 0;
#X connect 4 0 5 0;
#X connect 5 0 0 1;
