#N canvas 930 266 1630 1129 10;
#X obj 250 -738 fader;
#X obj 45 -1439 inlet;
#X obj 426 -1439 inlet;
#X obj 637 -1439 inlet;
#X obj 250 -515 outlet~ L;
#X obj 333 -515 outlet~ R;
#X msg 365 -1005 all \$1 \$2 \$3 \$4;
#X obj 98 -1172 pack f f;
#X obj 98 -1104 - 1;
#X msg 100 -1350 1;
#X msg 131 -1350 0;
#X msg 99 -1217 1;
#X obj 98 -1142 poly 4 1;
#X obj 201 -935 clone cell_tabplay 4;
#X obj 98 -1057 pack 0 0 0 f;
#X obj 99 -1289 t b f f;
#X obj 142 -1264 sel 1;
#X obj 155 -1238 urn;
#X floatatom 155 -1216 5 0 0 0 - - -, f 5;
#X msg 98 -1035 \$1 \$3 \$4;
#X msg 225 -1075 all \$1 \$2 \$3 \$4;
#X obj 426 -1417 unpack s s s s;
#X obj 413 -1359 pack s s s s;
#X connect 0 0 4 0;
#X connect 0 1 5 0;
#X connect 1 0 15 0;
#X connect 2 0 21 0;
#X connect 3 0 6 0;
#X connect 6 0 13 2;
#X connect 7 0 12 0;
#X connect 8 0 14 0;
#X connect 9 0 15 0;
#X connect 10 0 15 0;
#X connect 11 0 7 0;
#X connect 12 0 8 0;
#X connect 12 1 14 1;
#X connect 12 2 14 2;
#X connect 13 0 0 0;
#X connect 13 1 0 1;
#X connect 14 0 19 0;
#X connect 15 0 11 0;
#X connect 15 1 7 1;
#X connect 15 2 16 0;
#X connect 16 0 17 0;
#X connect 17 0 18 0;
#X connect 18 0 14 3;
#X connect 19 0 13 0;
#X connect 20 0 13 1;
#X connect 21 0 22 0;
#X connect 21 1 22 1;
#X connect 21 2 22 2;
#X connect 21 3 22 3;
#X connect 22 0 20 0;
