#N canvas 495 23 316 360 12;
#X obj 8 -10 inlet;
#X obj 38 340 outlet;
#X obj 38 279 line;
#X obj 70 189 f;
#X obj 38 190 +;
#X obj 8 51 == 0;
#X obj 8 26 t f f;
#X obj 82 117 spigot;
#X obj 37 117 spigot;
#X obj 82 35 loadbang;
#X obj 38 222 clip 0 1;
#X msg 37 157 -0.1;
#X msg 72 157 0.1;
#X obj 38 249 pack f 1000;
#X obj 82 91 metro 1000;
#X obj 150 64 t f f;
#X obj 150 -10 inlet;
#X obj 150 19 / 10;
#X text 192 -10 ramp time in ms;
#X connect 0 0 6 0;
#X connect 2 0 1 0;
#X connect 3 0 4 1;
#X connect 4 0 10 0;
#X connect 5 0 8 1;
#X connect 6 0 5 0;
#X connect 6 1 7 1;
#X connect 7 0 12 0;
#X connect 8 0 11 0;
#X connect 9 0 14 0;
#X connect 10 0 3 0;
#X connect 10 0 13 0;
#X connect 11 0 4 0;
#X connect 12 0 4 0;
#X connect 13 0 2 0;
#X connect 14 0 7 0;
#X connect 14 0 8 0;
#X connect 15 0 14 1;
#X connect 15 1 13 1;
#X connect 16 0 17 0;
#X connect 17 0 15 0;
