#N canvas 1055 22 501 405 10;
#X obj 55 -62 inlet;
#X obj 42 274 outlet;
#X obj 128 274 outlet;
#X obj 210 274 outlet;
#X obj 120 57 >= 0.1;
#X obj 120 101 &&;
#X obj 214 57 >= 0.9;
#X floatatom 212 133 5 0 0 0 - - -, f 5;
#X floatatom 120 133 5 0 0 0 - - -, f 5;
#X floatatom 46 133 5 0 0 0 - - -, f 5;
#X obj 46 97 &&;
#X obj 77 57 < 0.1;
#X obj 46 57 > 0;
#X obj 46 154 change;
#X obj 120 154 change;
#X obj 212 154 change;
#X obj 169 57 < 0.9;
#X connect 0 0 6 0;
#X connect 0 0 4 0;
#X connect 0 0 12 0;
#X connect 0 0 11 0;
#X connect 0 0 16 0;
#X connect 4 0 5 0;
#X connect 5 0 8 0;
#X connect 6 0 7 0;
#X connect 7 0 15 0;
#X connect 8 0 14 0;
#X connect 9 0 13 0;
#X connect 10 0 9 0;
#X connect 11 0 10 1;
#X connect 12 0 10 0;
#X connect 13 0 1 0;
#X connect 14 0 2 0;
#X connect 15 0 3 0;
#X connect 16 0 5 1;
