#N canvas 1055 22 881 975 10;
#X obj 183 -1010 pack symbol \$0;
#X obj 48 -1105 pack f f;
#X obj 48 -1037 - 1;
#X obj 48 -990 pack 0 0 0;
#X obj 250 -819 clone pad_cell 8;
#X msg 428 -940 all \$1 \$2 \$3 \$4;
#X obj 48 -1075 poly 8 1;
#X obj 184 -1165 sel 1;
#X msg 183 -984 next \$1;
#X obj 116 -1210 t f f;
#X obj 192 -1098 sel 0 1 2 3;
#X obj 302 -1180 loadbang;
#X floatatom 265 -1100 5 0 0 0 - - -, f 5;
#X text 62 -823 polyphonic single sample >;
#X obj 250 -738 fader;
#X msg 587 -935 all \$1;
#X msg 98 -1392 1;
#X msg 129 -1392 0;
#X msg 48 -1245 1;
#X obj 48 -1317 t b f;
#X obj 188 -1052 symbol;
#X obj 236 -1052 symbol;
#X obj 284 -1052 symbol;
#X obj 332 -1052 symbol;
#X obj 426 -1246 unpack s s s s;
#X obj 45 -1439 inlet;
#X obj 426 -1439 inlet;
#X obj 637 -1439 inlet;
#X obj 808 -1439 inlet;
#X text 163 -1393 testing;
#X obj 250 -515 outlet~ L;
#X obj 333 -515 outlet~ R;
#X obj 191 -1132 urn;
#X text 336 -1158 number here equals number of round robins;
#X obj 116 -895 list;
#X obj 61 -959 t b l;
#X obj 41 -917 del 50;
#X msg 302 -1158 4;
#X text 103 -937 Be careful \, delay introduced to load sample;
#X connect 0 0 8 0;
#X connect 1 0 6 0;
#X connect 2 0 3 0;
#X connect 3 0 35 0;
#X connect 4 0 14 0;
#X connect 4 1 14 1;
#X connect 5 0 4 2;
#X connect 6 0 2 0;
#X connect 6 1 3 1;
#X connect 6 2 3 2;
#X connect 7 0 32 0;
#X connect 8 0 4 1;
#X connect 9 0 1 1;
#X connect 9 1 7 0;
#X connect 10 0 20 0;
#X connect 10 1 21 0;
#X connect 10 2 22 0;
#X connect 10 3 23 0;
#X connect 11 0 37 0;
#X connect 14 0 30 0;
#X connect 14 1 31 0;
#X connect 15 0 4 3;
#X connect 16 0 19 0;
#X connect 17 0 19 0;
#X connect 18 0 1 0;
#X connect 19 0 18 0;
#X connect 19 1 9 0;
#X connect 20 0 0 0;
#X connect 21 0 0 0;
#X connect 22 0 0 0;
#X connect 23 0 0 0;
#X connect 24 0 20 1;
#X connect 24 1 21 1;
#X connect 24 2 22 1;
#X connect 24 3 23 1;
#X connect 25 0 19 0;
#X connect 26 0 24 0;
#X connect 27 0 5 0;
#X connect 28 0 15 0;
#X connect 32 0 10 0;
#X connect 32 0 12 0;
#X connect 34 0 4 0;
#X connect 35 0 36 0;
#X connect 35 0 34 0;
#X connect 35 1 34 1;
#X connect 37 0 32 1;
