#N canvas 279 145 804 708 10;
#N canvas 0 22 450 300 (subpatch) 0;
#X array \$0-urn.bin 4 float 2 black black;
#X coords 0 1 4 -1 200 140 1;
#X restore 464 224 graph;
#X obj 148 219 tabread \$0-urn.bin;
#X obj 148 190 t f f;
#X obj 514 177 s \$0-urn.bin;
#X obj 121 256 sel 0 1;
#X obj 152 330 + 1;
#X msg 170 537 const 1;
#X obj 284 481 f;
#X msg 78 343 0;
#X obj 142 508 t b b;
#X msg 284 534 \$1 0;
#X obj 206 617 s \$0-urn.bin;
#X obj 123 330 f 0;
#X obj 166 400 sel 0;
#X obj 181 361 t f b;
#X obj 142 106 bng 15 250 50 0 empty empty empty 17 7 0 10 -262144
-1 -1;
#X obj 140 164 random 10;
#X obj 181 330 % 10;
#X floatatom 308 92 5 0 0 0 - - -, f 5;
#X text 342 93 urn size;
#X floatatom 415 542 5 0 0 0 - - -, f 5;
#X text 455 543 output;
#X obj 308 119 t f b f;
#X msg 365 148 resize \$1 \, const 1;
#X obj 236 15 loadbang;
#X msg 278 55 4;
#X obj 357 18 inlet;
#X obj 417 649 outlet;
#X obj 143 20 inlet;
#X connect 1 0 4 0;
#X connect 2 0 1 0;
#X connect 2 1 7 1;
#X connect 4 0 16 0;
#X connect 4 1 12 0;
#X connect 5 0 17 0;
#X connect 6 0 11 0;
#X connect 7 0 20 0;
#X connect 7 0 10 0;
#X connect 8 0 12 1;
#X connect 9 0 8 0;
#X connect 9 1 6 0;
#X connect 10 0 11 0;
#X connect 12 0 5 0;
#X connect 13 0 9 0;
#X connect 14 0 13 0;
#X connect 14 1 7 0;
#X connect 15 0 16 0;
#X connect 16 0 2 0;
#X connect 17 0 12 1;
#X connect 17 0 14 0;
#X connect 18 0 22 0;
#X connect 20 0 27 0;
#X connect 22 0 16 1;
#X connect 22 0 17 1;
#X connect 22 1 8 0;
#X connect 22 2 23 0;
#X connect 23 0 3 0;
#X connect 24 0 25 0;
#X connect 25 0 18 0;
#X connect 26 0 18 0;
#X connect 28 0 15 0;
