#N canvas 289 70 1957 1325 10;
#X declare -path ./components;
#X obj 36 32 declare -path ./components;
#X obj 686 830 tgl 15 0 empty empty random\ start\ point\ on/off 17
7 0 10 -262144 -1 -1 0 1;
#X msg 412 671 1;
#X msg 455 672 0;
#N canvas 1055 22 621 433 load_sound 0;
#X obj 78 164 pack s;
#X obj 169 164 pack s;
#X obj 260 164 pack s;
#X obj 351 163 pack s;
#X obj 88 16 loadbang;
#X obj 88 38 t b b b b b;
#X obj 82 303 outlet;
#X obj 82 223 pack s s s s;
#X obj 14 186 bng 15 250 50 0 empty empty flush\ new\ samples 17 7
0 10 -262144 -1 -1;
#X obj 53 11 bng 15 250 50 0 empty empty empty 17 7 0 10 -262144 -1
-1;
#X msg 169 100 pad_2.wav;
#X msg 259 100 pad_3.wav;
#X msg 79 99 pad_1.wav;
#X msg 351 98 pad_4.wav;
#X connect 0 0 7 0;
#X connect 1 0 7 1;
#X connect 2 0 7 2;
#X connect 3 0 7 3;
#X connect 4 0 5 0;
#X connect 5 0 12 0;
#X connect 5 1 10 0;
#X connect 5 2 11 0;
#X connect 5 3 13 0;
#X connect 7 0 6 0;
#X connect 8 0 7 0;
#X connect 9 0 5 0;
#X connect 10 0 1 0;
#X connect 11 0 2 0;
#X connect 12 0 0 0;
#X connect 13 0 3 0;
#X coords 0 0 1 1 85 60 0;
#X restore 518 707 pd load_sound;
#X obj 578 752 loadbang;
#X text 685 791 ADSR;
#X obj 494 892 soundmodule;
#X obj 507 1052 dac~ 1 2 3 4;
#X obj 706 267 list;
#X obj 706 201 loadbang;
#X obj 706 296 print touchSensor;
#X obj 701 -53 loadbang;
#X obj 914 147 r bela_trill;
#X obj 706 83 s bela_setTrill;
#X text 860 -35 First initialise the Trill sensor;
#X text 1027 177 This receives the reading from the Trill sensor.;
#X text 1031 213 Which will be prepended with the sensor_id;
#X text 1188 94 [prescaler <sensor_id> <value> (between 1 and 8);
#X text 1187 115 [threshold <sensor_id> <value>(between 0 and 1.0)
;
#X obj 914 184 route mycraft;
#X text 1779 -2 device that was successfully initialised. The message
;
#X text 1779 8 will contain: <sensor_id> <device> <mode> <address>
;
#X text 1778 -13 bela_trillCreated will receive a message for each
;
#X obj 1783 40 r bela_trillCreated;
#X obj 1783 69 print bela_trillCreated;
#X text 1187 74 We are also changing settings on initialisation:;
#X text 830 -2 Message: [new <sensor_id> <bus> <device> <address=255>(
;
#N canvas 857 267 859 704 parse_group 0;
#X obj 48 42 inlet;
#X obj 92 42 inlet;
#X obj 136 42 inlet;
#X obj 180 42 inlet;
#X obj 224 42 inlet;
#X obj 268 42 inlet;
#X obj 312 42 inlet;
#X obj 356 42 inlet;
#X obj 400 42 inlet;
#X obj 48 220 parse;
#X obj 102 220 parse;
#X obj 156 220 parse;
#X obj 210 220 parse;
#X obj 264 220 parse;
#X obj 318 220 parse;
#X obj 372 220 parse;
#X obj 426 220 parse;
#X obj 480 220 parse;
#X obj 92 439 pack f f f f f f f f f;
#X obj 92 579 outlet;
#X obj 480 256 t b f;
#X obj 426 256 t b f;
#X obj 372 256 t b f;
#X obj 318 256 t b f;
#X obj 210 256 t b f;
#X obj 156 256 t b f;
#X obj 102 256 t b f;
#X obj 48 256 t b f;
#X obj 264 256 t b f;
#X connect 0 0 9 0;
#X connect 1 0 10 0;
#X connect 2 0 11 0;
#X connect 3 0 12 0;
#X connect 4 0 13 0;
#X connect 5 0 14 0;
#X connect 6 0 15 0;
#X connect 7 0 16 0;
#X connect 8 0 17 0;
#X connect 9 0 27 0;
#X connect 10 0 26 0;
#X connect 11 0 25 0;
#X connect 12 0 24 0;
#X connect 13 0 28 0;
#X connect 14 0 23 0;
#X connect 15 0 22 0;
#X connect 16 0 21 0;
#X connect 17 0 20 0;
#X connect 18 0 19 0;
#X connect 20 0 18 0;
#X connect 20 1 18 8;
#X connect 21 0 18 0;
#X connect 21 1 18 7;
#X connect 22 0 18 0;
#X connect 22 1 18 6;
#X connect 23 0 18 0;
#X connect 23 1 18 5;
#X connect 24 0 18 0;
#X connect 24 1 18 3;
#X connect 25 0 18 0;
#X connect 25 1 18 2;
#X connect 26 0 18 0;
#X connect 26 1 18 1;
#X connect 27 1 18 0;
#X connect 28 0 18 0;
#X connect 28 1 18 4;
#X restore 946 403 pd parse_group, f 70;
#X obj 1862 117 loadbang;
#X obj 892 275 unpack f f f f f f f f f f f f f f f f f f f f f f f
f f f f f f f, f 67;
#X text 1923 149 set DIFF thresholds;
#X obj 717 415 list;
#X text 732 317 Print Raw Values;
#X text 705 533 Print Binary / Filtered Values;
#N canvas 263 652 871 541 grp_scaling 0;
#X obj 67 56 unpack f f f f f f f f f;
#X obj 67 226 scaler;
#X obj 133 226 scaler;
#X obj 199 226 scaler;
#X obj 270 226 scaler;
#X obj 336 226 scaler;
#X obj 404 226 scaler;
#X obj 470 226 scaler;
#X obj 541 226 scaler;
#X obj 607 226 scaler;
#X obj 70 357 pack f f f f f f f f f;
#X obj 70 382 outlet;
#X obj 68 5 inlet;
#X floatatom 32 261 5 0 0 0 - - -, f 5;
#N canvas 1106 944 1185 1049 scale_down 0;
#X obj 126 98 * 0.9827;
#X obj 182 178 * 0.9827;
#X obj 262 254 * 0.9827;
#X obj 326 337 * 0.9827;
#X obj 394 421 * 0.9827;
#X obj 461 506 * 0.9827;
#X obj 523 592 * 0.9827;
#X obj 595 675 * 0.9827;
#X obj 70 7 inlet;
#X obj 42 859 outlet;
#X obj 92 859 outlet;
#X obj 142 859 outlet;
#X obj 192 859 outlet;
#X obj 242 859 outlet;
#X obj 292 859 outlet;
#X obj 342 859 outlet;
#X obj 392 859 outlet;
#X obj 444 5 inlet;
#X connect 0 0 9 0;
#X connect 0 0 1 0;
#X connect 1 0 10 0;
#X connect 1 0 2 0;
#X connect 2 0 11 0;
#X connect 2 0 3 0;
#X connect 3 0 12 0;
#X connect 3 0 4 0;
#X connect 4 0 13 0;
#X connect 4 0 5 0;
#X connect 5 0 14 0;
#X connect 5 0 6 0;
#X connect 6 0 15 0;
#X connect 6 0 7 0;
#X connect 7 0 16 0;
#X connect 8 0 0 0;
#X connect 17 0 0 1;
#X connect 17 0 7 1;
#X connect 17 0 6 1;
#X connect 17 0 5 1;
#X connect 17 0 4 1;
#X connect 17 0 3 1;
#X connect 17 0 2 1;
#X connect 17 0 1 1;
#X restore 315 60 pd scale_down;
#X obj 311 17 r full_touch;
#X msg 101 191 0 \$1 0 1;
#X obj 456 19 r scale_down;
#X msg 168 191 0 \$1 0 1;
#X msg 235 191 0 \$1 0 1;
#X msg 302 191 0 \$1 0 1;
#X msg 369 191 0 \$1 0 1;
#X msg 436 191 0 \$1 0 1;
#X msg 503 191 0 \$1 0 1;
#X msg 570 191 0 \$1 0 1;
#X msg 637 191 0 \$1 0 1;
#X obj 607 258 t b f;
#X obj 541 258 t b f;
#X obj 470 258 t b f;
#X obj 404 258 t b f;
#X obj 336 258 t b f;
#X obj 270 258 t b f;
#X obj 199 258 t b f;
#X obj 133 258 t b f;
#X connect 0 0 1 0;
#X connect 0 1 2 0;
#X connect 0 2 3 0;
#X connect 0 3 4 0;
#X connect 0 4 5 0;
#X connect 0 5 6 0;
#X connect 0 6 7 0;
#X connect 0 7 8 0;
#X connect 0 8 9 0;
#X connect 1 0 13 0;
#X connect 1 0 10 0;
#X connect 2 0 33 0;
#X connect 3 0 32 0;
#X connect 4 0 31 0;
#X connect 5 0 30 0;
#X connect 6 0 29 0;
#X connect 7 0 28 0;
#X connect 8 0 27 0;
#X connect 9 0 26 0;
#X connect 10 0 11 0;
#X connect 12 0 0 0;
#X connect 14 0 18 0;
#X connect 14 1 19 0;
#X connect 14 2 20 0;
#X connect 14 3 21 0;
#X connect 14 4 22 0;
#X connect 14 5 23 0;
#X connect 14 6 24 0;
#X connect 14 7 25 0;
#X connect 15 0 14 0;
#X connect 15 0 16 0;
#X connect 16 0 1 1;
#X connect 17 0 14 1;
#X connect 18 0 2 1;
#X connect 19 0 3 1;
#X connect 20 0 4 1;
#X connect 21 0 5 1;
#X connect 22 0 6 1;
#X connect 23 0 7 1;
#X connect 24 0 8 1;
#X connect 25 0 9 1;
#X connect 26 0 10 0;
#X connect 26 1 10 8;
#X connect 27 0 10 0;
#X connect 27 1 10 7;
#X connect 28 0 10 0;
#X connect 28 1 10 6;
#X connect 29 0 10 0;
#X connect 29 1 10 5;
#X connect 30 0 10 0;
#X connect 30 1 10 4;
#X connect 31 0 10 0;
#X connect 31 1 10 3;
#X connect 32 0 10 0;
#X connect 32 1 10 2;
#X connect 33 0 10 0;
#X connect 33 1 10 1;
#X restore 979 551 pd grp_scaling;
#X msg 435 70 updateBaseline mycraft;
#X obj 1862 174 s full_touch;
#X msg 1862 149 0.7;
#X obj 1862 255 s scale_down;
#X text 1958 240 amount to scale down each electrode;
#X obj 1080 443 s unfiltered_data;
#X obj 552 -67 r unfiltered_data;
#N canvas 768 380 1450 977 reset_logic 0;
#X obj 200 14 inlet;
#X obj 38 198 unpack f f f f f f f f f;
#X obj 361 376 change;
#X obj 361 332 line;
#X obj 38 280 > 0.1;
#X obj 38 324 line;
#X obj 38 346 == 1;
#X obj 277 518 spigot;
#X obj 361 354 == 1;
#X obj 361 288 < 0.06;
#X msg 100 445 1, f 2;
#X msg 145 443 0;
#X obj 146 341 line;
#X obj 146 319 pack f 100;
#X obj 38 390 sel 1;
#X obj 38 368 change;
#X obj 146 363 change;
#X obj 145 385 sel 1;
#X obj 361 398 sel 1;
#X obj 195 198 unpack f f f f f f f f f;
#X obj 352 198 unpack f f f f f f f f f;
#X obj 146 289 == 0;
#X msg 363 595 1;
#X obj 200 67 t l l l l;
#X obj 570 195 unpack f f f f f f f f f;
#X obj 575 324 line;
#X obj 575 346 change;
#X obj 574 368 sel 1;
#X obj 575 272 == 0;
#X msg 449 591 0;
#X obj 449 613 t f f;
#X obj 383 812 outlet;
#X floatatom 447 26 5 0 0 0 - - -, f 5;
#X obj 361 310 pack f 0;
#N canvas 0 22 450 300 list-max 0;
#X obj 106 57 route float;
#X obj 131 187 f;
#X obj 77 343 outlet;
#X obj 133 308 f;
#X obj 133 345 outlet;
#X obj 77 224 t b b;
#X obj 77 -75 inlet;
#X obj 77 308 f;
#N canvas 0 22 450 300 once 0;
#X obj 110 75 inlet;
#X obj 105 187 spigot 1;
#X obj 110 104 t b f;
#X msg 125 151 0;
#X msg 165 99 1;
#X obj 165 63 inlet;
#X obj 102 219 outlet;
#X connect 0 0 2 0;
#X connect 1 0 6 0;
#X connect 2 0 3 0;
#X connect 2 1 1 0;
#X connect 3 0 1 1;
#X connect 4 0 1 1;
#X connect 5 0 4 0;
#X restore 198 135 pd once;
#X obj 92 187 max;
#X text 253 135 prime [min] and [max] with first item once;
#X obj 171 187 bang;
#X msg 300 187 0;
#X obj 126 223 change;
#X obj 158 281 f;
#X obj 126 252 bang;
#N canvas 917 609 301 314 cup 0;
#X obj 64 45 inlet;
#X obj 64 161 i;
#X obj 104 161 + 1;
#X obj 64 99 route bang setbang float;
#X obj 64 235 outlet;
#X connect 0 0 3 0;
#X connect 1 0 2 0;
#X connect 1 0 4 0;
#X connect 2 0 1 1;
#X connect 3 0 1 0;
#X connect 3 1 1 0;
#X connect 3 2 1 1;
#X restore 173 223 pd cup;
#N canvas 833 279 728 567 list-drip 0;
#X obj 73 94 t a a;
#X obj 73 251 spigot;
#X obj 112 159 bang;
#X obj 112 178 1;
#X obj 233 159 route bang;
#X obj 193 160 bang;
#X obj 193 179 0;
#X obj 112 124 list split 2;
#X obj 242 389 list split;
#X obj 309 338 list length;
#X obj 309 360 >> 1;
#X obj 73 270 t a a a a;
#X obj 73 456 list split;
#X obj 140 408 list length;
#X obj 140 433 >> 1;
#X obj 41 29 inlet;
#X obj 300 185 outlet;
#X text 83 29 Copyright 2009 by Mathieu Bouchard;
#X obj 41 63 t b a;
#X obj 475 129 outlet;
#X text 530 131 signal end of list;
#X text 391 33 made compatible with [list-drip]: fbar 2009;
#X connect 0 0 1 0;
#X connect 0 1 7 0;
#X connect 1 0 11 0;
#X connect 2 0 3 0;
#X connect 3 0 1 1;
#X connect 4 1 16 0;
#X connect 5 0 6 0;
#X connect 6 0 1 1;
#X connect 7 0 2 0;
#X connect 7 2 4 0;
#X connect 7 2 5 0;
#X connect 8 0 0 0;
#X connect 9 0 10 0;
#X connect 10 0 8 1;
#X connect 11 0 12 0;
#X connect 11 1 13 0;
#X connect 11 2 8 0;
#X connect 11 3 9 0;
#X connect 12 1 0 0;
#X connect 13 0 14 0;
#X connect 14 0 12 1;
#X connect 15 0 18 0;
#X connect 18 0 19 0;
#X connect 18 1 0 0;
#X restore 106 32 pd list-drip;
#X obj 77 -37 trigger b a b b;
#X obj 92 84 trigger a a a;
#X connect 0 0 19 0;
#X connect 1 0 9 1;
#X connect 3 0 4 0;
#X connect 5 0 7 0;
#X connect 5 1 3 0;
#X connect 6 0 18 0;
#X connect 7 0 2 0;
#X connect 8 0 9 1;
#X connect 9 0 1 0;
#X connect 9 0 7 1;
#X connect 9 0 13 0;
#X connect 11 0 16 0;
#X connect 12 0 14 0;
#X connect 12 0 16 0;
#X connect 13 0 15 0;
#X connect 14 0 3 1;
#X connect 15 0 14 0;
#X connect 16 0 14 1;
#X connect 17 0 0 0;
#X connect 18 0 5 0;
#X connect 18 1 17 0;
#X connect 18 2 8 1;
#X connect 18 3 12 0;
#X connect 19 0 9 0;
#X connect 19 1 11 0;
#X connect 19 2 8 0;
#X restore 47 162 pd list-max;
#N canvas 0 22 450 300 list-max 0;
#X obj 106 57 route float;
#X obj 131 187 f;
#X obj 77 343 outlet;
#X obj 133 308 f;
#X obj 133 345 outlet;
#X obj 77 224 t b b;
#X obj 77 -75 inlet;
#X obj 77 308 f;
#N canvas 0 22 450 300 once 0;
#X obj 110 75 inlet;
#X obj 105 187 spigot 1;
#X obj 110 104 t b f;
#X msg 125 151 0;
#X msg 165 99 1;
#X obj 165 63 inlet;
#X obj 102 219 outlet;
#X connect 0 0 2 0;
#X connect 1 0 6 0;
#X connect 2 0 3 0;
#X connect 2 1 1 0;
#X connect 3 0 1 1;
#X connect 4 0 1 1;
#X connect 5 0 4 0;
#X restore 198 135 pd once;
#X obj 92 187 max;
#X text 253 135 prime [min] and [max] with first item once;
#X obj 171 187 bang;
#X msg 300 187 0;
#X obj 126 223 change;
#X obj 158 281 f;
#X obj 126 252 bang;
#N canvas 917 609 301 314 cup 0;
#X obj 64 45 inlet;
#X obj 64 161 i;
#X obj 104 161 + 1;
#X obj 64 99 route bang setbang float;
#X obj 64 235 outlet;
#X connect 0 0 3 0;
#X connect 1 0 2 0;
#X connect 1 0 4 0;
#X connect 2 0 1 1;
#X connect 3 0 1 0;
#X connect 3 1 1 0;
#X connect 3 2 1 1;
#X restore 173 223 pd cup;
#N canvas 833 279 728 567 list-drip 0;
#X obj 73 94 t a a;
#X obj 73 251 spigot;
#X obj 112 159 bang;
#X obj 112 178 1;
#X obj 233 159 route bang;
#X obj 193 160 bang;
#X obj 193 179 0;
#X obj 112 124 list split 2;
#X obj 242 389 list split;
#X obj 309 338 list length;
#X obj 309 360 >> 1;
#X obj 73 270 t a a a a;
#X obj 73 456 list split;
#X obj 140 408 list length;
#X obj 140 433 >> 1;
#X obj 41 29 inlet;
#X obj 300 185 outlet;
#X text 83 29 Copyright 2009 by Mathieu Bouchard;
#X obj 41 63 t b a;
#X obj 475 129 outlet;
#X text 530 131 signal end of list;
#X text 391 33 made compatible with [list-drip]: fbar 2009;
#X connect 0 0 1 0;
#X connect 0 1 7 0;
#X connect 1 0 11 0;
#X connect 2 0 3 0;
#X connect 3 0 1 1;
#X connect 4 1 16 0;
#X connect 5 0 6 0;
#X connect 6 0 1 1;
#X connect 7 0 2 0;
#X connect 7 2 4 0;
#X connect 7 2 5 0;
#X connect 8 0 0 0;
#X connect 9 0 10 0;
#X connect 10 0 8 1;
#X connect 11 0 12 0;
#X connect 11 1 13 0;
#X connect 11 2 8 0;
#X connect 11 3 9 0;
#X connect 12 1 0 0;
#X connect 13 0 14 0;
#X connect 14 0 12 1;
#X connect 15 0 18 0;
#X connect 18 0 19 0;
#X connect 18 1 0 0;
#X restore 106 32 pd list-drip;
#X obj 77 -37 trigger b a b b;
#X obj 92 84 trigger a a a;
#X connect 0 0 19 0;
#X connect 1 0 9 1;
#X connect 3 0 4 0;
#X connect 5 0 7 0;
#X connect 5 1 3 0;
#X connect 6 0 18 0;
#X connect 7 0 2 0;
#X connect 8 0 9 1;
#X connect 9 0 1 0;
#X connect 9 0 7 1;
#X connect 9 0 13 0;
#X connect 11 0 16 0;
#X connect 12 0 14 0;
#X connect 12 0 16 0;
#X connect 13 0 15 0;
#X connect 14 0 3 1;
#X connect 15 0 14 0;
#X connect 16 0 14 1;
#X connect 17 0 0 0;
#X connect 18 0 5 0;
#X connect 18 1 17 0;
#X connect 18 2 8 1;
#X connect 18 3 12 0;
#X connect 19 0 9 0;
#X connect 19 1 11 0;
#X connect 19 2 8 0;
#X restore 199 160 pd list-max;
#N canvas 0 22 450 300 list-max 0;
#X obj 106 57 route float;
#X obj 131 187 f;
#X obj 77 343 outlet;
#X obj 133 308 f;
#X obj 133 345 outlet;
#X obj 77 224 t b b;
#X obj 77 -75 inlet;
#X obj 77 308 f;
#N canvas 0 22 450 300 once 0;
#X obj 110 75 inlet;
#X obj 105 187 spigot 1;
#X obj 110 104 t b f;
#X msg 125 151 0;
#X msg 165 99 1;
#X obj 165 63 inlet;
#X obj 102 219 outlet;
#X connect 0 0 2 0;
#X connect 1 0 6 0;
#X connect 2 0 3 0;
#X connect 2 1 1 0;
#X connect 3 0 1 1;
#X connect 4 0 1 1;
#X connect 5 0 4 0;
#X restore 198 135 pd once;
#X obj 92 187 max;
#X text 253 135 prime [min] and [max] with first item once;
#X obj 171 187 bang;
#X msg 300 187 0;
#X obj 126 223 change;
#X obj 158 281 f;
#X obj 126 252 bang;
#N canvas 917 609 301 314 cup 0;
#X obj 64 45 inlet;
#X obj 64 161 i;
#X obj 104 161 + 1;
#X obj 64 99 route bang setbang float;
#X obj 64 235 outlet;
#X connect 0 0 3 0;
#X connect 1 0 2 0;
#X connect 1 0 4 0;
#X connect 2 0 1 1;
#X connect 3 0 1 0;
#X connect 3 1 1 0;
#X connect 3 2 1 1;
#X restore 173 223 pd cup;
#N canvas 833 279 728 567 list-drip 0;
#X obj 73 94 t a a;
#X obj 73 251 spigot;
#X obj 112 159 bang;
#X obj 112 178 1;
#X obj 233 159 route bang;
#X obj 193 160 bang;
#X obj 193 179 0;
#X obj 112 124 list split 2;
#X obj 242 389 list split;
#X obj 309 338 list length;
#X obj 309 360 >> 1;
#X obj 73 270 t a a a a;
#X obj 73 456 list split;
#X obj 140 408 list length;
#X obj 140 433 >> 1;
#X obj 41 29 inlet;
#X obj 300 185 outlet;
#X text 83 29 Copyright 2009 by Mathieu Bouchard;
#X obj 41 63 t b a;
#X obj 475 129 outlet;
#X text 530 131 signal end of list;
#X text 391 33 made compatible with [list-drip]: fbar 2009;
#X connect 0 0 1 0;
#X connect 0 1 7 0;
#X connect 1 0 11 0;
#X connect 2 0 3 0;
#X connect 3 0 1 1;
#X connect 4 1 16 0;
#X connect 5 0 6 0;
#X connect 6 0 1 1;
#X connect 7 0 2 0;
#X connect 7 2 4 0;
#X connect 7 2 5 0;
#X connect 8 0 0 0;
#X connect 9 0 10 0;
#X connect 10 0 8 1;
#X connect 11 0 12 0;
#X connect 11 1 13 0;
#X connect 11 2 8 0;
#X connect 11 3 9 0;
#X connect 12 1 0 0;
#X connect 13 0 14 0;
#X connect 14 0 12 1;
#X connect 15 0 18 0;
#X connect 18 0 19 0;
#X connect 18 1 0 0;
#X restore 106 32 pd list-drip;
#X obj 77 -37 trigger b a b b;
#X obj 92 84 trigger a a a;
#X connect 0 0 19 0;
#X connect 1 0 9 1;
#X connect 3 0 4 0;
#X connect 5 0 7 0;
#X connect 5 1 3 0;
#X connect 6 0 18 0;
#X connect 7 0 2 0;
#X connect 8 0 9 1;
#X connect 9 0 1 0;
#X connect 9 0 7 1;
#X connect 9 0 13 0;
#X connect 11 0 16 0;
#X connect 12 0 14 0;
#X connect 12 0 16 0;
#X connect 13 0 15 0;
#X connect 14 0 3 1;
#X connect 15 0 14 0;
#X connect 16 0 14 1;
#X connect 17 0 0 0;
#X connect 18 0 5 0;
#X connect 18 1 17 0;
#X connect 18 2 8 1;
#X connect 18 3 12 0;
#X connect 19 0 9 0;
#X connect 19 1 11 0;
#X connect 19 2 8 0;
#X restore 351 156 pd list-max;
#N canvas 0 22 450 300 list-max 0;
#X obj 106 57 route float;
#X obj 131 187 f;
#X obj 77 343 outlet;
#X obj 133 308 f;
#X obj 133 345 outlet;
#X obj 77 224 t b b;
#X obj 77 -75 inlet;
#X obj 77 308 f;
#N canvas 0 22 450 300 once 0;
#X obj 110 75 inlet;
#X obj 105 187 spigot 1;
#X obj 110 104 t b f;
#X msg 125 151 0;
#X msg 165 99 1;
#X obj 165 63 inlet;
#X obj 102 219 outlet;
#X connect 0 0 2 0;
#X connect 1 0 6 0;
#X connect 2 0 3 0;
#X connect 2 1 1 0;
#X connect 3 0 1 1;
#X connect 4 0 1 1;
#X connect 5 0 4 0;
#X restore 198 135 pd once;
#X obj 92 187 max;
#X text 253 135 prime [min] and [max] with first item once;
#X obj 171 187 bang;
#X msg 300 187 0;
#X obj 126 223 change;
#X obj 158 281 f;
#X obj 126 252 bang;
#N canvas 917 609 301 314 cup 0;
#X obj 64 45 inlet;
#X obj 64 161 i;
#X obj 104 161 + 1;
#X obj 64 99 route bang setbang float;
#X obj 64 235 outlet;
#X connect 0 0 3 0;
#X connect 1 0 2 0;
#X connect 1 0 4 0;
#X connect 2 0 1 1;
#X connect 3 0 1 0;
#X connect 3 1 1 0;
#X connect 3 2 1 1;
#X restore 173 223 pd cup;
#N canvas 833 279 728 567 list-drip 0;
#X obj 73 94 t a a;
#X obj 73 251 spigot;
#X obj 112 159 bang;
#X obj 112 178 1;
#X obj 233 159 route bang;
#X obj 193 160 bang;
#X obj 193 179 0;
#X obj 112 124 list split 2;
#X obj 242 389 list split;
#X obj 309 338 list length;
#X obj 309 360 >> 1;
#X obj 73 270 t a a a a;
#X obj 73 456 list split;
#X obj 140 408 list length;
#X obj 140 433 >> 1;
#X obj 41 29 inlet;
#X obj 300 185 outlet;
#X text 83 29 Copyright 2009 by Mathieu Bouchard;
#X obj 41 63 t b a;
#X obj 475 129 outlet;
#X text 530 131 signal end of list;
#X text 391 33 made compatible with [list-drip]: fbar 2009;
#X connect 0 0 1 0;
#X connect 0 1 7 0;
#X connect 1 0 11 0;
#X connect 2 0 3 0;
#X connect 3 0 1 1;
#X connect 4 1 16 0;
#X connect 5 0 6 0;
#X connect 6 0 1 1;
#X connect 7 0 2 0;
#X connect 7 2 4 0;
#X connect 7 2 5 0;
#X connect 8 0 0 0;
#X connect 9 0 10 0;
#X connect 10 0 8 1;
#X connect 11 0 12 0;
#X connect 11 1 13 0;
#X connect 11 2 8 0;
#X connect 11 3 9 0;
#X connect 12 1 0 0;
#X connect 13 0 14 0;
#X connect 14 0 12 1;
#X connect 15 0 18 0;
#X connect 18 0 19 0;
#X connect 18 1 0 0;
#X restore 106 32 pd list-drip;
#X obj 77 -37 trigger b a b b;
#X obj 92 84 trigger a a a;
#X connect 0 0 19 0;
#X connect 1 0 9 1;
#X connect 3 0 4 0;
#X connect 5 0 7 0;
#X connect 5 1 3 0;
#X connect 6 0 18 0;
#X connect 7 0 2 0;
#X connect 8 0 9 1;
#X connect 9 0 1 0;
#X connect 9 0 7 1;
#X connect 9 0 13 0;
#X connect 11 0 16 0;
#X connect 12 0 14 0;
#X connect 12 0 16 0;
#X connect 13 0 15 0;
#X connect 14 0 3 1;
#X connect 15 0 14 0;
#X connect 16 0 14 1;
#X connect 17 0 0 0;
#X connect 18 0 5 0;
#X connect 18 1 17 0;
#X connect 18 2 8 1;
#X connect 18 3 12 0;
#X connect 19 0 9 0;
#X connect 19 1 11 0;
#X connect 19 2 8 0;
#X restore 585 158 pd list-max;
#X obj 38 302 pack f 0;
#X obj 731 714 f;
#X obj 768 714 + 1;
#X obj 731 736 mod 2;
#X obj 849 801 bng 23 250 50 0 empty empty empty 17 7 0 10 -262144
-1 -1;
#X obj 735 778 metro 100;
#X obj 379 663 metro 200;
#X obj 575 302 pack f 1;
#X connect 0 0 23 0;
#X connect 1 0 4 0;
#X connect 1 1 4 0;
#X connect 1 2 4 0;
#X connect 1 3 4 0;
#X connect 1 4 4 0;
#X connect 1 5 4 0;
#X connect 1 6 4 0;
#X connect 1 7 4 0;
#X connect 1 8 4 0;
#X connect 2 0 18 0;
#X connect 3 0 8 0;
#X connect 4 0 38 0;
#X connect 5 0 6 0;
#X connect 6 0 15 0;
#X connect 7 0 22 0;
#X connect 8 0 2 0;
#X connect 9 0 33 0;
#X connect 10 0 7 1;
#X connect 11 0 7 1;
#X connect 12 0 16 0;
#X connect 13 0 12 0;
#X connect 14 0 10 0;
#X connect 15 0 14 0;
#X connect 16 0 17 0;
#X connect 17 0 11 0;
#X connect 18 0 7 0;
#X connect 19 0 21 0;
#X connect 19 1 21 0;
#X connect 19 2 21 0;
#X connect 19 3 21 0;
#X connect 19 4 21 0;
#X connect 19 5 21 0;
#X connect 19 6 21 0;
#X connect 19 7 21 0;
#X connect 19 8 21 0;
#X connect 20 0 9 0;
#X connect 20 1 9 0;
#X connect 20 2 9 0;
#X connect 20 3 9 0;
#X connect 20 4 9 0;
#X connect 20 5 9 0;
#X connect 20 6 9 0;
#X connect 20 7 9 0;
#X connect 20 8 9 0;
#X connect 21 0 13 0;
#X connect 22 0 44 0;
#X connect 23 0 37 0;
#X connect 23 0 24 0;
#X connect 23 1 35 0;
#X connect 23 1 19 0;
#X connect 23 2 36 0;
#X connect 23 3 34 0;
#X connect 24 0 28 0;
#X connect 24 1 28 0;
#X connect 24 2 28 0;
#X connect 24 3 28 0;
#X connect 24 4 28 0;
#X connect 24 5 28 0;
#X connect 24 6 28 0;
#X connect 24 7 28 0;
#X connect 24 8 28 0;
#X connect 25 0 26 0;
#X connect 26 0 27 0;
#X connect 27 0 29 0;
#X connect 28 0 45 0;
#X connect 29 0 30 0;
#X connect 30 0 44 0;
#X connect 32 0 23 0;
#X connect 33 0 3 0;
#X connect 34 0 4 0;
#X connect 36 0 9 0;
#X connect 38 0 5 0;
#X connect 39 0 40 0;
#X connect 39 0 41 0;
#X connect 40 0 39 1;
#X connect 41 0 43 0;
#X connect 43 0 42 0;
#X connect 44 0 31 0;
#X connect 44 0 42 0;
#X connect 45 0 25 0;
#X restore 552 -32 pd reset_logic;
#X obj 407 38 bng 15 250 50 0 empty empty empty 17 7 0 10 -262144 -1
-1;
#X obj 407 146 print;
#X msg 407 119 -----BASELINE RESET-----;
#X obj 435 96 s bela_setTrill;
#X msg 706 43 new mycraft 1 CRAFT \, mode mycraft DIFF \, prescaler
mycraft 2 \, threshold mycraft 0.01 \, updateBaseline mycraft;
#X msg 1862 234 0.9841;
#X obj 733 612 print scaledDATA;
#X obj 716 450 print parsedDATA;
#X obj 733 580 list;
#X obj 636 253 metro 200;
#X obj 1398 335 > 0.4;
#X obj 1400 312 parse;
#X obj 1398 357 s manualreset;
#X obj 405 -59 r manualreset;
#N canvas 1055 23 503 449 reset_logic-MANUAL 0;
#X obj 147 -134 metro 1000;
#X obj 147 -89 f;
#X obj 178 -89 + 1;
#X floatatom 147 -45 5 0 0 0 - - -, f 5;
#X msg 147 20 0;
#X obj 147 -2 sel 1;
#X msg 91 -187 1;
#X floatatom 91 83 5 0 0 0 - - -, f 5;
#X obj 91 -165 t f f;
#X obj 147 42 t f f;
#X obj 91 -213 sel 1;
#X obj 91 126 outlet;
#X obj 91 -252 inlet;
#X obj 91 104 metro 100;
#X obj 147 -67 mod 7;
#X obj 147 -24 == 6;
#X connect 0 0 1 0;
#X connect 1 0 2 0;
#X connect 1 0 14 0;
#X connect 2 0 1 1;
#X connect 3 0 15 0;
#X connect 4 0 9 0;
#X connect 5 0 4 0;
#X connect 6 0 8 0;
#X connect 7 0 13 0;
#X connect 8 0 0 0;
#X connect 8 1 7 0;
#X connect 9 0 7 0;
#X connect 9 1 0 0;
#X connect 10 0 6 0;
#X connect 12 0 10 0;
#X connect 13 0 11 0;
#X connect 14 0 3 0;
#X connect 15 0 5 0;
#X restore 405 -33 pd reset_logic-MANUAL;
#N canvas 265 656 1266 691 touch_type 0;
#X obj 49 31 inlet;
#X obj 52 419 outlet;
#X obj 167 419 outlet;
#X text 52 441 proximity;
#X text 167 441 light touch;
#X obj 274 419 outlet;
#X text 730 284 logic to pass scaled values;
#X text 189 278 logic to pass binary values;
#X msg 32 192 0 \$1;
#X obj 52 113 unpack f f f f f f f f f;
#X msg 63 192 1 \$1;
#X msg 94 192 2 \$1;
#X msg 125 192 3 \$1;
#X msg 156 192 4 \$1;
#X msg 187 192 5 \$1;
#X msg 218 192 6 \$1;
#X msg 249 192 7 \$1;
#X msg 280 192 8 \$1;
#X obj 113 309 clone touch_split 9;
#X msg 532 226 0 \$1;
#X obj 552 147 unpack f f f f f f f f f;
#X msg 563 226 1 \$1;
#X msg 594 226 2 \$1;
#X msg 625 226 3 \$1;
#X msg 656 226 4 \$1;
#X msg 687 226 5 \$1;
#X msg 718 226 6 \$1;
#X msg 749 226 7 \$1;
#X msg 780 226 8 \$1;
#X obj 609 326 clone touch_scaledvalues 9;
#X obj 609 394 route 0;
#X floatatom 609 416 5 0 0 0 - - -, f 5;
#X obj 670 393 route 0;
#X floatatom 670 415 5 0 0 0 - - -, f 5;
#X obj 727 391 route 0;
#X floatatom 727 413 5 0 0 0 - - -, f 5;
#X obj 788 390 route 0;
#X floatatom 788 412 5 0 0 0 - - -, f 5;
#X text 348 503 reduce down to three;
#X text 274 441 full touch;
#X msg 344 150 0;
#X msg 402 155 0.02;
#X obj 350 63 f;
#X obj 396 63 + 1;
#X obj 350 85 mod 2;
#X obj 350 107 sel 0 1;
#X obj 314 8 tgl 15 0 empty empty empty 17 7 0 10 -262144 -1 -1 0 1
;
#X obj 350 30 metro 200;
#X floatatom 225 114 5 0 0 0 - - -, f 5;
#X obj 124 250 clone smoothing 9;
#X connect 0 0 9 0;
#X connect 0 0 20 0;
#X connect 8 0 49 0;
#X connect 8 0 18 0;
#X connect 9 0 8 0;
#X connect 9 1 10 0;
#X connect 9 2 11 0;
#X connect 9 3 12 0;
#X connect 9 4 13 0;
#X connect 9 5 14 0;
#X connect 9 6 15 0;
#X connect 9 7 16 0;
#X connect 9 8 17 0;
#X connect 10 0 49 0;
#X connect 10 0 18 0;
#X connect 11 0 49 0;
#X connect 11 0 18 0;
#X connect 12 0 49 0;
#X connect 12 0 18 0;
#X connect 13 0 49 0;
#X connect 13 0 18 0;
#X connect 14 0 49 0;
#X connect 14 0 18 0;
#X connect 15 0 49 0;
#X connect 15 0 18 0;
#X connect 16 0 49 0;
#X connect 16 0 18 0;
#X connect 17 0 49 0;
#X connect 17 0 18 0;
#X connect 18 0 1 0;
#X connect 18 1 2 0;
#X connect 18 2 5 0;
#X connect 19 0 29 0;
#X connect 20 0 19 0;
#X connect 20 1 21 0;
#X connect 20 2 22 0;
#X connect 20 3 23 0;
#X connect 20 4 24 0;
#X connect 20 5 25 0;
#X connect 20 6 26 0;
#X connect 20 7 27 0;
#X connect 20 8 28 0;
#X connect 21 0 29 0;
#X connect 22 0 29 0;
#X connect 23 0 29 0;
#X connect 24 0 29 0;
#X connect 25 0 29 0;
#X connect 26 0 29 0;
#X connect 27 0 29 0;
#X connect 28 0 29 0;
#X connect 29 0 30 0;
#X connect 29 1 32 0;
#X connect 29 2 34 0;
#X connect 29 3 36 0;
#X connect 30 0 31 0;
#X connect 32 0 33 0;
#X connect 34 0 35 0;
#X connect 36 0 37 0;
#X connect 40 0 8 0;
#X connect 41 0 8 0;
#X connect 42 0 43 0;
#X connect 42 0 44 0;
#X connect 43 0 42 1;
#X connect 44 0 45 0;
#X connect 45 0 40 0;
#X connect 45 1 41 0;
#X connect 46 0 47 0;
#X connect 47 0 42 0;
#X connect 48 0 8 0;
#X restore 979 589 pd touch_type;
#X obj 659 201 tgl 15 0 empty empty empty 17 7 0 10 -262144 -1 -1 0
1;
#X obj 397 824 route 0;
#X obj 974 514 list;
#X obj 974 454 loadbang;
#X obj 974 484 metro 10;
#X msg 578 793 100 3000 1 3000;
#N canvas 622 55 1938 766 proximity 0;
#X obj 54 20 inlet;
#X obj 97 515 clone soundmodule 9;
#X msg 116 188 0 \$1 \$2 \$3 \$4;
#X msg 993 204 all \$1 \$2 \$3 \$4;
#X msg 1171 198 all \$1;
#X obj 1171 163 tgl 15 0 empty empty random\ start\ point\ on/off 17
7 0 10 -262144 -1 -1 0 1;
#X msg 85 70 1;
#X obj 99 588 throw~ L;
#X obj 176 587 throw~ R;
#X msg 128 71 0;
#N canvas 952 563 621 517 load_sound 0;
#X obj 78 164 pack s;
#X obj 169 164 pack s;
#X obj 260 164 pack s;
#X obj 351 163 pack s;
#X obj 89 48 t b b b b b;
#X obj 82 303 outlet;
#X obj 82 223 pack s s s s;
#X obj 14 186 bng 15 250 50 0 empty empty flush\ new\ samples 17 7
0 10 -262144 -1 -1;
#X msg 78 100 pad_1.wav;
#X msg 169 100 pad_1.wav;
#X msg 260 100 pad_1.wav;
#X msg 351 100 pad_1.wav;
#X obj 89 3 inlet;
#X connect 0 0 6 0;
#X connect 1 0 6 1;
#X connect 2 0 6 2;
#X connect 3 0 6 3;
#X connect 4 0 8 0;
#X connect 4 1 9 0;
#X connect 4 2 10 0;
#X connect 4 3 11 0;
#X connect 6 0 5 0;
#X connect 7 0 6 0;
#X connect 8 0 0 0;
#X connect 9 0 1 0;
#X connect 10 0 2 0;
#X connect 11 0 3 0;
#X connect 12 0 4 0;
#X coords 0 0 1 1 85 60 0;
#X restore 116 160 pd load_sound;
#X msg 207 188 1 \$1 \$2 \$3 \$4;
#X msg 298 188 2 \$1 \$2 \$3 \$4;
#X msg 389 188 3 \$1 \$2 \$3 \$4;
#X msg 480 188 4 \$1 \$2 \$3 \$4;
#X msg 571 188 5 \$1 \$2 \$3 \$4;
#X msg 662 188 6 \$1 \$2 \$3 \$4;
#X msg 753 188 7 \$1 \$2 \$3 \$4;
#X msg 844 188 8 \$1 \$2 \$3 \$4;
#X obj 993 128 loadbang;
#X text 1100 167 ADSR;
#X msg 993 169 100 500 1 3000;
#X msg 92 120 0 \$1;
#N canvas 952 563 621 517 load_sound 0;
#X obj 78 164 pack s;
#X obj 169 164 pack s;
#X obj 260 164 pack s;
#X obj 351 163 pack s;
#X obj 89 48 t b b b b b;
#X obj 82 303 outlet;
#X obj 82 223 pack s s s s;
#X obj 14 186 bng 15 250 50 0 empty empty flush\ new\ samples 17 7
0 10 -262144 -1 -1;
#X obj 89 3 inlet;
#X msg 78 100 pad_2.wav;
#X msg 169 100 pad_2.wav;
#X msg 260 100 pad_2.wav;
#X msg 351 100 pad_2.wav;
#X connect 0 0 6 0;
#X connect 1 0 6 1;
#X connect 2 0 6 2;
#X connect 3 0 6 3;
#X connect 4 0 9 0;
#X connect 4 1 10 0;
#X connect 4 2 11 0;
#X connect 4 3 12 0;
#X connect 6 0 5 0;
#X connect 7 0 6 0;
#X connect 8 0 4 0;
#X connect 9 0 0 0;
#X connect 10 0 1 0;
#X connect 11 0 2 0;
#X connect 12 0 3 0;
#X coords 0 0 1 1 85 60 0;
#X restore 207 160 pd load_sound;
#N canvas 952 563 621 517 load_sound 0;
#X obj 78 164 pack s;
#X obj 169 164 pack s;
#X obj 260 164 pack s;
#X obj 351 163 pack s;
#X obj 89 48 t b b b b b;
#X obj 82 303 outlet;
#X obj 82 223 pack s s s s;
#X obj 14 186 bng 15 250 50 0 empty empty flush\ new\ samples 17 7
0 10 -262144 -1 -1;
#X obj 89 3 inlet;
#X msg 77 99 pad_3.wav;
#X msg 169 100 pad_3.wav;
#X msg 260 100 pad_3.wav;
#X msg 351 100 pad_3.wav;
#X connect 0 0 6 0;
#X connect 1 0 6 1;
#X connect 2 0 6 2;
#X connect 3 0 6 3;
#X connect 4 0 9 0;
#X connect 4 1 10 0;
#X connect 4 2 11 0;
#X connect 4 3 12 0;
#X connect 6 0 5 0;
#X connect 7 0 6 0;
#X connect 8 0 4 0;
#X connect 9 0 0 0;
#X connect 10 0 1 0;
#X connect 11 0 2 0;
#X connect 12 0 3 0;
#X coords 0 0 1 1 85 60 0;
#X restore 298 160 pd load_sound;
#N canvas 952 563 621 517 load_sound 0;
#X obj 78 164 pack s;
#X obj 169 164 pack s;
#X obj 260 164 pack s;
#X obj 351 163 pack s;
#X obj 89 48 t b b b b b;
#X obj 82 303 outlet;
#X obj 82 223 pack s s s s;
#X obj 14 186 bng 15 250 50 0 empty empty flush\ new\ samples 17 7
0 10 -262144 -1 -1;
#X obj 89 3 inlet;
#X msg 78 100 pad_4.wav;
#X msg 169 100 pad_4.wav;
#X msg 260 100 pad_4.wav;
#X msg 351 100 pad_4.wav;
#X connect 0 0 6 0;
#X connect 1 0 6 1;
#X connect 2 0 6 2;
#X connect 3 0 6 3;
#X connect 4 0 9 0;
#X connect 4 1 10 0;
#X connect 4 2 11 0;
#X connect 4 3 12 0;
#X connect 6 0 5 0;
#X connect 7 0 6 0;
#X connect 8 0 4 0;
#X connect 9 0 0 0;
#X connect 10 0 1 0;
#X connect 11 0 2 0;
#X connect 12 0 3 0;
#X coords 0 0 1 1 85 60 0;
#X restore 389 160 pd load_sound;
#N canvas 952 563 621 517 load_sound 0;
#X obj 78 164 pack s;
#X obj 169 164 pack s;
#X obj 260 164 pack s;
#X obj 351 163 pack s;
#X obj 89 48 t b b b b b;
#X obj 82 303 outlet;
#X obj 82 223 pack s s s s;
#X obj 14 186 bng 15 250 50 0 empty empty flush\ new\ samples 17 7
0 10 -262144 -1 -1;
#X obj 89 3 inlet;
#X msg 78 100 pad_5.wav;
#X msg 169 100 pad_5.wav;
#X msg 260 100 pad_5.wav;
#X msg 351 100 pad_5.wav;
#X connect 0 0 6 0;
#X connect 1 0 6 1;
#X connect 2 0 6 2;
#X connect 3 0 6 3;
#X connect 4 0 9 0;
#X connect 4 1 10 0;
#X connect 4 2 11 0;
#X connect 4 3 12 0;
#X connect 6 0 5 0;
#X connect 7 0 6 0;
#X connect 8 0 4 0;
#X connect 9 0 0 0;
#X connect 10 0 1 0;
#X connect 11 0 2 0;
#X connect 12 0 3 0;
#X coords 0 0 1 1 85 60 0;
#X restore 480 160 pd load_sound;
#N canvas 952 563 621 517 load_sound 0;
#X obj 78 164 pack s;
#X obj 169 164 pack s;
#X obj 260 164 pack s;
#X obj 351 163 pack s;
#X obj 89 48 t b b b b b;
#X obj 82 303 outlet;
#X obj 82 223 pack s s s s;
#X obj 14 186 bng 15 250 50 0 empty empty flush\ new\ samples 17 7
0 10 -262144 -1 -1;
#X obj 89 3 inlet;
#X msg 78 100 pad_6.wav;
#X msg 169 100 pad_6.wav;
#X msg 260 100 pad_6.wav;
#X msg 351 100 pad_6.wav;
#X connect 0 0 6 0;
#X connect 1 0 6 1;
#X connect 2 0 6 2;
#X connect 3 0 6 3;
#X connect 4 0 9 0;
#X connect 4 1 10 0;
#X connect 4 2 11 0;
#X connect 4 3 12 0;
#X connect 6 0 5 0;
#X connect 7 0 6 0;
#X connect 8 0 4 0;
#X connect 9 0 0 0;
#X connect 10 0 1 0;
#X connect 11 0 2 0;
#X connect 12 0 3 0;
#X coords 0 0 1 1 85 60 0;
#X restore 571 160 pd load_sound;
#N canvas 952 563 621 517 load_sound 0;
#X obj 78 164 pack s;
#X obj 169 164 pack s;
#X obj 260 164 pack s;
#X obj 351 163 pack s;
#X obj 89 48 t b b b b b;
#X obj 82 303 outlet;
#X obj 82 223 pack s s s s;
#X obj 14 186 bng 15 250 50 0 empty empty flush\ new\ samples 17 7
0 10 -262144 -1 -1;
#X obj 89 3 inlet;
#X msg 77 100 pad_7.wav;
#X msg 169 100 pad_7.wav;
#X msg 259 100 pad_7.wav;
#X msg 351 100 pad_7.wav;
#X connect 0 0 6 0;
#X connect 1 0 6 1;
#X connect 2 0 6 2;
#X connect 3 0 6 3;
#X connect 4 0 9 0;
#X connect 4 1 10 0;
#X connect 4 2 11 0;
#X connect 4 3 12 0;
#X connect 6 0 5 0;
#X connect 7 0 6 0;
#X connect 8 0 4 0;
#X connect 9 0 0 0;
#X connect 10 0 1 0;
#X connect 11 0 2 0;
#X connect 12 0 3 0;
#X coords 0 0 1 1 85 60 0;
#X restore 662 160 pd load_sound;
#N canvas 952 563 621 517 load_sound 0;
#X obj 78 164 pack s;
#X obj 169 164 pack s;
#X obj 260 164 pack s;
#X obj 351 163 pack s;
#X obj 89 48 t b b b b b;
#X obj 82 303 outlet;
#X obj 82 223 pack s s s s;
#X obj 14 186 bng 15 250 50 0 empty empty flush\ new\ samples 17 7
0 10 -262144 -1 -1;
#X obj 89 3 inlet;
#X msg 78 100 pad_8.wav;
#X msg 169 100 pad_8.wav;
#X msg 260 100 pad_8.wav;
#X msg 351 100 pad_8.wav;
#X connect 0 0 6 0;
#X connect 1 0 6 1;
#X connect 2 0 6 2;
#X connect 3 0 6 3;
#X connect 4 0 9 0;
#X connect 4 1 10 0;
#X connect 4 2 11 0;
#X connect 4 3 12 0;
#X connect 6 0 5 0;
#X connect 7 0 6 0;
#X connect 8 0 4 0;
#X connect 9 0 0 0;
#X connect 10 0 1 0;
#X connect 11 0 2 0;
#X connect 12 0 3 0;
#X coords 0 0 1 1 85 60 0;
#X restore 753 160 pd load_sound;
#X obj 238 11 loadbang;
#X obj 254 71 del 100;
#X obj 323 72 del 100;
#X obj 390 74 del 100;
#X obj 473 77 del 100;
#X obj 577 84 del 100;
#X obj 665 86 del 100;
#X obj 748 87 del 100;
#X obj 836 89 del 100;
#N canvas 952 563 621 517 load_sound 0;
#X obj 78 164 pack s;
#X obj 169 164 pack s;
#X obj 260 164 pack s;
#X obj 351 163 pack s;
#X obj 89 48 t b b b b b;
#X obj 82 303 outlet;
#X obj 82 223 pack s s s s;
#X obj 14 186 bng 15 250 50 0 empty empty flush\ new\ samples 17 7
0 10 -262144 -1 -1;
#X obj 89 3 inlet;
#X msg 78 100 pad_8.wav;
#X msg 169 100 pad_8.wav;
#X msg 260 100 pad_8.wav;
#X msg 351 100 pad_8.wav;
#X connect 0 0 6 0;
#X connect 1 0 6 1;
#X connect 2 0 6 2;
#X connect 3 0 6 3;
#X connect 4 0 9 0;
#X connect 4 1 10 0;
#X connect 4 2 11 0;
#X connect 4 3 12 0;
#X connect 6 0 5 0;
#X connect 7 0 6 0;
#X connect 8 0 4 0;
#X connect 9 0 0 0;
#X connect 10 0 1 0;
#X connect 11 0 2 0;
#X connect 12 0 3 0;
#X coords 0 0 1 1 85 60 0;
#X restore 845 158 pd load_sound;
#X obj 238 33 t b b;
#X msg 890 31 1000;
#X connect 0 0 1 0;
#X connect 1 0 7 0;
#X connect 1 1 8 0;
#X connect 2 0 1 1;
#X connect 3 0 1 2;
#X connect 4 0 1 3;
#X connect 5 0 4 0;
#X connect 6 0 22 0;
#X connect 9 0 22 0;
#X connect 10 0 2 0;
#X connect 11 0 1 1;
#X connect 12 0 1 1;
#X connect 13 0 1 1;
#X connect 14 0 1 1;
#X connect 15 0 1 1;
#X connect 16 0 1 1;
#X connect 17 0 1 1;
#X connect 18 0 1 1;
#X connect 19 0 21 0;
#X connect 21 0 3 0;
#X connect 22 0 1 0;
#X connect 23 0 11 0;
#X connect 24 0 12 0;
#X connect 25 0 13 0;
#X connect 26 0 14 0;
#X connect 27 0 15 0;
#X connect 28 0 16 0;
#X connect 29 0 17 0;
#X connect 30 0 40 0;
#X connect 31 0 23 0;
#X connect 31 0 32 0;
#X connect 32 0 24 0;
#X connect 32 0 33 0;
#X connect 33 0 25 0;
#X connect 33 0 34 0;
#X connect 34 0 35 0;
#X connect 34 0 26 0;
#X connect 35 0 27 0;
#X connect 35 0 36 0;
#X connect 36 0 28 0;
#X connect 36 0 37 0;
#X connect 37 0 38 0;
#X connect 37 0 29 0;
#X connect 38 0 39 0;
#X connect 39 0 18 0;
#X connect 40 0 10 0;
#X connect 40 0 31 0;
#X connect 40 1 41 0;
#X connect 41 0 38 1;
#X connect 41 0 37 1;
#X connect 41 0 36 1;
#X connect 41 0 35 1;
#X connect 41 0 34 1;
#X connect 41 0 33 1;
#X connect 41 0 32 1;
#X connect 41 0 31 1;
#X restore 1002 678 pd proximity;
#N canvas 1136 53 1323 766 light 0;
#X obj 54 20 inlet;
#X msg 91 215 0 \$1 \$2 \$3 \$4;
#X msg 968 233 all \$1 \$2 \$3 \$4;
#X msg 1146 227 all \$1;
#X obj 1146 192 tgl 15 0 empty empty random\ start\ point\ on/off 17
7 0 10 -262144 -1 -1 0 1;
#X obj 74 617 throw~ L;
#X obj 151 616 throw~ R;
#N canvas 1055 22 621 433 load_sound 0;
#X obj 78 164 pack s;
#X obj 169 164 pack s;
#X obj 260 164 pack s;
#X obj 351 163 pack s;
#X obj 88 16 loadbang;
#X obj 88 38 t b b b b b;
#X obj 82 303 outlet;
#X obj 82 223 pack s s s s;
#X obj 14 186 bng 15 250 50 0 empty empty flush\ new\ samples 17 7
0 10 -262144 -1 -1;
#X msg 78 100 touch_1.wav;
#X msg 169 100 touch_1.wav;
#X msg 260 100 touch_1.wav;
#X msg 351 100 touch_1.wav;
#X connect 0 0 7 0;
#X connect 1 0 7 1;
#X connect 2 0 7 2;
#X connect 3 0 7 3;
#X connect 4 0 5 0;
#X connect 5 0 9 0;
#X connect 5 1 10 0;
#X connect 5 2 11 0;
#X connect 5 3 12 0;
#X connect 7 0 6 0;
#X connect 8 0 7 0;
#X connect 9 0 0 0;
#X connect 10 0 1 0;
#X connect 11 0 2 0;
#X connect 12 0 3 0;
#X coords 0 0 1 1 85 60 0;
#X restore 91 189 pd load_sound;
#N canvas 1055 22 621 433 load_sound 0;
#X obj 78 164 pack s;
#X obj 169 164 pack s;
#X obj 260 164 pack s;
#X obj 351 163 pack s;
#X obj 88 16 loadbang;
#X obj 88 38 t b b b b b;
#X obj 82 303 outlet;
#X obj 82 223 pack s s s s;
#X obj 14 186 bng 15 250 50 0 empty empty flush\ new\ samples 17 7
0 10 -262144 -1 -1;
#X msg 78 100 touch_2.wav;
#X msg 169 100 touch_2.wav;
#X msg 260 101 touch_2.wav;
#X msg 351 100 touch_2.wav;
#X connect 0 0 7 0;
#X connect 1 0 7 1;
#X connect 2 0 7 2;
#X connect 3 0 7 3;
#X connect 4 0 5 0;
#X connect 5 0 9 0;
#X connect 5 1 10 0;
#X connect 5 2 11 0;
#X connect 5 3 12 0;
#X connect 7 0 6 0;
#X connect 8 0 7 0;
#X connect 9 0 0 0;
#X connect 10 0 1 0;
#X connect 11 0 2 0;
#X connect 12 0 3 0;
#X coords 0 0 1 1 85 60 0;
#X restore 184 189 pd load_sound;
#N canvas 1055 22 621 433 load_sound 0;
#X obj 78 164 pack s;
#X obj 169 164 pack s;
#X obj 260 164 pack s;
#X obj 351 163 pack s;
#X obj 88 16 loadbang;
#X obj 88 38 t b b b b b;
#X obj 82 303 outlet;
#X obj 82 223 pack s s s s;
#X obj 14 186 bng 15 250 50 0 empty empty flush\ new\ samples 17 7
0 10 -262144 -1 -1;
#X msg 78 100 touch_3.wav;
#X msg 169 100 touch_3.wav;
#X msg 261 100 touch_3.wav;
#X msg 351 100 touch_3.wav;
#X connect 0 0 7 0;
#X connect 1 0 7 1;
#X connect 2 0 7 2;
#X connect 3 0 7 3;
#X connect 4 0 5 0;
#X connect 5 0 9 0;
#X connect 5 1 10 0;
#X connect 5 2 11 0;
#X connect 5 3 12 0;
#X connect 7 0 6 0;
#X connect 8 0 7 0;
#X connect 9 0 0 0;
#X connect 10 0 1 0;
#X connect 11 0 2 0;
#X connect 12 0 3 0;
#X coords 0 0 1 1 85 60 0;
#X restore 277 189 pd load_sound;
#N canvas 1055 22 621 433 load_sound 0;
#X obj 78 164 pack s;
#X obj 169 164 pack s;
#X obj 260 164 pack s;
#X obj 351 163 pack s;
#X obj 88 16 loadbang;
#X obj 88 38 t b b b b b;
#X obj 82 303 outlet;
#X obj 82 223 pack s s s s;
#X obj 14 186 bng 15 250 50 0 empty empty flush\ new\ samples 17 7
0 10 -262144 -1 -1;
#X msg 79 100 touch_4.wav;
#X msg 169 101 touch_4.wav;
#X msg 260 100 touch_4.wav;
#X msg 351 100 touch_4.wav;
#X connect 0 0 7 0;
#X connect 1 0 7 1;
#X connect 2 0 7 2;
#X connect 3 0 7 3;
#X connect 4 0 5 0;
#X connect 5 0 9 0;
#X connect 5 1 10 0;
#X connect 5 2 11 0;
#X connect 5 3 12 0;
#X connect 7 0 6 0;
#X connect 8 0 7 0;
#X connect 9 0 0 0;
#X connect 10 0 1 0;
#X connect 11 0 2 0;
#X connect 12 0 3 0;
#X coords 0 0 1 1 85 60 0;
#X restore 370 189 pd load_sound;
#N canvas 1055 22 621 433 load_sound 0;
#X obj 78 164 pack s;
#X obj 169 164 pack s;
#X obj 260 164 pack s;
#X obj 351 163 pack s;
#X obj 88 16 loadbang;
#X obj 88 38 t b b b b b;
#X obj 82 303 outlet;
#X obj 82 223 pack s s s s;
#X obj 14 186 bng 15 250 50 0 empty empty flush\ new\ samples 17 7
0 10 -262144 -1 -1;
#X msg 78 100 touch_5.wav;
#X msg 169 100 touch_5.wav;
#X msg 260 100 touch_5.wav;
#X msg 351 99 touch_5.wav;
#X connect 0 0 7 0;
#X connect 1 0 7 1;
#X connect 2 0 7 2;
#X connect 3 0 7 3;
#X connect 4 0 5 0;
#X connect 5 0 9 0;
#X connect 5 1 10 0;
#X connect 5 2 11 0;
#X connect 5 3 12 0;
#X connect 7 0 6 0;
#X connect 8 0 7 0;
#X connect 9 0 0 0;
#X connect 10 0 1 0;
#X connect 11 0 2 0;
#X connect 12 0 3 0;
#X coords 0 0 1 1 85 60 0;
#X restore 463 189 pd load_sound;
#N canvas 1055 22 621 433 load_sound 0;
#X obj 78 164 pack s;
#X obj 169 164 pack s;
#X obj 260 164 pack s;
#X obj 351 163 pack s;
#X obj 88 16 loadbang;
#X obj 88 38 t b b b b b;
#X obj 82 303 outlet;
#X obj 82 223 pack s s s s;
#X obj 14 186 bng 15 250 50 0 empty empty flush\ new\ samples 17 7
0 10 -262144 -1 -1;
#X msg 78 99 touch_6.wav;
#X msg 169 100 touch_6.wav;
#X msg 260 100 touch_6.wav;
#X msg 351 100 touch_6.wav;
#X connect 0 0 7 0;
#X connect 1 0 7 1;
#X connect 2 0 7 2;
#X connect 3 0 7 3;
#X connect 4 0 5 0;
#X connect 5 0 9 0;
#X connect 5 1 10 0;
#X connect 5 2 11 0;
#X connect 5 3 12 0;
#X connect 7 0 6 0;
#X connect 8 0 7 0;
#X connect 9 0 0 0;
#X connect 10 0 1 0;
#X connect 11 0 2 0;
#X connect 12 0 3 0;
#X coords 0 0 1 1 85 60 0;
#X restore 556 189 pd load_sound;
#N canvas 1055 22 621 433 load_sound 0;
#X obj 78 164 pack s;
#X obj 169 164 pack s;
#X obj 260 164 pack s;
#X obj 351 163 pack s;
#X obj 88 16 loadbang;
#X obj 88 38 t b b b b b;
#X obj 82 303 outlet;
#X obj 82 223 pack s s s s;
#X obj 14 186 bng 15 250 50 0 empty empty flush\ new\ samples 17 7
0 10 -262144 -1 -1;
#X msg 78 100 touch_7.wav;
#X msg 169 100 touch_7.wav;
#X msg 260 100 touch_7.wav;
#X msg 351 100 touch_7.wav;
#X connect 0 0 7 0;
#X connect 1 0 7 1;
#X connect 2 0 7 2;
#X connect 3 0 7 3;
#X connect 4 0 5 0;
#X connect 5 0 9 0;
#X connect 5 1 10 0;
#X connect 5 2 11 0;
#X connect 5 3 12 0;
#X connect 7 0 6 0;
#X connect 8 0 7 0;
#X connect 9 0 0 0;
#X connect 10 0 1 0;
#X connect 11 0 2 0;
#X connect 12 0 3 0;
#X coords 0 0 1 1 85 60 0;
#X restore 649 189 pd load_sound;
#N canvas 1055 22 621 433 load_sound 0;
#X obj 78 164 pack s;
#X obj 169 164 pack s;
#X obj 260 164 pack s;
#X obj 351 163 pack s;
#X obj 88 16 loadbang;
#X obj 88 38 t b b b b b;
#X obj 82 303 outlet;
#X obj 82 223 pack s s s s;
#X obj 14 186 bng 15 250 50 0 empty empty flush\ new\ samples 17 7
0 10 -262144 -1 -1;
#X msg 78 100 touch_8.wav;
#X msg 169 100 touch_8.wav;
#X msg 260 100 touch_8.wav;
#X msg 351 101 touch_8.wav;
#X connect 0 0 7 0;
#X connect 1 0 7 1;
#X connect 2 0 7 2;
#X connect 3 0 7 3;
#X connect 4 0 5 0;
#X connect 5 0 9 0;
#X connect 5 1 10 0;
#X connect 5 2 11 0;
#X connect 5 3 12 0;
#X connect 7 0 6 0;
#X connect 8 0 7 0;
#X connect 9 0 0 0;
#X connect 10 0 1 0;
#X connect 11 0 2 0;
#X connect 12 0 3 0;
#X coords 0 0 1 1 85 60 0;
#X restore 742 189 pd load_sound;
#N canvas 1055 22 621 433 load_sound 0;
#X obj 78 164 pack s;
#X obj 169 164 pack s;
#X obj 260 164 pack s;
#X obj 351 163 pack s;
#X obj 88 16 loadbang;
#X obj 88 38 t b b b b b;
#X obj 82 303 outlet;
#X obj 82 223 pack s s s s;
#X obj 14 186 bng 15 250 50 0 empty empty flush\ new\ samples 17 7
0 10 -262144 -1 -1;
#X msg 78 100 touch_8.wav;
#X msg 169 100 touch_8.wav;
#X msg 260 100 touch_8.wav;
#X msg 351 100 touch_8.wav;
#X connect 0 0 7 0;
#X connect 1 0 7 1;
#X connect 2 0 7 2;
#X connect 3 0 7 3;
#X connect 4 0 5 0;
#X connect 5 0 9 0;
#X connect 5 1 10 0;
#X connect 5 2 11 0;
#X connect 5 3 12 0;
#X connect 7 0 6 0;
#X connect 8 0 7 0;
#X connect 9 0 0 0;
#X connect 10 0 1 0;
#X connect 11 0 2 0;
#X connect 12 0 3 0;
#X coords 0 0 1 1 85 60 0;
#X restore 835 189 pd load_sound;
#X msg 184 215 1 \$1 \$2 \$3 \$4;
#X msg 277 215 2 \$1 \$2 \$3 \$4;
#X msg 370 215 3 \$1 \$2 \$3 \$4;
#X msg 463 215 4 \$1 \$2 \$3 \$4;
#X msg 556 215 5 \$1 \$2 \$3 \$4;
#X msg 649 215 6 \$1 \$2 \$3 \$4;
#X msg 742 215 7 \$1 \$2 \$3 \$4;
#X msg 835 215 8 \$1 \$2 \$3 \$4;
#X obj 968 157 loadbang;
#X text 1075 196 ADSR;
#X msg 968 198 20 5000 1 3000;
#X msg 101 58 1;
#X msg 144 59 0;
#X msg 108 108 0 \$1;
#X connect 4 0 3 0;
#X connect 7 0 1 0;
#X connect 8 0 16 0;
#X connect 9 0 17 0;
#X connect 10 0 18 0;
#X connect 11 0 19 0;
#X connect 12 0 20 0;
#X connect 13 0 21 0;
#X connect 14 0 22 0;
#X connect 15 0 23 0;
#X connect 24 0 26 0;
#X connect 26 0 2 0;
#X connect 27 0 29 0;
#X connect 28 0 29 0;
#X restore 1154 682 pd light;
#X obj 345 965 catch~ L;
#X obj 422 964 catch~ R;
#X connect 1 0 7 3;
#X connect 2 0 7 0;
#X connect 3 0 7 0;
#X connect 4 0 7 1;
#X connect 5 0 65 0;
#X connect 7 0 8 0;
#X connect 7 0 8 2;
#X connect 7 1 8 1;
#X connect 7 1 8 3;
#X connect 9 0 11 0;
#X connect 10 0 53 0;
#X connect 12 0 48 0;
#X connect 13 0 20 0;
#X connect 20 0 9 1;
#X connect 20 0 30 0;
#X connect 24 0 25 0;
#X connect 28 0 41 0;
#X connect 28 0 32 1;
#X connect 28 0 62 1;
#X connect 29 0 38 0;
#X connect 29 0 49 0;
#X connect 30 0 28 8;
#X connect 30 1 28 7;
#X connect 30 2 28 6;
#X connect 30 3 28 5;
#X connect 30 4 28 4;
#X connect 30 5 28 3;
#X connect 30 6 28 2;
#X connect 30 7 28 1;
#X connect 30 8 28 0;
#X connect 30 14 55 0;
#X connect 32 0 51 0;
#X connect 35 0 52 1;
#X connect 35 0 59 0;
#X connect 36 0 47 0;
#X connect 38 0 37 0;
#X connect 42 0 43 0;
#X connect 44 0 36 0;
#X connect 44 0 46 0;
#X connect 46 0 45 0;
#X connect 48 0 14 0;
#X connect 49 0 39 0;
#X connect 52 0 50 0;
#X connect 53 0 52 0;
#X connect 54 0 56 0;
#X connect 55 0 54 0;
#X connect 57 0 58 0;
#X connect 58 0 44 0;
#X connect 59 0 66 0;
#X connect 59 1 67 0;
#X connect 60 0 53 0;
#X connect 61 0 7 0;
#X connect 62 0 35 0;
#X connect 63 0 64 0;
#X connect 64 0 62 0;
#X connect 65 0 7 2;
#X connect 68 0 8 0;
#X connect 68 0 8 2;
#X connect 69 0 8 1;
#X connect 69 0 8 3;
