#N canvas 443 319 765 826 10;
#X obj 265 -475 pack symbol \$0;
#X obj 205 -903 t f f;
#X msg 19 -974 1;
#X obj 151 -858 pack f f;
#X obj 151 -790 - 1;
#X obj 151 -743 pack 0 0 0;
#X msg 428 -438 all \$1 \$2 \$3 \$4;
#X obj 19 -949 makenote 1 2000;
#X msg 574 -437 all \$1;
#X msg 151 -903 1;
#X obj 151 -970 t b f;
#X obj 243 -292 outlet~;
#X obj 353 -292 outlet~;
#X obj 151 -1055 inlet;
#X text 53 -975 debug;
#X obj 426 -1052 inlet;
#X text 196 -1054 input;
#X text 471 -1052 sample load;
#X obj 275 -816 sel 1;
#X obj 275 -783 random_no_repeat;
#X obj 275 -747 sel 0 1 2 3;
#X obj 277 -657 symbol;
#X msg 277 -625 \$1;
#X obj 330 -657 symbol;
#X msg 330 -625 \$1;
#X obj 384 -657 symbol;
#X msg 384 -625 \$1;
#X obj 437 -657 symbol;
#X msg 437 -625 \$1;
#X obj 427 -845 unpack f s s s s;
#X obj 428 -476 r pad_ADSR;
#X obj 574 -473 r pad_RSP;
#X msg 265 -449 next \$1;
#X obj 151 -828 poly 16 1;
#X obj 243 -351 clone pad_voice 16;
#X connect 0 0 32 0;
#X connect 1 0 3 1;
#X connect 1 1 18 0;
#X connect 2 0 7 0;
#X connect 3 0 33 0;
#X connect 4 0 5 0;
#X connect 5 0 34 0;
#X connect 6 0 34 2;
#X connect 7 0 3 0;
#X connect 7 1 1 0;
#X connect 8 0 34 3;
#X connect 9 0 3 0;
#X connect 10 0 9 0;
#X connect 10 1 1 0;
#X connect 13 0 10 0;
#X connect 15 0 29 0;
#X connect 18 0 19 0;
#X connect 19 0 20 0;
#X connect 20 0 21 0;
#X connect 20 1 23 0;
#X connect 20 2 25 0;
#X connect 20 3 27 0;
#X connect 21 0 22 0;
#X connect 22 0 0 0;
#X connect 23 0 24 0;
#X connect 24 0 0 0;
#X connect 25 0 26 0;
#X connect 26 0 0 0;
#X connect 27 0 28 0;
#X connect 28 0 0 0;
#X connect 29 0 19 1;
#X connect 29 1 21 1;
#X connect 29 2 23 1;
#X connect 29 3 25 1;
#X connect 29 4 27 1;
#X connect 30 0 6 0;
#X connect 31 0 8 0;
#X connect 32 0 34 1;
#X connect 33 0 4 0;
#X connect 33 1 5 1;
#X connect 33 2 5 2;
#X connect 34 0 11 0;
#X connect 34 1 12 0;
