#N canvas 112 265 760 844 10;
#X obj 151 -1055 inlet;
#X obj 306 -1052 inlet;
#X obj 193 -506 pack symbol \$0;
#X obj 205 -851 t f f;
#X msg 19 -922 1;
#X obj 151 -806 pack f f;
#X obj 151 -738 - 1;
#X obj 151 -691 pack 0 0 0;
#X msg 318 -471 all \$1 \$2 \$3 \$4;
#X obj 19 -897 makenote 1 2000;
#X msg 459 -473 all \$1;
#X msg 151 -851 1;
#X obj 151 -908 t b f;
#X text 53 -923 debug;
#X obj 245 -814 sel 1;
#X obj 245 -781 random_no_repeat;
#X obj 245 -745 sel 0 1 2 3;
#X obj 247 -665 symbol;
#X msg 247 -633 \$1;
#X obj 300 -665 symbol;
#X msg 300 -633 \$1;
#X obj 354 -665 symbol;
#X msg 354 -633 \$1;
#X obj 407 -665 symbol;
#X msg 407 -633 \$1;
#X obj 357 -863 unpack f s s s s;
#X obj 318 -509 r pad_ADSR;
#X obj 459 -509 r pad_RSP;
#X msg 193 -480 next \$1;
#X obj 151 -776 poly 16 1;
#X obj 152 -402 clone pad_voice 16;
#X obj 152 -291 outlet~;
#X obj 241 -291 outlet~;
#X text 196 -1054 trigger on off;
#X text 400 -995 up to 8 sample groups with 4 round robins per group
;
#N canvas 1055 22 715 467 msg_routing 0;
#X obj 310 225 list;
#X obj 356 225 list;
#X obj 403 225 list;
#X obj 450 225 list;
#X obj 310 191 sel 1;
#X obj 356 191 sel 1;
#X obj 403 191 sel 1;
#X obj 450 191 sel 1;
#X obj 50 111 t f f;
#X obj 94 111 t f f;
#X obj 139 111 t f f;
#X obj 184 111 t f f;
#X obj 50 35 route 1 2 3 4 5 6 7 8;
#X obj 229 111 t f f;
#X obj 274 111 t f f;
#X obj 319 111 t f f;
#X obj 364 111 t f f;
#X obj 497 225 list;
#X obj 543 225 list;
#X obj 590 225 list;
#X obj 637 225 list;
#X obj 497 191 sel 1;
#X obj 543 191 sel 1;
#X obj 590 191 sel 1;
#X obj 637 191 sel 1;
#X obj 335 35 route 1 2 3 4 5 6 7 8;
#X obj 50 6 inlet;
#X obj 335 6 inlet;
#X obj 50 395 outlet;
#X obj 403 395 outlet;
#X connect 0 0 29 0;
#X connect 1 0 29 0;
#X connect 2 0 29 0;
#X connect 3 0 29 0;
#X connect 4 0 0 0;
#X connect 5 0 1 0;
#X connect 6 0 2 0;
#X connect 7 0 3 0;
#X connect 8 0 28 0;
#X connect 8 1 4 0;
#X connect 9 0 28 0;
#X connect 9 1 5 0;
#X connect 10 0 28 0;
#X connect 10 1 6 0;
#X connect 11 0 28 0;
#X connect 11 1 7 0;
#X connect 12 0 8 0;
#X connect 12 1 9 0;
#X connect 12 2 10 0;
#X connect 12 3 11 0;
#X connect 12 4 13 0;
#X connect 12 5 14 0;
#X connect 12 6 15 0;
#X connect 12 7 16 0;
#X connect 13 0 28 0;
#X connect 13 1 21 0;
#X connect 14 0 28 0;
#X connect 14 1 22 0;
#X connect 15 0 28 0;
#X connect 15 1 23 0;
#X connect 16 0 28 0;
#X connect 16 1 24 0;
#X connect 17 0 29 0;
#X connect 18 0 29 0;
#X connect 19 0 29 0;
#X connect 20 0 29 0;
#X connect 21 0 17 0;
#X connect 22 0 18 0;
#X connect 23 0 19 0;
#X connect 24 0 20 0;
#X connect 25 0 0 1;
#X connect 25 1 1 1;
#X connect 25 2 2 1;
#X connect 25 3 3 1;
#X connect 25 4 17 1;
#X connect 25 5 18 1;
#X connect 25 6 19 1;
#X connect 25 7 20 1;
#X connect 26 0 12 0;
#X connect 27 0 25 0;
#X restore 151 -954 pd msg_routing;
#X text 351 -1052 loaded samples;
#X connect 0 0 35 0;
#X connect 1 0 35 1;
#X connect 2 0 28 0;
#X connect 3 0 5 1;
#X connect 3 1 14 0;
#X connect 4 0 9 0;
#X connect 5 0 29 0;
#X connect 6 0 7 0;
#X connect 7 0 30 0;
#X connect 8 0 30 2;
#X connect 9 0 5 0;
#X connect 9 1 3 0;
#X connect 10 0 30 3;
#X connect 11 0 5 0;
#X connect 12 0 11 0;
#X connect 12 1 3 0;
#X connect 14 0 15 0;
#X connect 15 0 16 0;
#X connect 16 0 17 0;
#X connect 16 1 19 0;
#X connect 16 2 21 0;
#X connect 16 3 23 0;
#X connect 17 0 18 0;
#X connect 18 0 2 0;
#X connect 19 0 20 0;
#X connect 20 0 2 0;
#X connect 21 0 22 0;
#X connect 22 0 2 0;
#X connect 23 0 24 0;
#X connect 24 0 2 0;
#X connect 25 0 15 1;
#X connect 25 1 17 1;
#X connect 25 2 19 1;
#X connect 25 3 21 1;
#X connect 25 4 23 1;
#X connect 26 0 8 0;
#X connect 27 0 10 0;
#X connect 28 0 30 1;
#X connect 29 0 6 0;
#X connect 29 1 7 1;
#X connect 29 2 7 2;
#X connect 30 0 31 0;
#X connect 30 1 32 0;
#X connect 35 0 12 0;
#X connect 35 1 25 0;
